SplineFontDB: 3.0
FontName: CutiveMono-Regular
FullName: Cutive Mono
FamilyName: Cutive Mono
Weight: Book
Copyright: Copyright (c) 2012, vernon adams (vern@newtypography.co.uk), with Reserved Font Names 'Cutive'.
Version: 1.002
ItalicAngle: 0
UnderlinePosition: -435
UnderlineWidth: 0
Ascent: 1638
Descent: 410
sfntRevision: 0x00010083
LayerCount: 2
Layer: 0 1 "Back"  1
Layer: 1 1 "Fore"  0
NeedsXUIDChange: 1
XUID: [1021 14 500265001 2845301]
FSType: 0
OS2Version: 0
OS2_WeightWidthSlopeOnly: 0
OS2_UseTypoMetrics: 1
CreationTime: 1350682231
ModificationTime: 1351225891
PfmFamily: 49
TTFWeight: 400
TTFWidth: 5
LineGap: 0
VLineGap: 0
OS2TypoAscent: 1697
OS2TypoAOffset: 0
OS2TypoDescent: -558
OS2TypoDOffset: 0
OS2TypoLinegap: 0
OS2WinAscent: 1697
OS2WinAOffset: 0
OS2WinDescent: 558
OS2WinDOffset: 0
HheadAscent: 1697
HheadAOffset: 0
HheadDescent: -558
HheadDOffset: 0
OS2Vendor: 'newt'
MarkAttachClasses: 1
DEI: 91125
ShortTable: maxp 16
  1
  0
  443
  112
  6
  105
  4
  2
  0
  1
  1
  0
  64
  0
  3
  1
EndShort
LangName: 1033 "" "" "" "Cutive Mono Regular Version 1.002" "" "Version 1.002" "" "CutiveMono is a trademark of Vernon Adams." "Vernon Adams" "Vernon Adams" "" "http://newtypography.co.uk" "http://newtypography.co.uk" "This Font Software is licensed under the SIL Open Font License, Version 1.1. This license is available with a FAQ at: http://scripts.sil.org/OFL" "http://scripts.sil.org/OFL" "" "Cutive Mono" "Regular" "Cutive Mono" 
GaspTable: 1 65535 2
Encoding: UnicodeBmp
Compacted: 1
UnicodeInterp: none
NameList: Adobe Glyph List
DisplaySize: -48
AntiAlias: 1
FitToEm: 1
WinInfo: 161 23 13
BeginPrivate: 0
EndPrivate
Grid
-2048 774 m 4
 4096 774 l 4
EndSplineSet
BeginChars: 65541 440

StartChar: .notdef
Encoding: 65536 -1 0
Width: 1240
Flags: HW
LayerCount: 2
Fore
SplineSet
102 0 m 1,0,-1
 102 1092 l 1,1,-1
 922 1092 l 1,2,-1
 922 0 l 1,3,-1
 102 0 l 1,0,-1
204 102 m 1,4,-1
 820 102 l 1,5,-1
 820 990 l 1,6,-1
 204 990 l 1,7,-1
 204 102 l 1,4,-1
EndSplineSet
EndChar

StartChar: exclam
Encoding: 33 33 3
Width: 1240
Flags: HW
LayerCount: 2
Fore
SplineSet
686 1103 m 0,0,1
 686 989 686 989 666 747 c 128,-1,2
 646 505 646 505 646 380 c 0,3,4
 646 344 646 344 622 344 c 128,-1,5
 598 344 598 344 598 380 c 0,6,7
 598 506 598 506 577 747 c 128,-1,8
 556 988 556 988 556 1103 c 0,9,10
 556 1150 556 1150 573 1168.5 c 128,-1,11
 590 1187 590 1187 622 1187 c 0,12,13
 686 1187 686 1187 686 1103 c 0,0,1
621 -9 m 128,-1,15
 578 -9 578 -9 548.5 20.5 c 128,-1,16
 519 50 519 50 519 93 c 128,-1,17
 519 136 519 136 548.5 164.5 c 128,-1,18
 578 193 578 193 621 193 c 128,-1,19
 664 193 664 193 693 164.5 c 128,-1,20
 722 136 722 136 722 93 c 128,-1,21
 722 50 722 50 693 20.5 c 128,-1,14
 664 -9 664 -9 621 -9 c 128,-1,15
EndSplineSet
EndChar

StartChar: quotedbl
Encoding: 34 34 4
Width: 1240
Flags: HW
LayerCount: 2
Fore
SplineSet
752 721 m 2,0,1
 751 701 751 701 728 701 c 0,2,3
 704 701 704 701 703 721 c 2,4,-1
 671 1117 l 2,5,6
 669 1143 669 1143 686 1157.5 c 128,-1,7
 703 1172 703 1172 728 1172 c 0,8,9
 751 1172 751 1172 768.5 1158.5 c 128,-1,10
 786 1145 786 1145 786 1122 c 2,11,-1
 786 1116 l 1,12,-1
 752 721 l 2,0,1
535 721 m 2,13,14
 534 701 534 701 511 701 c 0,15,16
 487 701 487 701 486 721 c 2,17,-1
 454 1117 l 2,18,19
 452 1143 452 1143 469 1157.5 c 128,-1,20
 486 1172 486 1172 511 1172 c 0,21,22
 534 1172 534 1172 551.5 1158.5 c 128,-1,23
 569 1145 569 1145 569 1122 c 2,24,-1
 569 1116 l 1,25,-1
 535 721 l 2,13,14
EndSplineSet
EndChar

StartChar: numbersign
Encoding: 35 35 5
Width: 1240
Flags: HW
LayerCount: 2
Fore
SplineSet
584 -94 m 0,0,1
 584 -89 584 -89 585 -86 c 2,2,-1
 704 385 l 1,3,-1
 447 385 l 1,4,-1
 325 -94 l 2,5,6
 318 -123 318 -123 284 -123 c 0,7,8
 269 -123 269 -123 258 -115 c 128,-1,9
 247 -107 247 -107 247 -94 c 0,10,11
 247 -89 247 -89 248 -86 c 2,12,-1
 367 385 l 1,13,-1
 250 385 l 2,14,15
 236 385 236 385 227.5 397.5 c 128,-1,16
 219 410 219 410 219 428 c 0,17,18
 219 445 219 445 227.5 457.5 c 128,-1,19
 236 470 236 470 250 470 c 2,20,-1
 388 470 l 1,21,-1
 443 689 l 1,22,-1
 292 689 l 2,23,24
 278 689 278 689 269.5 701.5 c 128,-1,25
 261 714 261 714 261 732 c 0,26,27
 261 749 261 749 269.5 761.5 c 128,-1,28
 278 774 278 774 292 774 c 2,29,-1
 465 774 l 1,30,-1
 593 1282 l 2,31,32
 600 1308 600 1308 631 1308 c 0,33,34
 647 1308 647 1308 659.5 1299.5 c 128,-1,35
 672 1291 672 1291 672 1277 c 0,36,37
 672 1272 672 1272 671 1270 c 2,38,-1
 545 774 l 1,39,-1
 802 774 l 1,40,-1
 930 1282 l 2,41,42
 937 1308 937 1308 968 1308 c 0,43,44
 984 1308 984 1308 996.5 1299.5 c 128,-1,45
 1009 1291 1009 1291 1009 1277 c 0,46,47
 1009 1272 1009 1272 1008 1270 c 2,48,-1
 882 774 l 1,49,-1
 1001 774 l 2,50,51
 1016 774 1016 774 1024 761 c 128,-1,52
 1032 748 1032 748 1032 731 c 128,-1,53
 1032 714 1032 714 1024 701.5 c 128,-1,54
 1016 689 1016 689 1002 689 c 2,55,-1
 861 689 l 1,56,-1
 805 470 l 1,57,-1
 959 470 l 2,58,59
 974 470 974 470 982 457.5 c 128,-1,60
 990 445 990 445 990 428 c 0,61,62
 990 410 990 410 982 397.5 c 128,-1,63
 974 385 974 385 959 385 c 2,64,-1
 784 385 l 1,65,-1
 662 -94 l 2,66,67
 655 -123 655 -123 621 -123 c 0,68,69
 606 -123 606 -123 595 -115 c 128,-1,70
 584 -107 584 -107 584 -94 c 0,0,1
468 470 m 1,71,-1
 725 470 l 1,72,-1
 780 689 l 1,73,-1
 524 689 l 1,74,-1
 468 470 l 1,71,-1
EndSplineSet
EndChar

StartChar: dollar
Encoding: 36 36 6
Width: 1240
Flags: HW
LayerCount: 2
Fore
SplineSet
640 1315 m 2,0,1
 640 1328 640 1328 650 1336 c 128,-1,2
 660 1344 660 1344 674 1344 c 0,3,4
 687 1344 687 1344 697 1336 c 128,-1,5
 707 1328 707 1328 707 1315 c 2,6,-1
 707 1183 l 1,7,8
 850 1168 850 1168 917 1095 c 1,9,10
 917 1187 917 1187 969 1187 c 0,11,12
 990 1187 990 1187 999.5 1171 c 128,-1,13
 1009 1155 1009 1155 1009 1117 c 2,14,-1
 1009 864 l 2,15,16
 1009 838 1009 838 996 824.5 c 128,-1,17
 983 811 983 811 963 811 c 0,18,19
 945 811 945 811 931.5 823.5 c 128,-1,20
 918 836 918 836 918 858 c 2,21,-1
 918 949 l 1,22,23
 912 998 912 998 869 1034 c 128,-1,24
 826 1070 826 1070 769 1086 c 0,25,26
 739 1094 739 1094 707 1098 c 1,27,-1
 707 636 l 1,28,29
 729 628 729 628 751 621 c 0,30,31
 829 594 829 594 881.5 567.5 c 128,-1,32
 934 541 934 541 976 504 c 128,-1,33
 1018 467 1018 467 1037.5 419 c 128,-1,34
 1057 371 1057 371 1057 308 c 0,35,36
 1057 222 1057 222 1027 157.5 c 128,-1,37
 997 93 997 93 944.5 56 c 128,-1,38
 892 19 892 19 828 1 c 0,39,40
 772 -15 772 -15 707 -17 c 1,41,-1
 707 -141 l 2,42,43
 707 -153 707 -153 697 -160 c 128,-1,44
 687 -167 687 -167 674 -167 c 0,45,46
 660 -167 660 -167 650 -160 c 128,-1,47
 640 -153 640 -153 640 -141 c 2,48,-1
 640 -14 l 1,49,50
 577 -7 577 -7 510 16 c 0,51,52
 416 49 416 49 363 105 c 1,53,54
 363 -17 363 -17 316 -17 c 0,55,56
 290 -17 290 -17 279 -1 c 128,-1,57
 268 15 268 15 268 57 c 2,58,-1
 268 371 l 2,59,60
 268 394 268 394 280.5 406 c 128,-1,61
 293 418 293 418 312 418 c 128,-1,62
 331 418 331 418 344.5 405 c 128,-1,63
 358 392 358 392 358 369 c 2,64,-1
 358 250 l 2,65,66
 358 185 358 185 464 127 c 0,67,68
 547 81 547 81 640 72 c 1,69,-1
 640 561 l 1,70,-1
 567 586 l 2,71,72
 512 605 512 605 476 620 c 128,-1,73
 440 635 440 635 399.5 660 c 128,-1,74
 359 685 359 685 336 713.5 c 128,-1,75
 313 742 313 742 297.5 784.5 c 128,-1,76
 282 827 282 827 282 881 c 0,77,78
 282 1025 282 1025 380.5 1106 c 128,-1,79
 479 1187 479 1187 627 1187 c 0,80,81
 634 1187 634 1187 640 1187 c 1,82,-1
 640 1315 l 2,0,1
640 1101 m 1,83,84
 519 1100 519 1100 450 1044 c 0,85,86
 378 986 378 986 378 886 c 0,87,88
 378 857 378 857 383.5 833.5 c 128,-1,89
 389 810 389 810 395.5 793 c 128,-1,90
 402 776 402 776 421.5 759.5 c 128,-1,91
 441 743 441 743 453 734 c 128,-1,92
 465 725 465 725 498.5 711 c 128,-1,93
 532 697 532 697 550 690.5 c 128,-1,94
 568 684 568 684 615 668 c 0,95,96
 627 664 627 664 640 659 c 1,97,-1
 640 1101 l 1,83,84
707 69 m 1,98,99
 816 72 816 72 886 126 c 0,100,101
 961 183 961 183 961 304 c 0,102,103
 961 351 961 351 946.5 386 c 128,-1,104
 932 421 932 421 900 447 c 128,-1,105
 868 473 868 473 829.5 491 c 128,-1,106
 791 509 791 509 731 530 c 0,107,108
 719 534 719 534 707 538 c 1,109,-1
 707 69 l 1,98,99
EndSplineSet
EndChar

StartChar: percent
Encoding: 37 37 7
Width: 1240
Flags: HW
LayerCount: 2
Fore
SplineSet
277 472 m 0,0,1
 215 472 215 472 174 526.5 c 128,-1,2
 133 581 133 581 133 657 c 0,3,4
 133 792 133 792 198 889 c 128,-1,5
 263 986 263 986 361 986 c 2,6,-1
 403 986 l 2,7,8
 482 986 482 986 529.5 987.5 c 128,-1,9
 577 989 577 989 638.5 997.5 c 128,-1,10
 700 1006 700 1006 738.5 1022 c 128,-1,11
 777 1038 777 1038 813 1068.5 c 128,-1,12
 849 1099 849 1099 869 1143 c 0,13,14
 878 1162 878 1162 898 1162 c 0,15,16
 912 1162 912 1162 923.5 1151.5 c 128,-1,17
 935 1141 935 1141 935 1124 c 0,18,19
 935 1113 935 1113 931 1104 c 2,20,-1
 370 -215 l 2,21,22
 358 -243 358 -243 331 -243 c 0,23,24
 316 -243 316 -243 306 -233.5 c 128,-1,25
 296 -224 296 -224 296 -207 c 0,26,27
 296 -194 296 -194 301 -183 c 2,28,-1
 800 985 l 1,29,30
 704 915 704 915 535 915 c 0,31,32
 478 915 478 915 415 926 c 1,33,34
 451 904 451 904 469 860 c 128,-1,35
 487 816 487 816 489 767 c 1,36,37
 489 658 489 658 428 565 c 128,-1,38
 367 472 367 472 277 472 c 0,0,1
282 531 m 0,39,40
 321 531 321 531 353 571.5 c 128,-1,41
 385 612 385 612 401 667.5 c 128,-1,42
 417 723 417 723 417 777 c 0,43,44
 417 829 417 829 398 871 c 128,-1,45
 379 913 379 913 346 913 c 0,46,47
 284 913 284 913 244.5 840.5 c 128,-1,48
 205 768 205 768 205 661 c 0,49,50
 205 605 205 605 225 568 c 128,-1,51
 245 531 245 531 282 531 c 0,39,40
878 -13 m 0,52,53
 810 -13 810 -13 774.5 43 c 128,-1,54
 739 99 739 99 739 184 c 0,55,56
 739 259 739 259 764.5 330.5 c 128,-1,57
 790 402 790 402 843 451.5 c 128,-1,58
 896 501 896 501 964 501 c 0,59,60
 1027 501 1027 501 1063 444 c 128,-1,61
 1099 387 1099 387 1099 308 c 1,62,63
 1097 173 1097 173 1037.5 80 c 128,-1,64
 978 -13 978 -13 878 -13 c 0,52,53
887 44 m 0,65,66
 926 44 926 44 959 84 c 128,-1,67
 992 124 992 124 1009 182.5 c 128,-1,68
 1026 241 1026 241 1026 301 c 0,69,70
 1026 359 1026 359 1009 397 c 128,-1,71
 992 435 992 435 957 435 c 0,72,73
 896 435 896 435 854.5 353 c 128,-1,74
 813 271 813 271 813 181 c 0,75,76
 813 122 813 122 831.5 83 c 128,-1,77
 850 44 850 44 887 44 c 0,65,66
EndSplineSet
EndChar

StartChar: ampersand
Encoding: 38 38 8
Width: 1240
Flags: HW
LayerCount: 2
Fore
SplineSet
847 135 m 1,0,1
 781 62 781 62 699.5 23 c 128,-1,2
 618 -16 618 -16 506 -16 c 0,3,4
 359 -16 359 -16 272.5 59.5 c 128,-1,5
 186 135 186 135 186 272 c 0,6,7
 186 292 186 292 187 303 c 0,8,9
 190 346 190 346 212 392.5 c 128,-1,10
 234 439 234 439 256 470.5 c 128,-1,11
 278 502 278 502 319 542.5 c 128,-1,12
 360 583 360 583 373.5 594 c 128,-1,13
 387 605 387 605 419 632 c 1,14,15
 378 686 378 686 353 723.5 c 128,-1,16
 328 761 328 761 301.5 823 c 128,-1,17
 275 885 275 885 275 936 c 0,18,19
 275 1049 275 1049 339 1119 c 128,-1,20
 403 1189 403 1189 511 1189 c 0,21,22
 625 1189 625 1189 692.5 1118 c 128,-1,23
 760 1047 760 1047 760 933 c 0,24,25
 760 908 760 908 756 884.5 c 128,-1,26
 752 861 752 861 741.5 838 c 128,-1,27
 731 815 731 815 722.5 797.5 c 128,-1,28
 714 780 714 780 695 758.5 c 128,-1,29
 676 737 676 737 666.5 725.5 c 128,-1,30
 657 714 657 714 632.5 693 c 128,-1,31
 608 672 608 672 600 665 c 128,-1,32
 592 658 592 658 565 636.5 c 128,-1,33
 538 615 538 615 534 612 c 1,34,35
 594 525 594 525 689 416 c 128,-1,36
 784 307 784 307 849 254 c 1,37,38
 893 297 893 297 933.5 387 c 128,-1,39
 974 477 974 477 978 544 c 1,40,-1
 846 544 l 2,41,42
 830 544 830 544 821 557 c 128,-1,43
 812 570 812 570 812 587 c 0,44,45
 812 603 812 603 820 614.5 c 128,-1,46
 828 626 828 626 844 626 c 2,47,-1
 1118 626 l 2,48,49
 1134 626 1134 626 1143.5 613.5 c 128,-1,50
 1153 601 1153 601 1153 585 c 0,51,52
 1153 568 1153 568 1143.5 556 c 128,-1,53
 1134 544 1134 544 1116 544 c 2,54,-1
 1057 544 l 1,55,56
 1055 499 1055 499 1040.5 451 c 128,-1,57
 1026 403 1026 403 999.5 355 c 128,-1,58
 973 307 973 307 954 276.5 c 128,-1,59
 935 246 935 246 905 203 c 1,60,61
 1032 93 1032 93 1092 51 c 0,62,63
 1116 35 1116 35 1116 12 c 0,64,65
 1116 -5 1116 -5 1102 -18.5 c 128,-1,66
 1088 -32 1088 -32 1070 -32 c 0,67,68
 1061 -32 1061 -32 1051 -27 c 0,69,70
 1029 -15 1029 -15 997 10 c 128,-1,71
 965 35 965 35 915.5 77 c 128,-1,72
 866 119 866 119 847 135 c 1,0,1
283 311 m 0,73,74
 282 301 282 301 282 282 c 0,75,76
 282 171 282 171 348 118 c 128,-1,77
 414 65 414 65 517 65 c 0,78,79
 600 65 600 65 675 100.5 c 128,-1,80
 750 136 750 136 797 192 c 1,81,82
 728 248 728 248 626 368.5 c 128,-1,83
 524 489 524 489 469 564 c 1,84,85
 410 518 410 518 349 445 c 128,-1,86
 288 372 288 372 283 311 c 0,73,74
673 931 m 0,87,88
 673 1021 673 1021 628 1064 c 128,-1,89
 583 1107 583 1107 521 1107 c 0,90,91
 462 1107 462 1107 416.5 1066.5 c 128,-1,92
 371 1026 371 1026 371 944 c 0,93,94
 371 833 371 833 487 678 c 1,95,96
 673 812 673 812 673 931 c 0,87,88
EndSplineSet
EndChar

StartChar: quotesingle
Encoding: 39 39 9
Width: 1240
Flags: HW
LayerCount: 2
Fore
SplineSet
644 721 m 2,0,1
 643 701 643 701 620 701 c 0,2,3
 596 701 596 701 595 721 c 2,4,-1
 563 1117 l 2,5,6
 561 1143 561 1143 578 1157.5 c 128,-1,7
 595 1172 595 1172 620 1172 c 0,8,9
 643 1172 643 1172 660.5 1158.5 c 128,-1,10
 678 1145 678 1145 678 1122 c 2,11,-1
 678 1116 l 1,12,-1
 644 721 l 2,0,1
EndSplineSet
EndChar

StartChar: parenleft
Encoding: 40 40 10
Width: 1240
Flags: HW
LayerCount: 2
Fore
SplineSet
484 570 m 128,-1,1
 484 994 484 994 692 1267 c 0,2,3
 705 1284 705 1284 723 1284 c 128,-1,4
 741 1284 741 1284 755.5 1269 c 128,-1,5
 770 1254 770 1254 770 1238 c 0,6,7
 770 1230 770 1230 764 1222 c 0,8,9
 672 1114 672 1114 625 941.5 c 128,-1,10
 578 769 578 769 578 570 c 128,-1,11
 578 371 578 371 625 198.5 c 128,-1,12
 672 26 672 26 764 -82 c 0,13,14
 770 -89 770 -89 770 -98 c 0,15,16
 770 -114 770 -114 755.5 -129 c 128,-1,17
 741 -144 741 -144 723 -144 c 128,-1,18
 705 -144 705 -144 692 -127 c 0,19,0
 484 146 484 146 484 570 c 128,-1,1
EndSplineSet
EndChar

StartChar: parenright
Encoding: 41 41 11
Width: 1240
Flags: HW
LayerCount: 2
Fore
SplineSet
770 570 m 128,-1,1
 770 146 770 146 562 -127 c 0,2,3
 549 -144 549 -144 531 -144 c 128,-1,4
 513 -144 513 -144 498.5 -129 c 128,-1,5
 484 -114 484 -114 484 -98 c 0,6,7
 484 -90 484 -90 490 -82 c 0,8,9
 582 26 582 26 629 198.5 c 128,-1,10
 676 371 676 371 676 570 c 128,-1,11
 676 769 676 769 629 941.5 c 128,-1,12
 582 1114 582 1114 490 1222 c 0,13,14
 484 1230 484 1230 484 1238 c 0,15,16
 484 1254 484 1254 498.5 1269 c 128,-1,17
 513 1284 513 1284 531 1284 c 128,-1,18
 549 1284 549 1284 562 1267 c 0,19,0
 770 994 770 994 770 570 c 128,-1,1
EndSplineSet
EndChar

StartChar: asterisk
Encoding: 42 42 12
Width: 1240
Flags: HW
LayerCount: 2
Fore
SplineSet
975 856 m 1,0,1
 998 856 998 856 1011 836.5 c 128,-1,2
 1024 817 1024 817 1024 791 c 128,-1,3
 1024 765 1024 765 1011 746 c 128,-1,4
 998 727 998 727 975 727 c 1,5,-1
 777 750 l 1,6,7
 758 751 758 751 747 762.5 c 128,-1,8
 736 774 736 774 736 791 c 0,9,10
 736 829 736 829 777 834 c 2,11,-1
 975 856 l 1,0,1
342 727 m 1,12,13
 319 727 319 727 305.5 746.5 c 128,-1,14
 292 766 292 766 292 791 c 0,15,16
 292 817 292 817 305.5 836.5 c 128,-1,17
 319 856 319 856 342 856 c 1,18,-1
 540 834 l 2,19,20
 581 829 581 829 581 791 c 0,21,22
 581 774 581 774 570 762.5 c 128,-1,23
 559 751 559 751 540 750 c 1,24,-1
 342 727 l 1,12,13
879 536 m 0,25,26
 879 509 879 509 853 489.5 c 128,-1,27
 827 470 827 470 798 470 c 0,28,29
 767 470 767 470 758 492 c 2,30,-1
 680 672 l 1,31,32
 675 687 675 687 675 692 c 0,33,34
 675 709 675 709 687.5 720 c 128,-1,35
 700 731 700 731 718 731 c 0,36,37
 740 731 740 731 755 712 c 2,38,-1
 873 556 l 1,39,40
 879 544 879 544 879 536 c 0,25,26
642 891 m 0,41,42
 642 874 642 874 629 862.5 c 128,-1,43
 616 851 616 851 598 851 c 0,44,45
 578 851 578 851 563 872 c 2,46,-1
 444 1027 l 1,47,48
 438 1039 438 1039 438 1048 c 0,49,50
 438 1075 438 1075 463.5 1094 c 128,-1,51
 489 1113 489 1113 519 1113 c 0,52,53
 547 1113 547 1113 559 1092 c 1,54,-1
 637 912 l 2,55,56
 642 900 642 900 642 891 c 0,41,42
518 470 m 0,57,58
 488 470 488 470 462.5 489.5 c 128,-1,59
 437 509 437 509 437 536 c 0,60,61
 437 544 437 544 443 556 c 1,62,-1
 562 712 l 1,63,64
 575 731 575 731 597 731 c 0,65,66
 615 731 615 731 628 720 c 128,-1,67
 641 709 641 709 641 692 c 0,68,69
 641 684 641 684 637 672 c 1,70,-1
 559 492 l 1,71,72
 546 470 546 470 518 470 c 0,57,58
796 1113 m 128,-1,74
 826 1113 826 1113 851.5 1093.5 c 128,-1,75
 877 1074 877 1074 877 1048 c 0,76,77
 877 1037 877 1037 872 1027 c 1,78,-1
 753 872 l 2,79,80
 738 851 738 851 717 851 c 0,81,82
 699 851 699 851 686.5 862.5 c 128,-1,83
 674 874 674 874 674 891 c 0,84,85
 674 898 674 898 678 912 c 1,86,-1
 756 1092 l 2,87,73
 766 1113 766 1113 796 1113 c 128,-1,74
EndSplineSet
EndChar

StartChar: plus
Encoding: 43 43 13
Width: 1240
Flags: HW
LayerCount: 2
Fore
SplineSet
924 538 m 2,0,1
 967 538 967 538 967 497 c 128,-1,2
 967 456 967 456 924 456 c 2,3,-1
 669 456 l 1,4,-1
 669 195 l 2,5,6
 669 170 669 170 655 156.5 c 128,-1,7
 641 143 641 143 621 143 c 128,-1,8
 601 143 601 143 587 156.5 c 128,-1,9
 573 170 573 170 573 195 c 2,10,-1
 573 456 l 1,11,-1
 316 456 l 2,12,13
 273 456 273 456 273 497 c 0,14,15
 273 514 273 514 283.5 526 c 128,-1,16
 294 538 294 538 316 538 c 2,17,-1
 573 538 l 1,18,-1
 573 804 l 2,19,20
 573 829 573 829 587 842.5 c 128,-1,21
 601 856 601 856 621 856 c 128,-1,22
 641 856 641 856 655 842.5 c 128,-1,23
 669 829 669 829 669 804 c 2,24,-1
 669 538 l 1,25,-1
 924 538 l 2,0,1
EndSplineSet
EndChar

StartChar: comma
Encoding: 44 44 14
Width: 1240
Flags: HW
LayerCount: 2
Fore
SplineSet
616 180 m 0,0,1
 664 180 664 180 696 148 c 128,-1,2
 728 116 728 116 728 59 c 0,3,4
 728 -22 728 -22 670 -97.5 c 128,-1,5
 612 -173 612 -173 543 -208 c 0,6,7
 540 -210 540 -210 533 -210 c 0,8,9
 522 -210 522 -210 513.5 -201.5 c 128,-1,10
 505 -193 505 -193 505 -183 c 0,11,12
 505 -171 505 -171 517 -162 c 0,13,14
 626 -83 626 -83 626 -8 c 1,15,16
 579 -8 579 -8 548.5 15.5 c 128,-1,17
 518 39 518 39 518 85 c 0,18,19
 518 130 518 130 547.5 155 c 128,-1,20
 577 180 577 180 616 180 c 0,0,1
EndSplineSet
EndChar

StartChar: hyphen
Encoding: 45 45 15
Width: 1240
Flags: HW
LayerCount: 2
Fore
SplineSet
379 500 m 2,0,-1
 886 500 l 2,1,2
 937 500 937 500 937 459 c 0,3,4
 937 440 937 440 926.5 429 c 128,-1,5
 916 418 916 418 886 418 c 2,6,-1
 379 418 l 2,7,8
 327 418 327 418 327 459 c 128,-1,9
 327 500 327 500 379 500 c 2,0,-1
EndSplineSet
EndChar

StartChar: period
Encoding: 46 46 16
Width: 1240
Flags: HW
LayerCount: 2
Fore
SplineSet
620 -16 m 0,0,1
 574 -16 574 -16 544 13.5 c 128,-1,2
 514 43 514 43 514 89 c 128,-1,3
 514 135 514 135 544.5 165 c 128,-1,4
 575 195 575 195 620 195 c 128,-1,5
 665 195 665 195 695.5 164.5 c 128,-1,6
 726 134 726 134 726 89 c 128,-1,7
 726 44 726 44 695.5 14 c 128,-1,8
 665 -16 665 -16 620 -16 c 0,0,1
EndSplineSet
EndChar

StartChar: slash
Encoding: 47 47 17
Width: 1240
Flags: HW
LayerCount: 2
Fore
SplineSet
247 -178 m 2,0,-1
 914 1152 l 2,1,2
 924 1173 924 1173 951 1173 c 0,3,4
 969 1173 969 1173 983 1162 c 128,-1,5
 997 1151 997 1151 997 1134 c 0,6,7
 997 1125 997 1125 991 1113 c 2,8,-1
 327 -213 l 2,9,10
 314 -237 314 -237 290 -237 c 0,11,12
 272 -237 272 -237 257.5 -224.5 c 128,-1,13
 243 -212 243 -212 243 -195 c 0,14,15
 243 -186 243 -186 247 -178 c 2,0,-1
EndSplineSet
EndChar

StartChar: zero
Encoding: 48 48 18
Width: 1240
Flags: HW
LayerCount: 2
Fore
SplineSet
619 69 m 0,0,1
 713 69 713 69 781 145 c 128,-1,2
 849 221 849 221 880.5 335 c 128,-1,3
 912 449 912 449 912 583 c 128,-1,4
 912 717 912 717 880 832.5 c 128,-1,5
 848 948 848 948 779.5 1024.5 c 128,-1,6
 711 1101 711 1101 619 1101 c 0,7,8
 548 1101 548 1101 491.5 1057 c 128,-1,9
 435 1013 435 1013 400 939 c 128,-1,10
 365 865 365 865 346.5 773.5 c 128,-1,11
 328 682 328 682 328 583 c 0,12,13
 328 449 328 449 359.5 335 c 128,-1,14
 391 221 391 221 458.5 145 c 128,-1,15
 526 69 526 69 619 69 c 0,0,1
619 1187 m 0,16,17
 712 1187 712 1187 787.5 1135.5 c 128,-1,18
 863 1084 863 1084 910 998 c 128,-1,19
 957 912 957 912 982.5 805.5 c 128,-1,20
 1008 699 1008 699 1008 584 c 0,21,22
 1008 470 1008 470 982.5 363.5 c 128,-1,23
 957 257 957 257 909.5 171.5 c 128,-1,24
 862 86 862 86 786.5 35 c 128,-1,25
 711 -16 711 -16 619 -16 c 0,26,27
 544 -16 544 -16 480.5 17.5 c 128,-1,28
 417 51 417 51 371.5 108.5 c 128,-1,29
 326 166 326 166 294.5 243 c 128,-1,30
 263 320 263 320 247.5 406.5 c 128,-1,31
 232 493 232 493 232 584 c 0,32,33
 232 699 232 699 257.5 805.5 c 128,-1,34
 283 912 283 912 330 998 c 128,-1,35
 377 1084 377 1084 452 1135.5 c 128,-1,36
 527 1187 527 1187 619 1187 c 0,16,17
EndSplineSet
EndChar

StartChar: one
Encoding: 49 49 19
Width: 1240
Flags: HW
LayerCount: 2
Fore
SplineSet
735 1130 m 2,0,-1
 735 82 l 1,1,-1
 1075 82 l 2,2,3
 1093 82 1093 82 1103.5 69.5 c 128,-1,4
 1114 57 1114 57 1114 41 c 0,5,6
 1114 24 1114 24 1103.5 12 c 128,-1,7
 1093 0 1093 0 1074 0 c 2,8,-1
 274 0 l 2,9,10
 252 0 252 0 240 12.5 c 128,-1,11
 228 25 228 25 228 42 c 0,12,13
 228 58 228 58 239 70 c 128,-1,14
 250 82 250 82 270 82 c 2,15,-1
 639 82 l 1,16,-1
 639 1069 l 1,17,-1
 304 917 l 2,18,19
 296 913 296 913 287 913 c 0,20,21
 270 913 270 913 258 927 c 128,-1,22
 246 941 246 941 246 958 c 0,23,24
 246 983 246 983 270 993 c 2,25,-1
 674 1173 l 2,26,27
 682 1177 682 1177 694 1177 c 0,28,29
 711 1177 711 1177 723 1165.5 c 128,-1,30
 735 1154 735 1154 735 1130 c 2,0,-1
EndSplineSet
EndChar

StartChar: two
Encoding: 50 50 20
Width: 1240
Flags: HW
LayerCount: 2
Fore
SplineSet
612 1187 m 0,0,1
 765 1187 765 1187 855 1118.5 c 128,-1,2
 945 1050 945 1050 945 914 c 0,3,4
 945 830 945 830 895.5 741.5 c 128,-1,5
 846 653 846 653 770.5 573 c 128,-1,6
 695 493 695 493 616 416 c 128,-1,7
 537 339 537 339 466 250.5 c 128,-1,8
 395 162 395 162 367 82 c 1,9,-1
 863 82 l 1,10,-1
 875 264 l 2,11,12
 876 284 876 284 892 296.5 c 128,-1,13
 908 309 908 309 927 309 c 128,-1,14
 946 309 946 309 958.5 296 c 128,-1,15
 971 283 971 283 971 258 c 2,16,-1
 971 50 l 2,17,18
 971 27 971 27 956 13.5 c 128,-1,19
 941 0 941 0 917 0 c 2,20,-1
 279 0 l 1,21,22
 272 28 272 28 272 37 c 0,23,24
 272 98 272 98 304 166 c 128,-1,25
 336 234 336 234 386.5 296 c 128,-1,26
 437 358 437 358 499 422 c 128,-1,27
 561 486 561 486 622.5 548.5 c 128,-1,28
 684 611 684 611 734.5 670.5 c 128,-1,29
 785 730 785 730 817 791.5 c 128,-1,30
 849 853 849 853 849 907 c 0,31,32
 849 1014 849 1014 786 1057.5 c 128,-1,33
 723 1101 723 1101 597 1101 c 0,34,35
 483 1101 483 1101 390 1055 c 1,36,37
 374 925 374 925 367 901 c 0,38,39
 354 858 354 858 324 858 c 0,40,41
 295 858 295 858 279.5 880 c 128,-1,42
 264 902 264 902 264 938 c 0,43,44
 264 1187 264 1187 612 1187 c 0,0,1
EndSplineSet
EndChar

StartChar: three
Encoding: 51 51 21
Width: 1240
Flags: HW
LayerCount: 2
Fore
SplineSet
503 601 m 0,0,1
 465 601 465 601 465 638 c 0,2,3
 465 661 465 661 496 679 c 0,4,5
 519 693 519 693 561 718 c 128,-1,6
 603 743 603 743 624 756 c 128,-1,7
 645 769 645 769 676.5 790.5 c 128,-1,8
 708 812 708 812 723.5 828 c 128,-1,9
 739 844 739 844 756 865.5 c 128,-1,10
 773 887 773 887 780 910 c 128,-1,11
 787 933 787 933 787 959 c 0,12,13
 787 1019 787 1019 743 1060.5 c 128,-1,14
 699 1102 699 1102 613 1102 c 0,15,16
 551 1102 551 1102 510.5 1092 c 128,-1,17
 470 1082 470 1082 452 1067.5 c 128,-1,18
 434 1053 434 1053 422 1038.5 c 128,-1,19
 410 1024 410 1024 392.5 1014 c 128,-1,20
 375 1004 375 1004 348 1004 c 0,21,22
 329 1004 329 1004 318 1014 c 128,-1,23
 307 1024 307 1024 307 1037 c 0,24,25
 307 1082 307 1082 363.5 1118 c 128,-1,26
 420 1154 420 1154 489.5 1170.5 c 128,-1,27
 559 1187 559 1187 615 1187 c 0,28,29
 731 1187 731 1187 807 1126 c 128,-1,30
 883 1065 883 1065 883 959 c 0,31,32
 883 926 883 926 872 894.5 c 128,-1,33
 861 863 861 863 845.5 839 c 128,-1,34
 830 815 830 815 803.5 790.5 c 128,-1,35
 777 766 777 766 757.5 751 c 128,-1,36
 738 736 738 736 707 718.5 c 128,-1,37
 676 701 676 701 662.5 694 c 128,-1,38
 649 687 649 687 625 675 c 1,39,40
 779 675 779 675 864.5 588.5 c 128,-1,41
 950 502 950 502 950 360 c 0,42,43
 950 196 950 196 833 89.5 c 128,-1,44
 716 -17 716 -17 544 -17 c 0,45,46
 441 -17 441 -17 352 22.5 c 128,-1,47
 263 62 263 62 263 108 c 0,48,49
 263 118 263 118 274 129.5 c 128,-1,50
 285 141 285 141 301 141 c 0,51,52
 329 141 329 141 352.5 129.5 c 128,-1,53
 376 118 376 118 393 105 c 128,-1,54
 410 92 410 92 450 80.5 c 128,-1,55
 490 69 490 69 547 69 c 0,56,57
 687 69 687 69 770.5 152.5 c 128,-1,58
 854 236 854 236 854 366 c 0,59,60
 854 479 854 479 785.5 544 c 128,-1,61
 717 609 717 609 602 609 c 0,62,63
 585 609 585 609 546 605 c 128,-1,64
 507 601 507 601 503 601 c 0,0,1
EndSplineSet
EndChar

StartChar: four
Encoding: 52 52 22
Width: 1240
Flags: HW
LayerCount: 2
Fore
SplineSet
707 1019 m 1,0,-1
 322 449 l 1,1,-1
 707 449 l 1,2,-1
 707 1019 l 1,0,-1
420 0 m 2,3,4
 409 0 409 0 402 10 c 128,-1,5
 395 20 395 20 395 34 c 0,6,7
 395 65 395 65 419 65 c 2,8,-1
 707 65 l 1,9,-1
 707 371 l 1,10,-1
 245 371 l 2,11,12
 231 371 231 371 219 384.5 c 128,-1,13
 207 398 207 398 207 415 c 0,14,15
 207 430 207 430 217 443 c 2,16,-1
 728 1167 l 2,17,18
 737 1179 737 1179 764 1179 c 0,19,20
 803 1179 803 1179 803 1125 c 2,21,-1
 803 449 l 1,22,-1
 1005 449 l 2,23,24
 1022 449 1022 449 1031 438 c 128,-1,25
 1040 427 1040 427 1040 410 c 0,26,27
 1040 394 1040 394 1030.5 382.5 c 128,-1,28
 1021 371 1021 371 1003 371 c 2,29,-1
 803 371 l 1,30,-1
 803 65 l 1,31,-1
 961 65 l 2,32,33
 985 65 985 65 985 34 c 0,34,35
 985 20 985 20 978 10 c 128,-1,36
 971 0 971 0 960 0 c 2,37,-1
 420 0 l 2,3,4
EndSplineSet
EndChar

StartChar: five
Encoding: 53 53 23
Width: 1240
Flags: HW
LayerCount: 2
Fore
SplineSet
579 -17 m 0,0,1
 443 -17 443 -17 340 54 c 0,2,3
 313 73 313 73 313 98 c 0,4,5
 313 114 313 114 325 126 c 128,-1,6
 337 138 337 138 353 138 c 0,7,8
 366 138 366 138 377 130 c 0,9,10
 466 65 466 65 592 65 c 0,11,12
 649 65 649 65 705 85.5 c 128,-1,13
 761 106 761 106 808.5 143.5 c 128,-1,14
 856 181 856 181 885.5 243 c 128,-1,15
 915 305 915 305 915 381 c 0,16,17
 915 520 915 520 847 588.5 c 128,-1,18
 779 657 779 657 679 657 c 0,19,20
 602 657 602 657 531.5 618 c 128,-1,21
 461 579 461 579 430 517 c 1,22,23
 423 495 423 495 395 495 c 0,24,25
 380 495 380 495 369 504 c 128,-1,26
 358 513 358 513 358 529 c 2,27,-1
 378 1111 l 2,28,29
 378 1132 378 1132 388.5 1145 c 128,-1,30
 399 1158 399 1158 422.5 1163 c 128,-1,31
 446 1168 446 1168 464 1169.5 c 128,-1,32
 482 1171 482 1171 514 1171 c 2,33,-1
 838 1171 l 1,34,35
 852 1225 852 1225 861.5 1242.5 c 128,-1,36
 871 1260 871 1260 889 1260 c 0,37,38
 934 1260 934 1260 934 1227 c 0,39,40
 934 1167 934 1167 913.5 1128 c 128,-1,41
 893 1089 893 1089 857 1089 c 2,42,-1
 487 1089 l 2,43,44
 479 1089 479 1089 479 1081 c 2,45,-1
 444 642 l 1,46,47
 556 735 556 735 687 735 c 0,48,49
 821 735 821 735 916 640 c 128,-1,50
 1011 545 1011 545 1011 396 c 0,51,52
 1011 273 1011 273 952.5 177.5 c 128,-1,53
 894 82 894 82 796.5 32.5 c 128,-1,54
 699 -17 699 -17 579 -17 c 0,0,1
EndSplineSet
EndChar

StartChar: six
Encoding: 54 54 24
Width: 1240
Flags: HW
LayerCount: 2
Fore
SplineSet
1027 357 m 0,0,1
 1027 187 1027 187 922.5 85 c 128,-1,2
 818 -17 818 -17 648 -17 c 0,3,4
 454 -17 454 -17 355.5 101.5 c 128,-1,5
 257 220 257 220 257 426 c 0,6,7
 257 563 257 563 289 685 c 128,-1,8
 321 807 321 807 381 907.5 c 128,-1,9
 441 1008 441 1008 506.5 1085.5 c 128,-1,10
 572 1163 572 1163 659 1241 c 0,11,12
 672 1253 672 1253 687 1253 c 0,13,14
 705 1253 705 1253 719 1238.5 c 128,-1,15
 733 1224 733 1224 733 1207 c 0,16,17
 733 1194 733 1194 721 1183 c 0,18,19
 588 1072 588 1072 487 919 c 128,-1,20
 386 766 386 766 361 591 c 1,21,22
 416 665 416 665 499 703 c 128,-1,23
 582 741 582 741 668 741 c 0,24,25
 834 741 834 741 930.5 635 c 128,-1,26
 1027 529 1027 529 1027 357 c 0,0,1
648 65 m 0,27,28
 780 65 780 65 855.5 148.5 c 128,-1,29
 931 232 931 232 931 354 c 0,30,31
 931 415 931 415 916 468 c 128,-1,32
 901 521 901 521 870.5 564.5 c 128,-1,33
 840 608 840 608 789 633.5 c 128,-1,34
 738 659 738 659 671 659 c 0,35,36
 527 659 527 659 440 572.5 c 128,-1,37
 353 486 353 486 353 364 c 0,38,39
 353 303 353 303 370 250.5 c 128,-1,40
 387 198 387 198 421 156 c 128,-1,41
 455 114 455 114 513.5 89.5 c 128,-1,42
 572 65 572 65 648 65 c 0,27,28
EndSplineSet
EndChar

StartChar: seven
Encoding: 55 55 25
Width: 1240
Flags: HW
LayerCount: 2
Fore
SplineSet
569 47 m 0,0,1
 569 201 569 201 592.5 345 c 128,-1,2
 616 489 616 489 661.5 622 c 128,-1,3
 707 755 707 755 752.5 857 c 128,-1,4
 798 959 798 959 864 1085 c 1,5,-1
 370 1085 l 1,6,-1
 370 916 l 2,7,8
 370 891 370 891 355.5 877 c 128,-1,9
 341 863 341 863 321 863 c 0,10,11
 302 863 302 863 288 876.5 c 128,-1,12
 274 890 274 890 274 916 c 2,13,-1
 274 1117 l 2,14,15
 274 1142 274 1142 289.5 1156.5 c 128,-1,16
 305 1171 305 1171 330 1171 c 2,17,-1
 928 1171 l 2,18,19
 946 1171 946 1171 958.5 1152.5 c 128,-1,20
 971 1134 971 1134 971 1111 c 0,21,22
 971 1094 971 1094 964 1081 c 0,23,24
 890 939 890 939 845 840 c 128,-1,25
 800 741 800 741 754 609 c 128,-1,26
 708 477 708 477 686.5 338.5 c 128,-1,27
 665 200 665 200 665 46 c 0,28,29
 665 21 665 21 651.5 7 c 128,-1,30
 638 -7 638 -7 619 -7 c 0,31,32
 599 -7 599 -7 584 7.5 c 128,-1,33
 569 22 569 22 569 47 c 0,0,1
EndSplineSet
EndChar

StartChar: eight
Encoding: 56 56 26
Width: 1240
Flags: HW
LayerCount: 2
Fore
SplineSet
620 1187 m 0,0,1
 780 1187 780 1187 875 1118.5 c 128,-1,2
 970 1050 970 1050 970 913 c 0,3,4
 970 870 970 870 955 829.5 c 128,-1,5
 940 789 940 789 920.5 760.5 c 128,-1,6
 901 732 901 732 865 699.5 c 128,-1,7
 829 667 829 667 806 650 c 128,-1,8
 783 633 783 633 741 604 c 0,9,10
 732 598 732 598 728 595 c 1,11,12
 856 523 856 523 904 484 c 0,13,14
 1022 388 1022 388 1022 268 c 0,15,16
 1022 120 1022 120 917.5 51.5 c 128,-1,17
 813 -17 813 -17 642 -17 c 0,18,19
 582 -17 582 -17 528.5 -8 c 128,-1,20
 475 1 475 1 425 22 c 128,-1,21
 375 43 375 43 339 75.5 c 128,-1,22
 303 108 303 108 281.5 159 c 128,-1,23
 260 210 260 210 260 274 c 0,24,25
 260 307 260 307 271 339.5 c 128,-1,26
 282 372 282 372 296.5 397 c 128,-1,27
 311 422 311 422 339 450 c 128,-1,28
 367 478 367 478 386 494.5 c 128,-1,29
 405 511 405 511 441.5 535.5 c 128,-1,30
 478 560 478 560 493.5 569 c 128,-1,31
 509 578 509 578 544 599 c 1,32,33
 538 603 538 603 526 610 c 0,34,35
 483 636 483 636 459.5 651.5 c 128,-1,36
 436 667 436 667 398.5 697 c 128,-1,37
 361 727 361 727 341 753.5 c 128,-1,38
 321 780 321 780 305.5 818 c 128,-1,39
 290 856 290 856 290 897 c 0,40,41
 290 1033 290 1033 383 1110 c 128,-1,42
 476 1187 476 1187 620 1187 c 0,0,1
648 69 m 0,43,44
 926 69 926 69 926 266 c 0,45,46
 926 298 926 298 916 327.5 c 128,-1,47
 906 357 906 357 885.5 382 c 128,-1,48
 865 407 865 407 844.5 426.5 c 128,-1,49
 824 446 824 446 790.5 467.5 c 128,-1,50
 757 489 757 489 735.5 501 c 128,-1,51
 714 513 714 513 677 532.5 c 128,-1,52
 640 552 640 552 626 560 c 1,53,54
 584 536 584 536 560.5 522 c 128,-1,55
 537 508 537 508 492 476.5 c 128,-1,56
 447 445 447 445 422 418.5 c 128,-1,57
 397 392 397 392 376.5 355 c 128,-1,58
 356 318 356 318 356 282 c 0,59,60
 356 232 356 232 373.5 193.5 c 128,-1,61
 391 155 391 155 419 132 c 128,-1,62
 447 109 447 109 486.5 94.5 c 128,-1,63
 526 80 526 80 565 74.5 c 128,-1,64
 604 69 604 69 648 69 c 0,43,44
628 1101 m 0,65,66
 525 1101 525 1101 453.5 1052.5 c 128,-1,67
 382 1004 382 1004 382 906 c 0,68,69
 382 869 382 869 394 837.5 c 128,-1,70
 406 806 406 806 425.5 782 c 128,-1,71
 445 758 445 758 476.5 734.5 c 128,-1,72
 508 711 508 711 540 692 c 128,-1,73
 572 673 572 673 616 649 c 0,74,75
 633 640 633 640 642 635 c 1,76,77
 698 667 698 667 735 692.5 c 128,-1,78
 772 718 772 718 807.5 751.5 c 128,-1,79
 843 785 843 785 860.5 823 c 128,-1,80
 878 861 878 861 878 905 c 0,81,82
 878 1101 878 1101 628 1101 c 0,65,66
EndSplineSet
EndChar

StartChar: nine
Encoding: 57 57 27
Width: 1240
Flags: HW
LayerCount: 2
Fore
SplineSet
250 813 m 0,0,1
 250 983 250 983 354.5 1085 c 128,-1,2
 459 1187 459 1187 629 1187 c 0,3,4
 823 1187 823 1187 921.5 1068.5 c 128,-1,5
 1020 950 1020 950 1020 744 c 0,6,7
 1020 634 1020 634 997 533 c 128,-1,8
 974 432 974 432 938.5 354.5 c 128,-1,9
 903 277 903 277 847.5 200 c 128,-1,10
 792 123 792 123 739 67.5 c 128,-1,11
 686 12 686 12 616 -52 c 0,12,13
 602 -64 602 -64 588 -64 c 0,14,15
 570 -64 570 -64 556 -49.5 c 128,-1,16
 542 -35 542 -35 542 -18 c 0,17,18
 542 -4 542 -4 554 6 c 0,19,20
 872 271 872 271 916 579 c 1,21,22
 861 505 861 505 778 467 c 128,-1,23
 695 429 695 429 609 429 c 0,24,25
 443 429 443 429 346.5 535 c 128,-1,26
 250 641 250 641 250 813 c 0,0,1
629 1105 m 0,27,28
 497 1105 497 1105 421.5 1021.5 c 128,-1,29
 346 938 346 938 346 816 c 0,30,31
 346 755 346 755 361 702 c 128,-1,32
 376 649 376 649 406.5 605.5 c 128,-1,33
 437 562 437 562 488 536.5 c 128,-1,34
 539 511 539 511 606 511 c 0,35,36
 750 511 750 511 837 597.5 c 128,-1,37
 924 684 924 684 924 806 c 0,38,39
 924 867 924 867 907 919.5 c 128,-1,40
 890 972 890 972 856 1014 c 128,-1,41
 822 1056 822 1056 763.5 1080.5 c 128,-1,42
 705 1105 705 1105 629 1105 c 0,27,28
EndSplineSet
EndChar

StartChar: colon
Encoding: 58 58 28
Width: 1240
Flags: HW
LayerCount: 2
Fore
SplineSet
644 -16 m 0,0,1
 598 -16 598 -16 568.5 13.5 c 128,-1,2
 539 43 539 43 539 89 c 128,-1,3
 539 135 539 135 569 165 c 128,-1,4
 599 195 599 195 644 195 c 128,-1,5
 689 195 689 195 719.5 164.5 c 128,-1,6
 750 134 750 134 750 89 c 128,-1,7
 750 44 750 44 719.5 14 c 128,-1,8
 689 -16 689 -16 644 -16 c 0,0,1
644 600 m 0,9,10
 598 600 598 600 568.5 629.5 c 128,-1,11
 539 659 539 659 539 705 c 128,-1,12
 539 751 539 751 569 781 c 128,-1,13
 599 811 599 811 644 811 c 128,-1,14
 689 811 689 811 719.5 780.5 c 128,-1,15
 750 750 750 750 750 705 c 128,-1,16
 750 660 750 660 719.5 630 c 128,-1,17
 689 600 689 600 644 600 c 0,9,10
EndSplineSet
EndChar

StartChar: semicolon
Encoding: 59 59 29
Width: 1240
Flags: HW
LayerCount: 2
Fore
SplineSet
644 180 m 0,0,1
 692 180 692 180 724 148 c 128,-1,2
 756 116 756 116 756 59 c 0,3,4
 756 -95 756 -95 606 -172 c 0,5,6
 595 -178 595 -178 581 -178 c 0,7,8
 564 -178 564 -178 552 -167 c 128,-1,9
 540 -156 540 -156 540 -142 c 0,10,11
 540 -124 540 -124 557 -112 c 0,12,13
 588 -92 588 -92 603 -80 c 128,-1,14
 618 -68 618 -68 636 -42 c 128,-1,15
 654 -16 654 -16 654 13 c 1,16,17
 608 13 608 13 579.5 34 c 128,-1,18
 551 55 551 55 551 96 c 0,19,20
 551 136 551 136 578.5 158 c 128,-1,21
 606 180 606 180 644 180 c 0,0,1
644 600 m 0,22,23
 598 600 598 600 568.5 629.5 c 128,-1,24
 539 659 539 659 539 705 c 128,-1,25
 539 751 539 751 569 781 c 128,-1,26
 599 811 599 811 644 811 c 128,-1,27
 689 811 689 811 719.5 780.5 c 128,-1,28
 750 750 750 750 750 705 c 128,-1,29
 750 660 750 660 719.5 630 c 128,-1,30
 689 600 689 600 644 600 c 0,22,23
EndSplineSet
EndChar

StartChar: less
Encoding: 60 60 30
Width: 1240
Flags: HW
LayerCount: 2
Fore
SplineSet
87 497 m 2,0,1
 61 508 61 508 61 550 c 0,2,3
 61 594 61 594 87 605 c 2,4,-1
 955 966 l 2,5,6
 961 968 961 968 965 968 c 0,7,8
 982 968 982 968 995.5 950.5 c 128,-1,9
 1009 933 1009 933 1009 914 c 0,10,11
 1009 890 1009 890 988 882 c 2,12,-1
 179 554 l 1,13,-1
 998 221 l 2,14,15
 1025 210 1025 210 1025 183 c 0,16,17
 1025 164 1025 164 1012 148 c 128,-1,18
 999 132 999 132 981 132 c 0,19,20
 975 132 975 132 967 135 c 2,21,-1
 87 497 l 2,0,1
EndSplineSet
EndChar

StartChar: equal
Encoding: 61 61 31
Width: 1240
Flags: HW
LayerCount: 2
Fore
SplineSet
900 689 m 2,0,1
 921 689 921 689 933 675.5 c 128,-1,2
 945 662 945 662 945 644 c 0,3,4
 945 625 945 625 933 611.5 c 128,-1,5
 921 598 921 598 900 598 c 2,6,-1
 341 598 l 2,7,8
 320 598 320 598 308 611.5 c 128,-1,9
 296 625 296 625 296 644 c 0,10,11
 296 662 296 662 308 675.5 c 128,-1,12
 320 689 320 689 341 689 c 2,13,-1
 900 689 l 2,0,1
900 347 m 2,14,15
 921 347 921 347 933 333.5 c 128,-1,16
 945 320 945 320 945 302 c 0,17,18
 945 283 945 283 933 269.5 c 128,-1,19
 921 256 921 256 900 256 c 2,20,-1
 341 256 l 2,21,22
 320 256 320 256 308 269.5 c 128,-1,23
 296 283 296 283 296 302 c 0,24,25
 296 320 296 320 308 333.5 c 128,-1,26
 320 347 320 347 341 347 c 2,27,-1
 900 347 l 2,14,15
EndSplineSet
EndChar

StartChar: greater
Encoding: 62 62 32
Width: 1240
Flags: HW
LayerCount: 2
Fore
SplineSet
1130 603 m 2,0,1
 1156 592 1156 592 1156 550 c 0,2,3
 1156 506 1156 506 1130 495 c 2,4,-1
 262 134 l 2,5,6
 256 132 256 132 252 132 c 0,7,8
 235 132 235 132 221.5 149.5 c 128,-1,9
 208 167 208 167 208 186 c 0,10,11
 208 210 208 210 229 218 c 2,12,-1
 1038 546 l 1,13,-1
 219 879 l 2,14,15
 192 890 192 890 192 917 c 0,16,17
 192 936 192 936 205 952 c 128,-1,18
 218 968 218 968 236 968 c 0,19,20
 242 968 242 968 250 965 c 2,21,-1
 1130 603 l 2,0,1
EndSplineSet
EndChar

StartChar: question
Encoding: 63 63 33
Width: 1240
Flags: HW
LayerCount: 2
Fore
SplineSet
905 906 m 0,0,1
 905 845 905 845 880.5 789.5 c 128,-1,2
 856 734 856 734 819.5 696 c 128,-1,3
 783 658 783 658 740 618.5 c 128,-1,4
 697 579 697 579 660.5 547.5 c 128,-1,5
 624 516 624 516 599.5 475.5 c 128,-1,6
 575 435 575 435 575 394 c 0,7,8
 575 365 575 365 568.5 351.5 c 128,-1,9
 562 338 562 338 543 338 c 0,10,11
 527 338 527 338 519.5 346.5 c 128,-1,12
 512 355 512 355 510.5 364.5 c 128,-1,13
 509 374 509 374 509 393 c 0,14,15
 509 454 509 454 534 506 c 128,-1,16
 559 558 559 558 596.5 596.5 c 128,-1,17
 634 635 634 635 672.5 673 c 128,-1,18
 711 711 711 711 743 762.5 c 128,-1,19
 775 814 775 814 784 874 c 0,20,21
 787 894 787 894 787 912 c 0,22,23
 787 1001 787 1001 728.5 1056 c 128,-1,24
 670 1111 670 1111 570 1111 c 0,25,26
 485 1111 485 1111 421 1082 c 1,27,28
 420 1074 420 1074 419 1054.5 c 128,-1,29
 418 1035 418 1035 417 1024.5 c 128,-1,30
 416 1014 416 1014 414.5 996.5 c 128,-1,31
 413 979 413 979 410.5 968.5 c 128,-1,32
 408 958 408 958 404.5 944 c 128,-1,33
 401 930 401 930 396 922 c 128,-1,34
 391 914 391 914 384.5 906 c 128,-1,35
 378 898 378 898 369 894.5 c 128,-1,36
 360 891 360 891 349 891 c 0,37,38
 300 891 300 891 300 971 c 0,39,40
 300 1071 300 1071 375 1129.5 c 128,-1,41
 450 1188 450 1188 573 1188 c 0,42,43
 721 1188 721 1188 813 1114.5 c 128,-1,44
 905 1041 905 1041 905 906 c 0,0,1
549 -9 m 128,-1,46
 506 -9 506 -9 476.5 20.5 c 128,-1,47
 447 50 447 50 447 93 c 128,-1,48
 447 136 447 136 476.5 165 c 128,-1,49
 506 194 506 194 549 194 c 128,-1,50
 592 194 592 194 621 165.5 c 128,-1,51
 650 137 650 137 650 94 c 128,-1,52
 650 51 650 51 621 21 c 128,-1,45
 592 -9 592 -9 549 -9 c 128,-1,46
EndSplineSet
EndChar

StartChar: at
Encoding: 64 64 34
Width: 1240
Flags: HW
LayerCount: 2
Fore
SplineSet
795 550 m 0,0,1
 795 631 795 631 766.5 665.5 c 128,-1,2
 738 700 738 700 652 700 c 0,3,4
 574 700 574 700 537 632 c 128,-1,5
 500 564 500 564 500 460 c 0,6,7
 500 376 500 376 534.5 319.5 c 128,-1,8
 569 263 569 263 631 263 c 2,9,-1
 632 263 l 2,10,11
 679 263 679 263 711.5 283 c 128,-1,12
 744 303 744 303 762 342.5 c 128,-1,13
 780 382 780 382 787.5 432 c 128,-1,14
 795 482 795 482 795 550 c 0,0,1
189 436 m 0,15,16
 189 344 189 344 218.5 260.5 c 128,-1,17
 248 177 248 177 303.5 111 c 128,-1,18
 359 45 359 45 448 6 c 128,-1,19
 537 -33 537 -33 648 -33 c 0,20,21
 792 -33 792 -33 938 40 c 0,22,23
 948 45 948 45 961 45 c 0,24,25
 977 45 977 45 987 33.5 c 128,-1,26
 997 22 997 22 997 7 c 0,27,28
 997 -14 997 -14 978 -26 c 0,29,30
 896 -77 896 -77 820 -96.5 c 128,-1,31
 744 -116 744 -116 651 -116 c 2,32,-1
 649 -116 l 2,33,34
 513 -116 513 -116 403 -69.5 c 128,-1,35
 293 -23 293 -23 224.5 55 c 128,-1,36
 156 133 156 133 119.5 231.5 c 128,-1,37
 83 330 83 330 83 439 c 0,38,39
 83 560 83 560 126.5 677.5 c 128,-1,40
 170 795 170 795 246.5 889 c 128,-1,41
 323 983 323 983 440.5 1041 c 128,-1,42
 558 1099 558 1099 695 1099 c 0,43,44
 920 1099 920 1099 1062.5 960.5 c 128,-1,45
 1205 822 1205 822 1205 585 c 0,46,47
 1205 502 1205 502 1190 434 c 128,-1,48
 1175 366 1175 366 1143 311 c 128,-1,49
 1111 256 1111 256 1055 225 c 128,-1,50
 999 194 999 194 923 194 c 0,51,52
 873 194 873 194 843.5 220.5 c 128,-1,53
 814 247 814 247 799 304 c 1,54,55
 765 247 765 247 718.5 218 c 128,-1,56
 672 189 672 189 622 189 c 0,57,58
 537 189 537 189 475.5 264.5 c 128,-1,59
 414 340 414 340 414 466 c 0,60,61
 414 610 414 610 477 693 c 128,-1,62
 540 776 540 776 647 776 c 0,63,64
 686 776 686 776 722 764.5 c 128,-1,65
 758 753 758 753 780 741 c 128,-1,66
 802 729 802 729 826 705 c 128,-1,67
 850 681 850 681 857 672 c 128,-1,68
 864 663 864 663 880 642 c 1,69,-1
 851 342 l 2,70,71
 850 337 850 337 850 327 c 1,72,73
 856 269 856 269 926 269 c 0,74,75
 1107 269 1107 269 1107 618 c 0,76,77
 1107 798 1107 798 991 905 c 128,-1,78
 875 1012 875 1012 699 1012 c 0,79,80
 585 1012 585 1012 487 961 c 128,-1,81
 389 910 389 910 325 828 c 128,-1,82
 261 746 261 746 225 643.5 c 128,-1,83
 189 541 189 541 189 436 c 0,15,16
EndSplineSet
EndChar

StartChar: A
Encoding: 65 65 35
Width: 1240
Flags: HW
LayerCount: 2
Fore
SplineSet
425 475 m 1,0,-1
 845 475 l 1,1,-1
 646 1072 l 1,2,-1
 425 475 l 1,0,-1
90 0 m 2,3,4
 66 0 66 0 53 12.5 c 128,-1,5
 40 25 40 25 40 43 c 0,6,7
 40 60 40 60 53 73 c 128,-1,8
 66 86 66 86 89 86 c 2,9,-1
 174 86 l 1,10,-1
 559 1085 l 1,11,-1
 342 1085 l 2,12,13
 318 1085 318 1085 305 1097.5 c 128,-1,14
 292 1110 292 1110 292 1128 c 0,15,16
 292 1145 292 1145 305 1158 c 128,-1,17
 318 1171 318 1171 341 1171 c 2,18,-1
 644 1171 l 2,19,20
 702 1171 702 1171 725 1106 c 2,21,-1
 1087 86 l 1,22,-1
 1166 86 l 2,23,24
 1189 86 1189 86 1201.5 73.5 c 128,-1,25
 1214 61 1214 61 1214 44 c 0,26,27
 1214 26 1214 26 1200.5 13 c 128,-1,28
 1187 0 1187 0 1164 0 c 2,29,-1
 798 0 l 2,30,31
 774 0 774 0 760.5 13 c 128,-1,32
 747 26 747 26 747 44 c 0,33,34
 747 61 747 61 760 73.5 c 128,-1,35
 773 86 773 86 796 86 c 2,36,-1
 982 86 l 1,37,-1
 875 392 l 1,38,-1
 392 392 l 1,39,-1
 280 86 l 1,40,-1
 439 86 l 2,41,42
 462 86 462 86 475.5 73 c 128,-1,43
 489 60 489 60 489 43 c 0,44,45
 489 25 489 25 475.5 12.5 c 128,-1,46
 462 0 462 0 438 0 c 2,47,-1
 90 0 l 2,3,4
EndSplineSet
EndChar

StartChar: B
Encoding: 66 66 36
Width: 1240
Flags: HW
LayerCount: 2
Fore
SplineSet
1104 348 m 0,0,1
 1104 257 1104 257 1065.5 189 c 128,-1,2
 1027 121 1027 121 957.5 80.5 c 128,-1,3
 888 40 888 40 799 20 c 128,-1,4
 710 0 710 0 602 0 c 2,5,-1
 244 0 l 2,6,7
 220 0 220 0 206.5 12.5 c 128,-1,8
 193 25 193 25 193 43 c 0,9,10
 193 60 193 60 206.5 73 c 128,-1,11
 220 86 220 86 243 86 c 2,12,-1
 403 86 l 1,13,-1
 403 1085 l 1,14,-1
 237 1085 l 2,15,16
 214 1085 214 1085 201 1098 c 128,-1,17
 188 1111 188 1111 188 1129 c 0,18,19
 188 1146 188 1146 200.5 1158.5 c 128,-1,20
 213 1171 213 1171 236 1171 c 2,21,-1
 592 1171 l 2,22,23
 1007 1171 1007 1171 1007 889 c 0,24,25
 1007 801 1007 801 960.5 741 c 128,-1,26
 914 681 914 681 843 660 c 1,27,28
 959 643 959 643 1031.5 566 c 128,-1,29
 1104 489 1104 489 1104 348 c 0,0,1
1008 363 m 0,30,31
 1008 415 1008 415 994.5 454 c 128,-1,32
 981 493 981 493 953 518 c 128,-1,33
 925 543 925 543 893 559.5 c 128,-1,34
 861 576 861 576 814.5 583.5 c 128,-1,35
 768 591 768 591 726.5 594 c 128,-1,36
 685 597 685 597 629 597 c 2,37,-1
 499 597 l 1,38,-1
 499 86 l 1,39,-1
 605 86 l 2,40,41
 697 86 697 86 768 100 c 128,-1,42
 839 114 839 114 894.5 145.5 c 128,-1,43
 950 177 950 177 979 231.5 c 128,-1,44
 1008 286 1008 286 1008 363 c 0,30,31
921 885 m 0,45,46
 921 993 921 993 838.5 1039 c 128,-1,47
 756 1085 756 1085 605 1085 c 2,48,-1
 499 1085 l 1,49,-1
 499 673 l 1,50,-1
 629 673 l 2,51,52
 751 673 751 673 836 726 c 128,-1,53
 921 779 921 779 921 885 c 0,45,46
EndSplineSet
EndChar

StartChar: C
Encoding: 67 67 37
Width: 1240
Flags: HW
LayerCount: 2
Fore
SplineSet
1145 336 m 0,0,1
 1130 270 1130 270 1094.5 209.5 c 128,-1,2
 1059 149 1059 149 1002.5 97 c 128,-1,3
 946 45 946 45 859.5 14 c 128,-1,4
 773 -17 773 -17 669 -17 c 0,5,6
 434 -17 434 -17 283 154 c 128,-1,7
 132 325 132 325 132 607 c 0,8,9
 132 865 132 865 283.5 1026 c 128,-1,10
 435 1187 435 1187 668 1187 c 0,11,12
 785 1187 785 1187 883 1138.5 c 128,-1,13
 981 1090 981 1090 1022 1015 c 1,14,-1
 1022 1121 l 2,15,16
 1022 1144 1022 1144 1036.5 1157.5 c 128,-1,17
 1051 1171 1051 1171 1071 1171 c 128,-1,18
 1091 1171 1091 1171 1105.5 1157.5 c 128,-1,19
 1120 1144 1120 1144 1120 1120 c 2,20,-1
 1120 827 l 2,21,22
 1120 804 1120 804 1106.5 792 c 128,-1,23
 1093 780 1093 780 1074 780 c 0,24,25
 1034 780 1034 780 1026 827 c 0,26,27
 1003 950 1003 950 904.5 1025.5 c 128,-1,28
 806 1101 806 1101 671 1101 c 0,29,30
 468 1101 468 1101 348 961 c 128,-1,31
 228 821 228 821 228 600 c 0,32,33
 228 477 228 477 264 375.5 c 128,-1,34
 300 274 300 274 361 207.5 c 128,-1,35
 422 141 422 141 501.5 105 c 128,-1,36
 581 69 581 69 670 69 c 0,37,38
 812 69 812 69 910 146 c 128,-1,39
 1008 223 1008 223 1049 359 c 1,40,41
 1059 387 1059 387 1089 387 c 0,42,43
 1110 387 1110 387 1128 373.5 c 128,-1,44
 1146 360 1146 360 1146 343 c 0,45,46
 1146 338 1146 338 1145 336 c 0,0,1
EndSplineSet
EndChar

StartChar: D
Encoding: 68 68 38
Width: 1240
Flags: HW
LayerCount: 2
Fore
SplineSet
988 591 m 0,0,1
 988 829 988 829 870.5 957 c 128,-1,2
 753 1085 753 1085 534 1085 c 2,3,-1
 410 1085 l 1,4,-1
 410 86 l 1,5,-1
 520 86 l 2,6,7
 764 86 764 86 876 210.5 c 128,-1,8
 988 335 988 335 988 591 c 0,0,1
1084 591 m 0,9,10
 1084 283 1084 283 938.5 141.5 c 128,-1,11
 793 0 793 0 513 0 c 2,12,-1
 152 0 l 2,13,14
 128 0 128 0 114.5 12.5 c 128,-1,15
 101 25 101 25 101 43 c 0,16,17
 101 60 101 60 114.5 73 c 128,-1,18
 128 86 128 86 151 86 c 2,19,-1
 314 86 l 1,20,-1
 314 1085 l 1,21,-1
 155 1085 l 2,22,23
 132 1085 132 1085 119.5 1097.5 c 128,-1,24
 107 1110 107 1110 107 1127 c 0,25,26
 107 1145 107 1145 120.5 1158 c 128,-1,27
 134 1171 134 1171 157 1171 c 2,28,-1
 515 1171 l 2,29,30
 782 1171 782 1171 933 1027 c 128,-1,31
 1084 883 1084 883 1084 591 c 0,9,10
EndSplineSet
EndChar

StartChar: E
Encoding: 69 69 39
Width: 1240
Flags: HW
LayerCount: 2
Fore
SplineSet
837 437 m 2,0,1
 837 412 837 412 826 399 c 128,-1,2
 815 386 815 386 799 386 c 0,3,4
 784 386 784 386 772 397.5 c 128,-1,5
 760 409 760 409 759 429 c 2,6,-1
 746 577 l 1,7,-1
 420 577 l 1,8,-1
 420 85 l 1,9,-1
 1035 85 l 1,10,-1
 1051 336 l 2,11,12
 1052 353 1052 353 1065 364 c 128,-1,13
 1078 375 1078 375 1095 375 c 128,-1,14
 1112 375 1112 375 1124.5 361.5 c 128,-1,15
 1137 348 1137 348 1137 323 c 2,16,-1
 1137 53 l 2,17,18
 1137 28 1137 28 1121.5 14 c 128,-1,19
 1106 0 1106 0 1081 0 c 2,20,-1
 155 0 l 2,21,22
 131 0 131 0 117.5 13 c 128,-1,23
 104 26 104 26 104 43 c 128,-1,24
 104 60 104 60 117.5 72.5 c 128,-1,25
 131 85 131 85 154 85 c 2,26,-1
 324 85 l 1,27,-1
 324 1085 l 1,28,-1
 189 1085 l 2,29,30
 166 1085 166 1085 153.5 1097.5 c 128,-1,31
 141 1110 141 1110 141 1127 c 0,32,33
 141 1145 141 1145 154.5 1158 c 128,-1,34
 168 1171 168 1171 191 1171 c 2,35,-1
 1069 1171 l 2,36,37
 1094 1171 1094 1171 1109.5 1156.5 c 128,-1,38
 1125 1142 1125 1142 1125 1117 c 2,39,-1
 1125 847 l 2,40,41
 1125 826 1125 826 1113 814.5 c 128,-1,42
 1101 803 1101 803 1085 803 c 128,-1,43
 1069 803 1069 803 1056.5 813 c 128,-1,44
 1044 823 1044 823 1043 841 c 2,45,-1
 1029 1085 l 1,46,-1
 420 1085 l 1,47,-1
 420 654 l 1,48,-1
 746 654 l 1,49,-1
 759 787 l 2,50,51
 761 808 761 808 772.5 820 c 128,-1,52
 784 832 784 832 799 832 c 0,53,54
 815 832 815 832 826 818.5 c 128,-1,55
 837 805 837 805 837 779 c 2,56,-1
 837 437 l 2,0,1
EndSplineSet
EndChar

StartChar: F
Encoding: 70 70 40
Width: 1240
Flags: HW
LayerCount: 2
Fore
SplineSet
848 437 m 2,0,1
 848 412 848 412 837 399 c 128,-1,2
 826 386 826 386 810 386 c 0,3,4
 795 386 795 386 783 397.5 c 128,-1,5
 771 409 771 409 770 429 c 2,6,-1
 757 577 l 1,7,-1
 420 577 l 1,8,-1
 420 85 l 1,9,-1
 770 85 l 2,10,11
 792 85 792 85 804 72.5 c 128,-1,12
 816 60 816 60 816 43 c 0,13,14
 816 25 816 25 804 12.5 c 128,-1,15
 792 0 792 0 771 0 c 2,16,-1
 155 0 l 2,17,18
 131 0 131 0 117.5 13 c 128,-1,19
 104 26 104 26 104 43 c 128,-1,20
 104 60 104 60 117.5 72.5 c 128,-1,21
 131 85 131 85 154 85 c 2,22,-1
 324 85 l 1,23,-1
 324 1085 l 1,24,-1
 189 1085 l 2,25,26
 166 1085 166 1085 153.5 1097.5 c 128,-1,27
 141 1110 141 1110 141 1127 c 0,28,29
 141 1145 141 1145 154.5 1158 c 128,-1,30
 168 1171 168 1171 191 1171 c 2,31,-1
 1082 1171 l 2,32,33
 1107 1171 1107 1171 1122.5 1156.5 c 128,-1,34
 1138 1142 1138 1142 1138 1117 c 2,35,-1
 1138 847 l 2,36,37
 1138 826 1138 826 1126 814.5 c 128,-1,38
 1114 803 1114 803 1098 803 c 128,-1,39
 1082 803 1082 803 1069.5 813 c 128,-1,40
 1057 823 1057 823 1056 841 c 2,41,-1
 1042 1085 l 1,42,-1
 420 1085 l 1,43,-1
 420 654 l 1,44,-1
 757 654 l 1,45,-1
 770 787 l 2,46,47
 772 808 772 808 783.5 820 c 128,-1,48
 795 832 795 832 810 832 c 0,49,50
 826 832 826 832 837 818.5 c 128,-1,51
 848 805 848 805 848 779 c 2,52,-1
 848 437 l 2,0,1
EndSplineSet
EndChar

StartChar: G
Encoding: 71 71 41
Width: 1240
Flags: HW
LayerCount: 2
Fore
SplineSet
1083 510 m 1,0,-1
 1083 49 l 2,1,2
 1083 22 1083 22 1069 7 c 128,-1,3
 1055 -8 1055 -8 1036 -8 c 0,4,5
 1016 -8 1016 -8 1001.5 7.5 c 128,-1,6
 987 23 987 23 987 51 c 2,7,-1
 987 175 l 1,8,9
 949 90 949 90 844 36.5 c 128,-1,10
 739 -17 739 -17 606 -17 c 0,11,12
 373 -17 373 -17 231 152.5 c 128,-1,13
 89 322 89 322 89 607 c 0,14,15
 89 867 89 867 231.5 1027 c 128,-1,16
 374 1187 374 1187 605 1187 c 0,17,18
 722 1187 722 1187 820 1138.5 c 128,-1,19
 918 1090 918 1090 959 1015 c 1,20,-1
 959 1121 l 2,21,22
 959 1144 959 1144 973.5 1157.5 c 128,-1,23
 988 1171 988 1171 1008 1171 c 128,-1,24
 1028 1171 1028 1171 1042.5 1157.5 c 128,-1,25
 1057 1144 1057 1144 1057 1120 c 2,26,-1
 1057 827 l 2,27,28
 1057 804 1057 804 1043.5 792 c 128,-1,29
 1030 780 1030 780 1011 780 c 0,30,31
 971 780 971 780 963 827 c 0,32,33
 940 950 940 950 841.5 1025.5 c 128,-1,34
 743 1101 743 1101 608 1101 c 0,35,36
 407 1101 407 1101 296 962.5 c 128,-1,37
 185 824 185 824 185 600 c 0,38,39
 185 354 185 354 305 211.5 c 128,-1,40
 425 69 425 69 607 69 c 0,41,42
 756 69 756 69 852.5 141 c 128,-1,43
 949 213 949 213 987 332 c 1,44,-1
 987 510 l 1,45,-1
 863 510 l 2,46,47
 840 510 840 510 826.5 523 c 128,-1,48
 813 536 813 536 813 554 c 0,49,50
 813 571 813 571 826 583.5 c 128,-1,51
 839 596 839 596 862 596 c 2,52,-1
 1146 596 l 2,53,54
 1169 596 1169 596 1182 583.5 c 128,-1,55
 1195 571 1195 571 1195 554 c 0,56,57
 1195 536 1195 536 1181.5 523 c 128,-1,58
 1168 510 1168 510 1144 510 c 2,59,-1
 1083 510 l 1,0,-1
EndSplineSet
EndChar

StartChar: H
Encoding: 72 72 42
Width: 1240
Flags: HW
LayerCount: 2
Fore
SplineSet
143 0 m 2,0,1
 120 0 120 0 106.5 13 c 128,-1,2
 93 26 93 26 93 44 c 0,3,4
 93 61 93 61 105.5 73.5 c 128,-1,5
 118 86 118 86 141 86 c 2,6,-1
 265 86 l 1,7,-1
 265 1085 l 1,8,-1
 157 1085 l 2,9,10
 133 1085 133 1085 120 1097.5 c 128,-1,11
 107 1110 107 1110 107 1128 c 0,12,13
 107 1145 107 1145 120.5 1158 c 128,-1,14
 134 1171 134 1171 157 1171 c 2,15,-1
 459 1171 l 2,16,17
 482 1171 482 1171 495.5 1158 c 128,-1,18
 509 1145 509 1145 509 1127 c 0,19,20
 509 1110 509 1110 496.5 1097.5 c 128,-1,21
 484 1085 484 1085 461 1085 c 2,22,-1
 361 1085 l 1,23,-1
 361 638 l 1,24,-1
 901 638 l 1,25,-1
 901 1085 l 1,26,-1
 801 1085 l 2,27,28
 778 1085 778 1085 765.5 1097.5 c 128,-1,29
 753 1110 753 1110 753 1127 c 0,30,31
 753 1145 753 1145 766.5 1158 c 128,-1,32
 780 1171 780 1171 803 1171 c 2,33,-1
 1097 1171 l 2,34,35
 1120 1171 1120 1171 1133.5 1158.5 c 128,-1,36
 1147 1146 1147 1146 1147 1130 c 0,37,38
 1147 1112 1147 1112 1133.5 1098.5 c 128,-1,39
 1120 1085 1120 1085 1097 1085 c 2,40,-1
 997 1085 l 1,41,-1
 997 86 l 1,42,-1
 1097 86 l 2,43,44
 1121 86 1121 86 1134 73.5 c 128,-1,45
 1147 61 1147 61 1147 43 c 0,46,47
 1147 26 1147 26 1133.5 13 c 128,-1,48
 1120 0 1120 0 1097 0 c 2,49,-1
 803 0 l 2,50,51
 780 0 780 0 766.5 13 c 128,-1,52
 753 26 753 26 753 44 c 0,53,54
 753 61 753 61 765.5 73.5 c 128,-1,55
 778 86 778 86 801 86 c 2,56,-1
 901 86 l 1,57,-1
 901 558 l 1,58,-1
 361 558 l 1,59,-1
 361 86 l 1,60,-1
 461 86 l 2,61,62
 484 86 484 86 496.5 74 c 128,-1,63
 509 62 509 62 509 46 c 0,64,65
 509 27 509 27 495.5 13.5 c 128,-1,66
 482 0 482 0 459 0 c 2,67,-1
 143 0 l 2,0,1
EndSplineSet
EndChar

StartChar: I
Encoding: 73 73 43
Width: 1240
Flags: HW
LayerCount: 2
Fore
SplineSet
310 0 m 2,0,1
 286 0 286 0 272.5 12.5 c 128,-1,2
 259 25 259 25 259 43 c 0,3,4
 259 60 259 60 272.5 73 c 128,-1,5
 286 86 286 86 309 86 c 2,6,-1
 614 86 l 1,7,-1
 614 1085 l 1,8,-1
 309 1085 l 2,9,10
 286 1085 286 1085 272.5 1097.5 c 128,-1,11
 259 1110 259 1110 259 1127 c 0,12,13
 259 1145 259 1145 272.5 1158 c 128,-1,14
 286 1171 286 1171 310 1171 c 2,15,-1
 995 1171 l 2,16,17
 1018 1171 1018 1171 1031.5 1158 c 128,-1,18
 1045 1145 1045 1145 1045 1127 c 0,19,20
 1045 1110 1045 1110 1032 1097.5 c 128,-1,21
 1019 1085 1019 1085 996 1085 c 2,22,-1
 710 1085 l 1,23,-1
 710 86 l 1,24,-1
 996 86 l 2,25,26
 1019 86 1019 86 1032 73 c 128,-1,27
 1045 60 1045 60 1045 43 c 0,28,29
 1045 25 1045 25 1032 12.5 c 128,-1,30
 1019 0 1019 0 995 0 c 2,31,-1
 310 0 l 2,0,1
EndSplineSet
EndChar

StartChar: J
Encoding: 74 74 44
Width: 1240
Flags: HW
LayerCount: 2
Fore
SplineSet
855 317 m 2,0,1
 855 249 855 249 831.5 193.5 c 128,-1,2
 808 138 808 138 768.5 100 c 128,-1,3
 729 62 729 62 676.5 36 c 128,-1,4
 624 10 624 10 567.5 -1.5 c 128,-1,5
 511 -13 511 -13 451 -13 c 0,6,7
 323 -13 323 -13 230.5 37.5 c 128,-1,8
 138 88 138 88 138 171 c 2,9,-1
 138 283 l 2,10,11
 138 304 138 304 153 316 c 128,-1,12
 168 328 168 328 187 328 c 128,-1,13
 206 328 206 328 220 316 c 128,-1,14
 234 304 234 304 234 283 c 2,15,-1
 234 182 l 2,16,17
 234 132 234 132 301.5 100 c 128,-1,18
 369 68 369 68 460 68 c 0,19,20
 516 68 516 68 567 81.5 c 128,-1,21
 618 95 618 95 662 123 c 128,-1,22
 706 151 706 151 732.5 200.5 c 128,-1,23
 759 250 759 250 759 314 c 2,24,-1
 759 1085 l 1,25,-1
 409 1085 l 2,26,27
 386 1085 386 1085 373.5 1097.5 c 128,-1,28
 361 1110 361 1110 361 1127 c 0,29,30
 361 1145 361 1145 374 1158 c 128,-1,31
 387 1171 387 1171 410 1171 c 2,32,-1
 1025 1171 l 2,33,34
 1049 1171 1049 1171 1062 1158.5 c 128,-1,35
 1075 1146 1075 1146 1075 1128 c 0,36,37
 1075 1111 1075 1111 1062 1098 c 128,-1,38
 1049 1085 1049 1085 1026 1085 c 2,39,-1
 855 1085 l 1,40,-1
 855 317 l 2,0,1
EndSplineSet
EndChar

StartChar: K
Encoding: 75 75 45
Width: 1240
Flags: HW
LayerCount: 2
Fore
SplineSet
84 0 m 2,0,1
 60 0 60 0 46.5 12.5 c 128,-1,2
 33 25 33 25 33 43 c 0,3,4
 33 60 33 60 46.5 73 c 128,-1,5
 60 86 60 86 83 86 c 2,6,-1
 242 86 l 1,7,-1
 242 1084 l 1,8,-1
 83 1084 l 2,9,10
 59 1084 59 1084 46 1096.5 c 128,-1,11
 33 1109 33 1109 33 1127 c 128,-1,12
 33 1145 33 1145 46.5 1158 c 128,-1,13
 60 1171 60 1171 84 1171 c 2,14,-1
 529 1171 l 2,15,16
 552 1171 552 1171 565.5 1157.5 c 128,-1,17
 579 1144 579 1144 579 1126 c 0,18,19
 579 1109 579 1109 566.5 1096.5 c 128,-1,20
 554 1084 554 1084 531 1084 c 2,21,-1
 338 1084 l 1,22,-1
 338 558 l 1,23,-1
 914 1078 l 2,24,25
 921 1085 921 1085 921 1088 c 0,26,27
 921 1094 921 1094 902 1094 c 2,28,-1
 813 1094 l 2,29,30
 790 1094 790 1094 777 1105 c 128,-1,31
 764 1116 764 1116 764 1131 c 0,32,33
 764 1147 764 1147 777.5 1159 c 128,-1,34
 791 1171 791 1171 814 1171 c 2,35,-1
 1176 1171 l 2,36,37
 1199 1171 1199 1171 1212 1158 c 128,-1,38
 1225 1145 1225 1145 1225 1127 c 128,-1,39
 1225 1109 1225 1109 1212.5 1096.5 c 128,-1,40
 1200 1084 1200 1084 1177 1084 c 2,41,-1
 1039 1084 l 1,42,-1
 601 676 l 1,43,-1
 1122 86 l 1,44,-1
 1259 86 l 2,45,46
 1282 86 1282 86 1294.5 73 c 128,-1,47
 1307 60 1307 60 1307 43 c 0,48,49
 1307 25 1307 25 1294 12.5 c 128,-1,50
 1281 0 1281 0 1258 0 c 2,51,-1
 840 0 l 2,52,53
 816 0 816 0 803 12.5 c 128,-1,54
 790 25 790 25 790 43 c 0,55,56
 790 60 790 60 803 73 c 128,-1,57
 816 86 816 86 839 86 c 2,58,-1
 1005 86 l 1,59,-1
 527 621 l 1,60,-1
 342 465 l 1,61,-1
 342 86 l 1,62,-1
 586 86 l 2,63,64
 609 86 609 86 622 73 c 128,-1,65
 635 60 635 60 635 43 c 0,66,67
 635 25 635 25 622 12.5 c 128,-1,68
 609 0 609 0 585 0 c 2,69,-1
 84 0 l 2,0,1
EndSplineSet
EndChar

StartChar: L
Encoding: 76 76 46
Width: 1240
Flags: HW
LayerCount: 2
Fore
SplineSet
640 1171 m 2,0,1
 664 1171 664 1171 677.5 1158 c 128,-1,2
 691 1145 691 1145 691 1127 c 0,3,4
 691 1110 691 1110 677.5 1097.5 c 128,-1,5
 664 1085 664 1085 641 1085 c 2,6,-1
 489 1085 l 1,7,-1
 489 86 l 1,8,-1
 946 86 l 1,9,10
 959 87 959 87 966 89.5 c 128,-1,11
 973 92 973 92 979.5 100 c 128,-1,12
 986 108 986 108 987 123 c 2,13,-1
 1021 399 l 2,14,15
 1024 420 1024 420 1038 431 c 128,-1,16
 1052 442 1052 442 1071 442 c 0,17,18
 1092 442 1092 442 1107 429 c 128,-1,19
 1122 416 1122 416 1122 393 c 2,20,-1
 1122 387 l 1,21,-1
 1092 66 l 1,22,23
 1088 37 1088 37 1069.5 18.5 c 128,-1,24
 1051 0 1051 0 1020 0 c 2,25,-1
 125 0 l 2,26,27
 101 0 101 0 87.5 12.5 c 128,-1,28
 74 25 74 25 74 43 c 0,29,30
 74 60 74 60 87.5 73 c 128,-1,31
 101 86 101 86 124 86 c 2,32,-1
 393 86 l 1,33,-1
 393 1085 l 1,34,-1
 166 1085 l 2,35,36
 143 1085 143 1085 130 1097.5 c 128,-1,37
 117 1110 117 1110 117 1127 c 0,38,39
 117 1145 117 1145 130.5 1158 c 128,-1,40
 144 1171 144 1171 167 1171 c 2,41,-1
 640 1171 l 2,0,1
EndSplineSet
EndChar

StartChar: M
Encoding: 77 77 47
Width: 1240
Flags: HW
LayerCount: 2
Fore
SplineSet
817 0 m 2,0,1
 793 0 793 0 779.5 13 c 128,-1,2
 766 26 766 26 766 44 c 0,3,4
 766 61 766 61 779 73.5 c 128,-1,5
 792 86 792 86 815 86 c 2,6,-1
 948 86 l 1,7,-1
 948 982 l 1,8,-1
 691 390 l 2,9,10
 670 342 670 342 625 342 c 0,11,12
 584 342 584 342 565 385 c 2,13,-1
 298 978 l 1,14,-1
 298 86 l 1,15,-1
 418 86 l 2,16,17
 442 86 442 86 455 73.5 c 128,-1,18
 468 61 468 61 468 44 c 0,19,20
 468 26 468 26 454.5 13 c 128,-1,21
 441 0 441 0 417 0 c 2,22,-1
 70 0 l 2,23,24
 46 0 46 0 33 12.5 c 128,-1,25
 20 25 20 25 20 43 c 0,26,27
 20 60 20 60 33 73 c 128,-1,28
 46 86 46 86 69 86 c 2,29,-1
 202 86 l 1,30,-1
 202 1085 l 1,31,-1
 83 1085 l 2,32,33
 60 1085 60 1085 47 1097.5 c 128,-1,34
 34 1110 34 1110 34 1127 c 0,35,36
 34 1145 34 1145 47.5 1158 c 128,-1,37
 61 1171 61 1171 84 1171 c 2,38,-1
 282 1171 l 2,39,40
 312 1171 312 1171 328 1136 c 2,41,-1
 629 473 l 1,42,-1
 919 1141 l 2,43,44
 931 1171 931 1171 964 1171 c 2,45,-1
 1156 1171 l 2,46,47
 1180 1171 1180 1171 1193.5 1158 c 128,-1,48
 1207 1145 1207 1145 1207 1127 c 0,49,50
 1207 1110 1207 1110 1193.5 1097.5 c 128,-1,51
 1180 1085 1180 1085 1157 1085 c 2,52,-1
 1044 1085 l 1,53,-1
 1044 86 l 1,54,-1
 1172 86 l 2,55,56
 1195 86 1195 86 1207.5 73.5 c 128,-1,57
 1220 61 1220 61 1220 44 c 0,58,59
 1220 26 1220 26 1206.5 13 c 128,-1,60
 1193 0 1193 0 1170 0 c 2,61,-1
 817 0 l 2,0,1
EndSplineSet
EndChar

StartChar: N
Encoding: 78 78 48
Width: 1240
Flags: HW
LayerCount: 2
Fore
SplineSet
129 1085 m 2,0,1
 106 1085 106 1085 93 1097.5 c 128,-1,2
 80 1110 80 1110 80 1127 c 0,3,4
 80 1145 80 1145 93.5 1158 c 128,-1,5
 107 1171 107 1171 130 1171 c 2,6,-1
 417 1171 l 2,7,8
 445 1171 445 1171 457 1147 c 2,9,-1
 943 194 l 1,10,-1
 943 1085 l 1,11,-1
 794 1085 l 2,12,13
 771 1085 771 1085 758 1097.5 c 128,-1,14
 745 1110 745 1110 745 1127 c 0,15,16
 745 1145 745 1145 758.5 1158 c 128,-1,17
 772 1171 772 1171 796 1171 c 2,18,-1
 1133 1171 l 2,19,20
 1156 1171 1156 1171 1169.5 1158 c 128,-1,21
 1183 1145 1183 1145 1183 1127 c 0,22,23
 1183 1110 1183 1110 1170.5 1097.5 c 128,-1,24
 1158 1085 1158 1085 1135 1085 c 2,25,-1
 1039 1085 l 1,26,-1
 1039 47 l 2,27,28
 1039 16 1039 16 1025 0 c 128,-1,29
 1011 -16 1011 -16 990 -16 c 0,30,31
 954 -16 954 -16 934 22 c 2,32,-1
 381 1084 l 1,33,-1
 381 86 l 1,34,-1
 519 86 l 2,35,36
 542 86 542 86 555 73 c 128,-1,37
 568 60 568 60 568 43 c 0,38,39
 568 25 568 25 555 12.5 c 128,-1,40
 542 0 542 0 518 0 c 2,41,-1
 160 0 l 2,42,43
 136 0 136 0 123 12.5 c 128,-1,44
 110 25 110 25 110 43 c 0,45,46
 110 60 110 60 123 73 c 128,-1,47
 136 86 136 86 159 86 c 2,48,-1
 285 86 l 1,49,-1
 285 1085 l 1,50,-1
 129 1085 l 2,0,1
EndSplineSet
EndChar

StartChar: O
Encoding: 79 79 49
Width: 1240
Flags: HW
LayerCount: 2
Fore
SplineSet
620 1101 m 128,-1,1
 540 1101 540 1101 471 1072 c 128,-1,2
 402 1043 402 1043 354 993 c 128,-1,3
 306 943 306 943 271.5 877 c 128,-1,4
 237 811 237 811 220.5 736 c 128,-1,5
 204 661 204 661 204 582 c 0,6,7
 204 484 204 484 230.5 393.5 c 128,-1,8
 257 303 257 303 306.5 230 c 128,-1,9
 356 157 356 157 437.5 113 c 128,-1,10
 519 69 519 69 620 69 c 128,-1,11
 721 69 721 69 802.5 113 c 128,-1,12
 884 157 884 157 933.5 230 c 128,-1,13
 983 303 983 303 1009.5 393.5 c 128,-1,14
 1036 484 1036 484 1036 582 c 0,15,16
 1036 661 1036 661 1019.5 736 c 128,-1,17
 1003 811 1003 811 968.5 877 c 128,-1,18
 934 943 934 943 886 993 c 128,-1,19
 838 1043 838 1043 769 1072 c 128,-1,0
 700 1101 700 1101 620 1101 c 128,-1,1
620 -17 m 128,-1,21
 497 -17 497 -17 397 34 c 128,-1,22
 297 85 297 85 235.5 170 c 128,-1,23
 174 255 174 255 141 361 c 128,-1,24
 108 467 108 467 108 582 c 128,-1,25
 108 697 108 697 141 804 c 128,-1,26
 174 911 174 911 235.5 997 c 128,-1,27
 297 1083 297 1083 397 1135 c 128,-1,28
 497 1187 497 1187 620 1187 c 128,-1,29
 743 1187 743 1187 843 1135 c 128,-1,30
 943 1083 943 1083 1004.5 997 c 128,-1,31
 1066 911 1066 911 1099 804 c 128,-1,32
 1132 697 1132 697 1132 582 c 128,-1,33
 1132 467 1132 467 1099 361 c 128,-1,34
 1066 255 1066 255 1004.5 170 c 128,-1,35
 943 85 943 85 843 34 c 128,-1,20
 743 -17 743 -17 620 -17 c 128,-1,21
EndSplineSet
EndChar

StartChar: P
Encoding: 80 80 50
Width: 1240
Flags: HW
LayerCount: 2
Fore
SplineSet
972 843 m 0,0,1
 972 901 972 901 956 944.5 c 128,-1,2
 940 988 940 988 904 1013.5 c 128,-1,3
 868 1039 868 1039 835 1054.5 c 128,-1,4
 802 1070 802 1070 743.5 1076 c 128,-1,5
 685 1082 685 1082 650.5 1083.5 c 128,-1,6
 616 1085 616 1085 552 1085 c 2,7,-1
 442 1085 l 1,8,-1
 442 607 l 1,9,-1
 594 607 l 2,10,11
 644 607 644 607 676.5 608 c 128,-1,12
 709 609 709 609 753 614 c 128,-1,13
 797 619 797 619 825 628.5 c 128,-1,14
 853 638 853 638 883.5 655 c 128,-1,15
 914 672 914 672 931.5 697 c 128,-1,16
 949 722 949 722 960.5 759 c 128,-1,17
 972 796 972 796 972 843 c 0,0,1
1068 847 m 0,18,19
 1068 797 1068 797 1058.5 755.5 c 128,-1,20
 1049 714 1049 714 1033.5 683 c 128,-1,21
 1018 652 1018 652 992 627.5 c 128,-1,22
 966 603 966 603 940 587 c 128,-1,23
 914 571 914 571 875.5 559.5 c 128,-1,24
 837 548 837 548 804.5 541.5 c 128,-1,25
 772 535 772 535 725.5 532 c 128,-1,26
 679 529 679 529 644 528 c 128,-1,27
 609 527 609 527 558 527 c 2,28,-1
 442 527 l 1,29,-1
 442 86 l 1,30,-1
 771 86 l 2,31,32
 794 86 794 86 807 73 c 128,-1,33
 820 60 820 60 820 43 c 0,34,35
 820 25 820 25 807 12.5 c 128,-1,36
 794 0 794 0 770 0 c 2,37,-1
 174 0 l 2,38,39
 150 0 150 0 136.5 12.5 c 128,-1,40
 123 25 123 25 123 43 c 0,41,42
 123 60 123 60 136.5 73 c 128,-1,43
 150 86 150 86 173 86 c 2,44,-1
 346 86 l 1,45,-1
 346 1085 l 1,46,-1
 187 1085 l 2,47,48
 164 1085 164 1085 151 1097.5 c 128,-1,49
 138 1110 138 1110 138 1127 c 0,50,51
 138 1145 138 1145 151.5 1158 c 128,-1,52
 165 1171 165 1171 188 1171 c 2,53,-1
 532 1171 l 2,54,55
 600 1171 600 1171 647.5 1169.5 c 128,-1,56
 695 1168 695 1168 755.5 1160.5 c 128,-1,57
 816 1153 816 1153 857 1140 c 128,-1,58
 898 1127 898 1127 941 1103 c 128,-1,59
 984 1079 984 1079 1009.5 1045.5 c 128,-1,60
 1035 1012 1035 1012 1051.5 961.5 c 128,-1,61
 1068 911 1068 911 1068 847 c 0,18,19
EndSplineSet
EndChar

StartChar: Q
Encoding: 81 81 51
Width: 1240
Flags: HW
LayerCount: 2
Fore
SplineSet
620 1101 m 128,-1,1
 540 1101 540 1101 471 1072 c 128,-1,2
 402 1043 402 1043 354 993 c 128,-1,3
 306 943 306 943 271.5 877 c 128,-1,4
 237 811 237 811 220.5 736 c 128,-1,5
 204 661 204 661 204 582 c 0,6,7
 204 484 204 484 230.5 393.5 c 128,-1,8
 257 303 257 303 306.5 230 c 128,-1,9
 356 157 356 157 437.5 113 c 128,-1,10
 519 69 519 69 620 69 c 128,-1,11
 721 69 721 69 802.5 113 c 128,-1,12
 884 157 884 157 933.5 230 c 128,-1,13
 983 303 983 303 1009.5 393.5 c 128,-1,14
 1036 484 1036 484 1036 582 c 0,15,16
 1036 661 1036 661 1019.5 736 c 128,-1,17
 1003 811 1003 811 968.5 877 c 128,-1,18
 934 943 934 943 886 993 c 128,-1,19
 838 1043 838 1043 769 1072 c 128,-1,0
 700 1101 700 1101 620 1101 c 128,-1,1
636 -17 m 1,20,-1
 617 3 l 1,21,-1
 504 -2 l 1,22,-1
 505 -3 l 2,23,24
 506 -4 506 -4 506 -5 c 1,25,26
 378 23 378 23 286 113.5 c 128,-1,27
 194 204 194 204 151 324.5 c 128,-1,28
 108 445 108 445 108 582 c 0,29,30
 108 697 108 697 141 804 c 128,-1,31
 174 911 174 911 235.5 997 c 128,-1,32
 297 1083 297 1083 397 1135 c 128,-1,33
 497 1187 497 1187 620 1187 c 128,-1,34
 743 1187 743 1187 843 1135 c 128,-1,35
 943 1083 943 1083 1004.5 997 c 128,-1,36
 1066 911 1066 911 1099 804 c 128,-1,37
 1132 697 1132 697 1132 582 c 0,38,39
 1132 492 1132 492 1112.5 407 c 128,-1,40
 1093 322 1093 322 1052.5 246 c 128,-1,41
 1012 170 1012 170 954 112.5 c 128,-1,42
 896 55 896 55 814 20.5 c 128,-1,43
 732 -14 732 -14 636 -17 c 1,20,-1
636 -17 m 1,44,-1
 722 -108 l 1,45,46
 771 -162 771 -162 836 -162 c 0,47,48
 908 -162 908 -162 1008 -95 c 0,49,50
 1021 -86 1021 -86 1037 -86 c 128,-1,51
 1053 -86 1053 -86 1065 -99.5 c 128,-1,52
 1077 -113 1077 -113 1077 -130 c 0,53,54
 1077 -155 1077 -155 1054 -169 c 1,55,56
 1018 -203 1018 -203 956 -224.5 c 128,-1,57
 894 -246 894 -246 854 -246 c 0,58,59
 798 -246 798 -246 757.5 -235 c 128,-1,60
 717 -224 717 -224 678 -193 c 128,-1,61
 639 -162 639 -162 607.5 -127 c 128,-1,62
 576 -92 576 -92 521 -24 c 0,63,64
 511 -11 511 -11 506 -5 c 1,65,66
 558 -17 558 -17 620 -17 c 2,67,-1
 636 -17 l 1,44,-1
EndSplineSet
EndChar

StartChar: R
Encoding: 82 82 52
Width: 1240
Flags: HW
LayerCount: 2
Fore
SplineSet
429 619 m 1,0,-1
 536 619 l 2,1,2
 618 619 618 619 675.5 623.5 c 128,-1,3
 733 628 733 628 788.5 642 c 128,-1,4
 844 656 844 656 877.5 680.5 c 128,-1,5
 911 705 911 705 931 746.5 c 128,-1,6
 951 788 951 788 951 846 c 0,7,8
 951 907 951 907 936 949 c 128,-1,9
 921 991 921 991 893.5 1018 c 128,-1,10
 866 1045 866 1045 816 1059.5 c 128,-1,11
 766 1074 766 1074 706 1079.5 c 128,-1,12
 646 1085 646 1085 556 1085 c 2,13,-1
 429 1085 l 1,14,-1
 429 619 l 1,0,-1
658 41 m 0,15,16
 658 25 658 25 645 12.5 c 128,-1,17
 632 0 632 0 608 0 c 2,18,-1
 209 0 l 2,19,20
 185 0 185 0 171.5 12.5 c 128,-1,21
 158 25 158 25 158 41 c 0,22,23
 158 58 158 58 171 70 c 128,-1,24
 184 82 184 82 208 82 c 2,25,-1
 333 82 l 1,26,-1
 333 1085 l 1,27,-1
 236 1085 l 2,28,29
 213 1085 213 1085 199.5 1097.5 c 128,-1,30
 186 1110 186 1110 186 1127 c 0,31,32
 186 1145 186 1145 199.5 1158 c 128,-1,33
 213 1171 213 1171 237 1171 c 2,34,-1
 557 1171 l 2,35,36
 635 1171 635 1171 694.5 1166 c 128,-1,37
 754 1161 754 1161 812.5 1149 c 128,-1,38
 871 1137 871 1137 911.5 1113.5 c 128,-1,39
 952 1090 952 1090 984 1056 c 128,-1,40
 1016 1022 1016 1022 1031.5 971 c 128,-1,41
 1047 920 1047 920 1047 853 c 0,42,43
 1047 746 1047 746 988.5 678.5 c 128,-1,44
 930 611 930 611 841 578 c 1,45,-1
 1045 82 l 1,46,-1
 1129 82 l 2,47,48
 1193 82 1193 82 1193 42 c 0,49,50
 1193 24 1193 24 1178 12 c 128,-1,51
 1163 0 1163 0 1130 0 c 2,52,-1
 895 0 l 2,53,54
 871 0 871 0 857.5 12.5 c 128,-1,55
 844 25 844 25 844 42 c 0,56,57
 844 58 844 58 857 70 c 128,-1,58
 870 82 870 82 893 82 c 2,59,-1
 944 82 l 1,60,-1
 764 556 l 1,61,62
 753 552 753 552 696 547 c 128,-1,63
 639 542 639 542 604 542 c 2,64,-1
 429 542 l 1,65,-1
 429 82 l 1,66,-1
 609 82 l 2,67,68
 632 82 632 82 645 70 c 128,-1,69
 658 58 658 58 658 41 c 0,15,16
EndSplineSet
EndChar

StartChar: S
Encoding: 83 83 53
Width: 1240
Flags: HW
LayerCount: 2
Fore
SplineSet
650 1101 m 0,0,1
 522 1101 522 1101 450 1043.5 c 128,-1,2
 378 986 378 986 378 886 c 0,3,4
 378 857 378 857 383.5 833.5 c 128,-1,5
 389 810 389 810 395.5 793 c 128,-1,6
 402 776 402 776 421.5 759.5 c 128,-1,7
 441 743 441 743 453 734 c 128,-1,8
 465 725 465 725 498.5 711 c 128,-1,9
 532 697 532 697 550 690.5 c 128,-1,10
 568 684 568 684 615 668 c 2,11,-1
 751 621 l 2,12,13
 829 594 829 594 881.5 567.5 c 128,-1,14
 934 541 934 541 976 504 c 128,-1,15
 1018 467 1018 467 1037.5 419 c 128,-1,16
 1057 371 1057 371 1057 308 c 0,17,18
 1057 222 1057 222 1027 157.5 c 128,-1,19
 997 93 997 93 944.5 56 c 128,-1,20
 892 19 892 19 828 1 c 128,-1,21
 764 -17 764 -17 689 -17 c 0,22,23
 604 -17 604 -17 510 16 c 128,-1,24
 416 49 416 49 363 105 c 1,25,26
 363 -17 363 -17 316 -17 c 0,27,28
 290 -17 290 -17 279 -1 c 128,-1,29
 268 15 268 15 268 57 c 2,30,-1
 268 371 l 2,31,32
 268 394 268 394 280.5 406 c 128,-1,33
 293 418 293 418 312 418 c 128,-1,34
 331 418 331 418 344.5 405 c 128,-1,35
 358 392 358 392 358 369 c 2,36,-1
 358 250 l 2,37,38
 358 185 358 185 463.5 127 c 128,-1,39
 569 69 569 69 692 69 c 0,40,41
 811 69 811 69 886 126 c 128,-1,42
 961 183 961 183 961 304 c 0,43,44
 961 351 961 351 946.5 386 c 128,-1,45
 932 421 932 421 900 447 c 128,-1,46
 868 473 868 473 829.5 491 c 128,-1,47
 791 509 791 509 731 530 c 2,48,-1
 567 586 l 2,49,50
 512 605 512 605 476 620 c 128,-1,51
 440 635 440 635 399.5 660 c 128,-1,52
 359 685 359 685 336 713.5 c 128,-1,53
 313 742 313 742 297.5 784.5 c 128,-1,54
 282 827 282 827 282 881 c 0,55,56
 282 1025 282 1025 380.5 1106 c 128,-1,57
 479 1187 479 1187 627 1187 c 0,58,59
 833 1187 833 1187 917 1095 c 1,60,61
 917 1187 917 1187 969 1187 c 0,62,63
 990 1187 990 1187 999.5 1171 c 128,-1,64
 1009 1155 1009 1155 1009 1117 c 2,65,-1
 1009 864 l 2,66,67
 1009 838 1009 838 996 824.5 c 128,-1,68
 983 811 983 811 963 811 c 0,69,70
 945 811 945 811 931.5 823.5 c 128,-1,71
 918 836 918 836 918 858 c 2,72,-1
 918 949 l 1,73,74
 912 998 912 998 869 1034 c 128,-1,75
 826 1070 826 1070 769 1085.5 c 128,-1,76
 712 1101 712 1101 650 1101 c 0,0,1
EndSplineSet
EndChar

StartChar: T
Encoding: 84 84 54
Width: 1240
Flags: HW
LayerCount: 2
Fore
SplineSet
210 814 m 2,0,1
 209 792 209 792 197 780.5 c 128,-1,2
 185 769 185 769 169 769 c 0,3,4
 150 769 150 769 135 783.5 c 128,-1,5
 120 798 120 798 120 823 c 2,6,-1
 120 1117 l 2,7,8
 120 1171 120 1171 162 1171 c 2,9,-1
 1078 1171 l 2,10,11
 1118 1171 1118 1171 1118 1117 c 2,12,-1
 1118 823 l 2,13,14
 1118 798 1118 798 1104.5 784.5 c 128,-1,15
 1091 771 1091 771 1072 771 c 0,16,17
 1055 771 1055 771 1042 782.5 c 128,-1,18
 1029 794 1029 794 1028 814 c 2,19,-1
 1018 1085 l 1,20,-1
 666 1085 l 1,21,-1
 666 86 l 1,22,-1
 908 86 l 2,23,24
 931 86 931 86 944 73.5 c 128,-1,25
 957 61 957 61 957 44 c 0,26,27
 957 26 957 26 943.5 13 c 128,-1,28
 930 0 930 0 906 0 c 2,29,-1
 330 0 l 2,30,31
 306 0 306 0 292 13 c 128,-1,32
 278 26 278 26 278 44 c 0,33,34
 278 61 278 61 291.5 73.5 c 128,-1,35
 305 86 305 86 328 86 c 2,36,-1
 570 86 l 1,37,-1
 570 1085 l 1,38,-1
 222 1085 l 1,39,-1
 210 814 l 2,0,1
EndSplineSet
EndChar

StartChar: U
Encoding: 85 85 55
Width: 1240
Flags: HW
LayerCount: 2
Fore
SplineSet
654 -17 m 0,0,1
 472 -17 472 -17 360.5 98 c 128,-1,2
 249 213 249 213 249 413 c 2,3,-1
 249 1085 l 1,4,-1
 104 1085 l 2,5,6
 81 1085 81 1085 68 1097.5 c 128,-1,7
 55 1110 55 1110 55 1127 c 0,8,9
 55 1145 55 1145 68.5 1158 c 128,-1,10
 82 1171 82 1171 105 1171 c 2,11,-1
 506 1171 l 2,12,13
 529 1171 529 1171 542.5 1158 c 128,-1,14
 556 1145 556 1145 556 1127 c 0,15,16
 556 1110 556 1110 543 1097.5 c 128,-1,17
 530 1085 530 1085 507 1085 c 2,18,-1
 345 1085 l 1,19,-1
 345 413 l 2,20,21
 345 249 345 249 425 159 c 128,-1,22
 505 69 505 69 654 69 c 0,23,24
 792 69 792 69 876 164.5 c 128,-1,25
 960 260 960 260 960 411 c 2,26,-1
 960 1085 l 1,27,-1
 839 1085 l 2,28,29
 816 1085 816 1085 802.5 1097.5 c 128,-1,30
 789 1110 789 1110 789 1127 c 0,31,32
 789 1145 789 1145 802.5 1158 c 128,-1,33
 816 1171 816 1171 840 1171 c 2,34,-1
 1173 1171 l 2,35,36
 1206 1171 1206 1171 1224.5 1158 c 128,-1,37
 1243 1145 1243 1145 1243 1127 c 0,38,39
 1243 1110 1243 1110 1225 1097.5 c 128,-1,40
 1207 1085 1207 1085 1174 1085 c 2,41,-1
 1056 1085 l 1,42,-1
 1056 411 l 2,43,44
 1056 220 1056 220 944.5 101.5 c 128,-1,45
 833 -17 833 -17 654 -17 c 0,0,1
EndSplineSet
EndChar

StartChar: V
Encoding: 86 86 56
Width: 1240
Flags: HW
LayerCount: 2
Fore
SplineSet
1131 1171 m 2,0,1
 1155 1171 1155 1171 1168 1158.5 c 128,-1,2
 1181 1146 1181 1146 1181 1128 c 0,3,4
 1181 1111 1181 1111 1168 1098 c 128,-1,5
 1155 1085 1155 1085 1132 1085 c 2,6,-1
 1046 1085 l 1,7,-1
 730 20 l 1,8,9
 716 -11 716 -11 703.5 -23.5 c 128,-1,10
 691 -36 691 -36 666 -36 c 0,11,12
 621 -36 621 -36 602 20 c 2,13,-1
 260 1085 l 1,14,-1
 156 1085 l 2,15,16
 133 1085 133 1085 120.5 1097.5 c 128,-1,17
 108 1110 108 1110 108 1127 c 0,18,19
 108 1145 108 1145 121.5 1158 c 128,-1,20
 135 1171 135 1171 158 1171 c 2,21,-1
 498 1171 l 2,22,23
 522 1171 522 1171 535 1158.5 c 128,-1,24
 548 1146 548 1146 548 1128 c 0,25,26
 548 1111 548 1111 535 1098 c 128,-1,27
 522 1085 522 1085 499 1085 c 2,28,-1
 368 1085 l 1,29,-1
 671 119 l 1,30,-1
 946 1085 l 1,31,-1
 826 1085 l 2,32,33
 803 1085 803 1085 789.5 1098 c 128,-1,34
 776 1111 776 1111 776 1128 c 0,35,36
 776 1146 776 1146 789.5 1158.5 c 128,-1,37
 803 1171 803 1171 827 1171 c 2,38,-1
 1131 1171 l 2,0,1
EndSplineSet
EndChar

StartChar: W
Encoding: 87 87 57
Width: 1240
Flags: HW
LayerCount: 2
Fore
SplineSet
873 1085 m 2,0,1
 850 1085 850 1085 836.5 1098 c 128,-1,2
 823 1111 823 1111 823 1129 c 0,3,4
 823 1146 823 1146 836 1158.5 c 128,-1,5
 849 1171 849 1171 872 1171 c 2,6,-1
 1151 1171 l 2,7,8
 1174 1171 1174 1171 1187.5 1158.5 c 128,-1,9
 1201 1146 1201 1146 1201 1129 c 0,10,11
 1201 1111 1201 1111 1187.5 1098 c 128,-1,12
 1174 1085 1174 1085 1150 1085 c 2,13,-1
 1080 1085 l 1,14,-1
 916 27 l 2,15,16
 909 -17 909 -17 864 -17 c 0,17,18
 847 -17 847 -17 832 -3 c 128,-1,19
 817 11 817 11 811 35 c 2,20,-1
 641 701 l 1,21,-1
 454 27 l 2,22,23
 442 -17 442 -17 403 -17 c 0,24,25
 384 -17 384 -17 369 -3 c 128,-1,26
 354 11 354 11 351 35 c 2,27,-1
 185 1085 l 1,28,-1
 101 1085 l 2,29,30
 78 1085 78 1085 64.5 1098 c 128,-1,31
 51 1111 51 1111 51 1129 c 0,32,33
 51 1146 51 1146 64 1158.5 c 128,-1,34
 77 1171 77 1171 100 1171 c 2,35,-1
 402 1171 l 2,36,37
 425 1171 425 1171 438 1158.5 c 128,-1,38
 451 1146 451 1146 451 1129 c 0,39,40
 451 1111 451 1111 437.5 1098 c 128,-1,41
 424 1085 424 1085 400 1085 c 2,42,-1
 286 1085 l 1,43,-1
 424 199 l 1,44,-1
 601 850 l 2,45,46
 610 886 610 886 646 886 c 0,47,48
 680 886 680 886 689 850 c 2,49,-1
 858 196 l 1,50,-1
 980 1085 l 1,51,-1
 873 1085 l 2,0,1
EndSplineSet
EndChar

StartChar: X
Encoding: 88 88 58
Width: 1240
Flags: HW
LayerCount: 2
Fore
SplineSet
1094 1171 m 2,0,1
 1134 1171 1134 1171 1134 1127 c 0,2,3
 1134 1085 1134 1085 1095 1085 c 2,4,-1
 1022 1085 l 1,5,-1
 686 589 l 1,6,-1
 1027 82 l 1,7,-1
 1100 82 l 2,8,9
 1139 82 1139 82 1139 42 c 0,10,11
 1139 0 1139 0 1098 0 c 2,12,-1
 766 0 l 2,13,14
 742 0 742 0 729 12 c 128,-1,15
 716 24 716 24 716 41 c 0,16,17
 716 57 716 57 729 69.5 c 128,-1,18
 742 82 742 82 765 82 c 2,19,-1
 921 82 l 1,20,-1
 632 510 l 1,21,-1
 342 82 l 1,22,-1
 491 82 l 2,23,24
 530 82 530 82 530 41 c 128,-1,25
 530 0 530 0 490 0 c 2,26,-1
 142 0 l 2,27,28
 102 0 102 0 102 41 c 128,-1,29
 102 82 102 82 141 82 c 2,30,-1
 226 82 l 1,31,-1
 574 596 l 1,32,-1
 245 1085 l 1,33,-1
 163 1085 l 2,34,35
 124 1085 124 1085 124 1127 c 0,36,37
 124 1171 124 1171 164 1171 c 2,38,-1
 500 1171 l 2,39,40
 540 1171 540 1171 540 1127 c 0,41,42
 540 1085 540 1085 501 1085 c 2,43,-1
 353 1085 l 1,44,-1
 628 676 l 1,45,-1
 905 1085 l 1,46,-1
 804 1085 l 2,47,48
 765 1085 765 1085 765 1127 c 0,49,50
 765 1171 765 1171 805 1171 c 2,51,-1
 1094 1171 l 2,0,1
EndSplineSet
EndChar

StartChar: Y
Encoding: 89 89 59
Width: 1240
Flags: HW
LayerCount: 2
Fore
SplineSet
1065 1171 m 2,0,1
 1089 1171 1089 1171 1102.5 1159.5 c 128,-1,2
 1116 1148 1116 1148 1116 1132 c 0,3,4
 1116 1117 1116 1117 1103 1106 c 128,-1,5
 1090 1095 1090 1095 1067 1095 c 2,6,-1
 1012 1095 l 1,7,-1
 689 548 l 1,8,-1
 689 86 l 1,9,-1
 921 86 l 2,10,11
 944 86 944 86 956.5 73.5 c 128,-1,12
 969 61 969 61 969 44 c 0,13,14
 969 26 969 26 955.5 13 c 128,-1,15
 942 0 942 0 919 0 c 2,16,-1
 334 0 l 2,17,18
 310 0 310 0 296 13 c 128,-1,19
 282 26 282 26 282 44 c 0,20,21
 282 61 282 61 295.5 73.5 c 128,-1,22
 309 86 309 86 332 86 c 2,23,-1
 593 86 l 1,24,-1
 593 553 l 1,25,-1
 258 1095 l 1,26,-1
 174 1095 l 2,27,28
 151 1095 151 1095 137.5 1106.5 c 128,-1,29
 124 1118 124 1118 124 1133 c 128,-1,30
 124 1148 124 1148 138 1159.5 c 128,-1,31
 152 1171 152 1171 175 1171 c 2,32,-1
 505 1171 l 2,33,34
 529 1171 529 1171 542.5 1159.5 c 128,-1,35
 556 1148 556 1148 556 1133 c 128,-1,36
 556 1118 556 1118 542.5 1106.5 c 128,-1,37
 529 1095 529 1095 506 1095 c 2,38,-1
 370 1095 l 1,39,-1
 646 633 l 1,40,-1
 914 1095 l 1,41,-1
 803 1095 l 2,42,43
 780 1095 780 1095 766.5 1106.5 c 128,-1,44
 753 1118 753 1118 753 1133 c 128,-1,45
 753 1148 753 1148 766.5 1159.5 c 128,-1,46
 780 1171 780 1171 804 1171 c 2,47,-1
 1065 1171 l 2,0,1
EndSplineSet
EndChar

StartChar: Z
Encoding: 90 90 60
Width: 1240
Flags: HW
LayerCount: 2
Fore
SplineSet
254 806 m 2,0,-1
 254 1116 l 1,1,2
 256 1171 256 1171 322 1171 c 2,3,-1
 952 1171 l 2,4,5
 975 1171 975 1171 988 1154.5 c 128,-1,6
 1001 1138 1001 1138 1001 1116 c 0,7,8
 1001 1097 1001 1097 991 1081 c 2,9,-1
 369 86 l 1,10,-1
 942 86 l 1,11,-1
 942 384 l 1,12,13
 943 407 943 407 958.5 421 c 128,-1,14
 974 435 974 435 993 435 c 0,15,16
 1010 435 1010 435 1022 422.5 c 128,-1,17
 1034 410 1034 410 1034 385 c 2,18,-1
 1044 53 l 2,19,20
 1045 28 1045 28 1030.5 14 c 128,-1,21
 1016 0 1016 0 993 0 c 2,22,-1
 271 0 l 2,23,24
 219 0 219 0 219 31 c 0,25,26
 219 46 219 46 247 95 c 1,27,-1
 880 1085 l 1,28,-1
 366 1085 l 1,29,-1
 350 797 l 2,30,31
 349 778 349 778 336 767.5 c 128,-1,32
 323 757 323 757 305 757 c 0,33,34
 285 757 285 757 269.5 770 c 128,-1,35
 254 783 254 783 254 806 c 2,0,-1
EndSplineSet
EndChar

StartChar: bracketleft
Encoding: 91 91 61
Width: 1240
Flags: HW
LayerCount: 2
Fore
SplineSet
802 1331 m 2,0,1
 815 1331 815 1331 822.5 1318.5 c 128,-1,2
 830 1306 830 1306 830 1289 c 128,-1,3
 830 1272 830 1272 822.5 1259.5 c 128,-1,4
 815 1247 815 1247 802 1247 c 2,5,-1
 611 1247 l 1,6,-1
 611 -64 l 1,7,-1
 802 -64 l 2,8,9
 815 -64 815 -64 822.5 -76.5 c 128,-1,10
 830 -89 830 -89 830 -106 c 128,-1,11
 830 -123 830 -123 822.5 -135.5 c 128,-1,12
 815 -148 815 -148 802 -148 c 2,13,-1
 570 -148 l 2,14,15
 544 -148 544 -148 529.5 -132.5 c 128,-1,16
 515 -117 515 -117 515 -90 c 2,17,-1
 515 1270 l 2,18,19
 515 1331 515 1331 570 1331 c 2,20,-1
 802 1331 l 2,0,1
EndSplineSet
EndChar

StartChar: backslash
Encoding: 92 92 62
Width: 1240
Flags: HW
LayerCount: 2
Fore
SplineSet
991 -178 m 2,0,1
 995 -186 995 -186 995 -195 c 0,2,3
 995 -212 995 -212 981 -224.5 c 128,-1,4
 967 -237 967 -237 949 -237 c 0,5,6
 924 -237 924 -237 911 -213 c 2,7,-1
 247 1113 l 2,8,9
 242 1123 242 1123 242 1134 c 0,10,11
 242 1151 242 1151 256 1162 c 128,-1,12
 270 1173 270 1173 288 1173 c 0,13,14
 314 1173 314 1173 324 1152 c 2,15,-1
 991 -178 l 2,0,1
EndSplineSet
EndChar

StartChar: bracketright
Encoding: 93 93 63
Width: 1240
Flags: HW
LayerCount: 2
Fore
SplineSet
452 -148 m 2,0,1
 439 -148 439 -148 431.5 -135.5 c 128,-1,2
 424 -123 424 -123 424 -106 c 128,-1,3
 424 -89 424 -89 431.5 -76.5 c 128,-1,4
 439 -64 439 -64 452 -64 c 2,5,-1
 643 -64 l 1,6,-1
 643 1247 l 1,7,-1
 452 1247 l 2,8,9
 439 1247 439 1247 431.5 1259.5 c 128,-1,10
 424 1272 424 1272 424 1289 c 128,-1,11
 424 1306 424 1306 431.5 1318.5 c 128,-1,12
 439 1331 439 1331 452 1331 c 2,13,-1
 684 1331 l 2,14,15
 710 1331 710 1331 724.5 1315.5 c 128,-1,16
 739 1300 739 1300 739 1273 c 2,17,-1
 739 -87 l 2,18,19
 739 -148 739 -148 684 -148 c 2,20,-1
 452 -148 l 2,0,1
EndSplineSet
EndChar

StartChar: asciicircum
Encoding: 94 94 64
Width: 1240
Flags: HW
LayerCount: 2
Fore
SplineSet
924 436 m 0,0,1
 924 418 924 418 909.5 404.5 c 128,-1,2
 895 391 895 391 876 391 c 0,3,4
 846 391 846 391 831 422 c 2,5,-1
 627 859 l 1,6,-1
 405 426 l 2,7,8
 388 391 388 391 356 391 c 0,9,10
 339 391 339 391 327.5 403.5 c 128,-1,11
 316 416 316 416 316 436 c 0,12,13
 316 458 316 458 326 477 c 2,14,-1
 566 964 l 2,15,16
 592 1018 592 1018 625 1018 c 0,17,18
 657 1018 657 1018 680 969 c 2,19,-1
 918 460 l 1,20,21
 924 444 924 444 924 436 c 0,0,1
EndSplineSet
EndChar

StartChar: underscore
Encoding: 95 95 65
Width: 1240
Flags: HW
LayerCount: 2
Fore
SplineSet
1000 91 m 2,0,1
 1021 91 1021 91 1033 77.5 c 128,-1,2
 1045 64 1045 64 1045 46 c 0,3,4
 1045 27 1045 27 1033 13.5 c 128,-1,5
 1021 0 1021 0 1000 0 c 2,6,-1
 241 0 l 2,7,8
 220 0 220 0 208 13.5 c 128,-1,9
 196 27 196 27 196 46 c 0,10,11
 196 64 196 64 208 77.5 c 128,-1,12
 220 91 220 91 241 91 c 2,13,-1
 1000 91 l 2,0,1
EndSplineSet
EndChar

StartChar: grave
Encoding: 96 96 66
Width: 1240
Flags: HW
LayerCount: 2
Fore
SplineSet
410 1010 m 0,0,1
 410 997 410 997 400 986 c 128,-1,2
 390 975 390 975 377 975 c 0,3,4
 369 975 369 975 365 979 c 1,5,6
 307 1013 307 1013 25 1189 c 0,7,8
 6 1202 6 1202 6 1220 c 0,9,10
 6 1241 6 1241 24 1259 c 128,-1,11
 42 1277 42 1277 64 1277 c 0,12,13
 81 1277 81 1277 92 1267 c 0,14,15
 250 1131 250 1131 400 1031 c 0,16,17
 410 1025 410 1025 410 1010 c 0,0,1
EndSplineSet
EndChar

StartChar: a
Encoding: 97 97 67
Width: 1240
Flags: HW
LayerCount: 2
Fore
SplineSet
611 731 m 0,0,1
 490 731 490 731 390 686 c 1,2,3
 386 609 386 609 372 570 c 128,-1,4
 358 531 358 531 324 531 c 0,5,6
 295 531 295 531 279.5 551 c 128,-1,7
 264 571 264 571 264 603 c 0,8,9
 264 695 264 695 361 754 c 128,-1,10
 458 813 458 813 612 813 c 0,11,12
 699 813 699 813 758 788.5 c 128,-1,13
 817 764 817 764 850 714 c 128,-1,14
 883 664 883 664 896.5 599.5 c 128,-1,15
 910 535 910 535 910 444 c 2,16,-1
 910 132 l 2,17,18
 910 97 910 97 924 84.5 c 128,-1,19
 938 72 938 72 962 72 c 0,20,21
 988 72 988 72 1017 87.5 c 128,-1,22
 1046 103 1046 103 1063 121 c 0,23,24
 1074 133 1074 133 1087 133 c 0,25,26
 1102 133 1102 133 1113 120 c 128,-1,27
 1124 107 1124 107 1124 91 c 0,28,29
 1124 76 1124 76 1114 66 c 0,30,31
 1044 -7 1044 -7 954 -7 c 0,32,33
 903 -7 903 -7 868 17.5 c 128,-1,34
 833 42 833 42 821 113 c 1,35,36
 772 58 772 58 683.5 21 c 128,-1,37
 595 -16 595 -16 491 -16 c 0,38,39
 379 -16 379 -16 316 45.5 c 128,-1,40
 253 107 253 107 253 210 c 0,41,42
 253 246 253 246 262.5 276.5 c 128,-1,43
 272 307 272 307 286 330 c 128,-1,44
 300 353 300 353 326 371.5 c 128,-1,45
 352 390 352 390 375 402.5 c 128,-1,46
 398 415 398 415 437.5 425.5 c 128,-1,47
 477 436 477 436 505 441.5 c 128,-1,48
 533 447 533 447 581 452 c 128,-1,49
 629 457 629 457 659 459.5 c 128,-1,50
 689 462 689 462 741 465 c 0,51,52
 790 468 790 468 814 470 c 1,53,-1
 814 490 l 2,54,55
 814 607 814 607 768.5 669 c 128,-1,56
 723 731 723 731 611 731 c 0,0,1
814 401 m 1,57,58
 581 378 581 378 516 364 c 0,59,60
 389 336 389 336 361 268 c 0,61,62
 350 243 350 243 350 210 c 0,63,64
 350 134 350 134 391.5 99.5 c 128,-1,65
 433 65 433 65 502 65 c 0,66,67
 591 65 591 65 675.5 98.5 c 128,-1,68
 760 132 760 132 814 189 c 1,69,-1
 814 401 l 1,57,58
EndSplineSet
EndChar

StartChar: b
Encoding: 98 98 68
Width: 1240
Flags: HW
LayerCount: 2
Fore
SplineSet
952 398 m 0,0,1
 952 539 952 539 876.5 635 c 128,-1,2
 801 731 801 731 664 731 c 0,3,4
 489 731 489 731 386 602 c 1,5,-1
 386 210 l 1,6,7
 487 65 487 65 672 65 c 0,8,9
 805 65 805 65 878.5 160.5 c 128,-1,10
 952 256 952 256 952 398 c 0,0,1
386 1141 m 2,11,-1
 386 707 l 1,12,13
 446 759 446 759 512.5 786 c 128,-1,14
 579 813 579 813 670 813 c 0,15,16
 842 813 842 813 945 696.5 c 128,-1,17
 1048 580 1048 580 1048 398 c 0,18,19
 1048 213 1048 213 947.5 98 c 128,-1,20
 847 -17 847 -17 674 -17 c 0,21,22
 584 -17 584 -17 509 16 c 128,-1,23
 434 49 434 49 382 102 c 1,24,25
 382 54 382 54 373.5 29.5 c 128,-1,26
 365 5 365 5 356 0.5 c 128,-1,27
 347 -4 347 -4 331 -4 c 0,28,29
 290 -4 290 -4 290 74 c 2,30,-1
 290 1091 l 1,31,-1
 162 1083 l 2,32,33
 161 1083 161 1083 153.5 1081.5 c 128,-1,34
 146 1080 146 1080 142 1080 c 0,35,36
 125 1080 125 1080 114 1091 c 128,-1,37
 103 1102 103 1102 103 1118 c 0,38,39
 103 1152 103 1152 136 1159 c 1,40,-1
 325 1178 l 2,41,42
 341 1180 341 1180 345 1180 c 0,43,44
 386 1180 386 1180 386 1141 c 2,11,-1
EndSplineSet
EndChar

StartChar: c
Encoding: 99 99 69
Width: 1240
Flags: HW
LayerCount: 2
Fore
SplineSet
635 813 m 0,0,1
 793 813 793 813 886 753 c 128,-1,2
 979 693 979 693 979 564 c 0,3,4
 979 528 979 528 963.5 506 c 128,-1,5
 948 484 948 484 919 484 c 128,-1,6
 890 484 890 484 879 519.5 c 128,-1,7
 868 555 868 555 858 645 c 0,8,9
 855 672 855 672 853 686 c 1,10,11
 762 731 762 731 650 731 c 0,12,13
 475 731 475 731 377 645 c 128,-1,14
 279 559 279 559 279 407 c 0,15,16
 279 238 279 238 372.5 151.5 c 128,-1,17
 466 65 466 65 624 65 c 0,18,19
 716 65 716 65 778 90 c 128,-1,20
 840 115 840 115 902 172 c 0,21,22
 919 188 919 188 943 188 c 0,23,24
 978 188 978 188 978 147 c 0,25,26
 978 124 978 124 960 105 c 0,27,28
 908 48 908 48 812.5 15.5 c 128,-1,29
 717 -17 717 -17 632 -17 c 0,30,31
 429 -17 429 -17 306 96.5 c 128,-1,32
 183 210 183 210 183 407 c 0,33,34
 183 593 183 593 312.5 703 c 128,-1,35
 442 813 442 813 635 813 c 0,0,1
EndSplineSet
EndChar

StartChar: d
Encoding: 100 100 70
Width: 1240
Flags: HW
LayerCount: 2
Fore
SplineSet
289 398 m 0,0,1
 289 256 289 256 364 160.5 c 128,-1,2
 439 65 439 65 573 65 c 0,3,4
 754 65 754 65 855 210 c 1,5,-1
 855 602 l 1,6,7
 752 731 752 731 577 731 c 0,8,9
 440 731 440 731 364.5 635 c 128,-1,10
 289 539 289 539 289 398 c 0,0,1
867 47 m 2,11,-1
 864 107 l 1,12,13
 818 52 818 52 740.5 17.5 c 128,-1,14
 663 -17 663 -17 571 -17 c 0,15,16
 397 -17 397 -17 295 98.5 c 128,-1,17
 193 214 193 214 193 398 c 0,18,19
 193 580 193 580 296 696.5 c 128,-1,20
 399 813 399 813 571 813 c 0,21,22
 662 813 662 813 728.5 786 c 128,-1,23
 795 759 795 759 855 707 c 1,24,-1
 855 1091 l 1,25,-1
 727 1083 l 2,26,27
 726 1083 726 1083 718.5 1081.5 c 128,-1,28
 711 1080 711 1080 707 1080 c 0,29,30
 690 1080 690 1080 679 1091 c 128,-1,31
 668 1102 668 1102 668 1118 c 0,32,33
 668 1152 668 1152 701 1159 c 1,34,-1
 890 1178 l 2,35,36
 906 1180 906 1180 910 1180 c 0,37,38
 951 1180 951 1180 951 1141 c 2,39,-1
 951 85 l 1,40,-1
 1099 96 l 1,41,-1
 1105 96 l 2,42,43
 1125 96 1125 96 1135 86 c 128,-1,44
 1145 76 1145 76 1145 61 c 128,-1,45
 1145 46 1145 46 1135 33.5 c 128,-1,46
 1125 21 1125 21 1107 17 c 1,47,-1
 921 -3 l 1,48,-1
 914 -3 l 2,49,50
 870 -3 870 -3 867 47 c 2,11,-1
EndSplineSet
EndChar

StartChar: e
Encoding: 101 101 71
Width: 1240
Flags: HW
LayerCount: 2
Fore
SplineSet
654 813 m 0,0,1
 814 813 814 813 914 725.5 c 128,-1,2
 1014 638 1014 638 1014 479 c 0,3,4
 1014 441 1014 441 993 416.5 c 128,-1,5
 972 392 972 392 937 392 c 2,6,-1
 308 387 l 1,7,8
 313 229 313 229 408 147 c 128,-1,9
 503 65 503 65 657 65 c 0,10,11
 819 65 819 65 934 174 c 1,12,13
 955 191 955 191 975 191 c 0,14,15
 993 191 993 191 1004 178 c 128,-1,16
 1015 165 1015 165 1015 147 c 0,17,18
 1015 124 1015 124 997 105 c 0,19,20
 945 49 945 49 847.5 16 c 128,-1,21
 750 -17 750 -17 665 -17 c 0,22,23
 462 -17 462 -17 337 96.5 c 128,-1,24
 212 210 212 210 212 407 c 0,25,26
 212 501 212 501 247 578.5 c 128,-1,27
 282 656 282 656 342.5 706.5 c 128,-1,28
 403 757 403 757 483 785 c 128,-1,29
 563 813 563 813 654 813 c 0,0,1
311 461 m 1,30,-1
 929 465 l 1,31,32
 927 501 927 501 921.5 531 c 128,-1,33
 916 561 916 561 898.5 600.5 c 128,-1,34
 881 640 881 640 853 666.5 c 128,-1,35
 825 693 825 693 774.5 712 c 128,-1,36
 724 731 724 731 656 731 c 0,37,38
 510 731 510 731 419.5 660 c 128,-1,39
 329 589 329 589 311 461 c 1,30,-1
EndSplineSet
EndChar

StartChar: f
Encoding: 102 102 72
Width: 1240
Flags: HW
LayerCount: 2
Fore
SplineSet
1036 1020 m 2,0,1
 1036 993 1036 993 1021.5 978.5 c 128,-1,2
 1007 964 1007 964 987 964 c 0,3,4
 968 964 968 964 954 977.5 c 128,-1,5
 940 991 940 991 940 1016 c 2,6,-1
 940 1109 l 1,7,8
 768 1097 768 1097 704.5 1035.5 c 128,-1,9
 641 974 641 974 641 832 c 2,10,-1
 641 766 l 1,11,-1
 950 766 l 2,12,13
 969 766 969 766 979.5 753.5 c 128,-1,14
 990 741 990 741 990 725 c 0,15,16
 990 708 990 708 979 696 c 128,-1,17
 968 684 968 684 949 684 c 2,18,-1
 640 684 l 1,19,-1
 641 82 l 1,20,-1
 1003 82 l 2,21,22
 1021 82 1021 82 1031.5 69.5 c 128,-1,23
 1042 57 1042 57 1042 41 c 0,24,25
 1042 24 1042 24 1031.5 12 c 128,-1,26
 1021 0 1021 0 1002 0 c 2,27,-1
 327 0 l 2,28,29
 305 0 305 0 293 12.5 c 128,-1,30
 281 25 281 25 281 42 c 0,31,32
 281 58 281 58 292 70 c 128,-1,33
 303 82 303 82 323 82 c 2,34,-1
 544 82 l 1,35,-1
 544 684 l 1,36,-1
 352 684 l 2,37,38
 330 684 330 684 318 696.5 c 128,-1,39
 306 709 306 709 306 726 c 0,40,41
 306 742 306 742 317 754 c 128,-1,42
 328 766 328 766 348 766 c 2,43,-1
 544 766 l 1,44,-1
 544 838 l 2,45,46
 544 1015 544 1015 656.5 1101.5 c 128,-1,47
 769 1188 769 1188 979 1188 c 0,48,49
 1003 1188 1003 1188 1019.5 1174 c 128,-1,50
 1036 1160 1036 1160 1036 1137 c 2,51,-1
 1036 1020 l 2,0,1
EndSplineSet
EndChar

StartChar: g
Encoding: 103 103 73
Width: 1240
Flags: HW
LayerCount: 2
Fore
SplineSet
548 109 m 2,0,-1
 641 109 l 2,1,2
 732 109 732 109 792 100.5 c 128,-1,3
 852 92 852 92 900.5 68.5 c 128,-1,4
 949 45 949 45 971.5 0 c 128,-1,5
 994 -45 994 -45 994 -114 c 0,6,7
 994 -192 994 -192 933 -247 c 128,-1,8
 872 -302 872 -302 782 -326 c 128,-1,9
 692 -350 692 -350 585 -350 c 0,10,11
 535 -350 535 -350 492.5 -344.5 c 128,-1,12
 450 -339 450 -339 409.5 -324.5 c 128,-1,13
 369 -310 369 -310 340.5 -287.5 c 128,-1,14
 312 -265 312 -265 295 -229 c 128,-1,15
 278 -193 278 -193 278 -147 c 0,16,17
 278 -75 278 -75 311 -21.5 c 128,-1,18
 344 32 344 32 397 58 c 1,19,20
 303 103 303 103 303 185 c 0,21,22
 303 238 303 238 352 281.5 c 128,-1,23
 401 325 401 325 448 331 c 1,24,25
 362 366 362 366 319 414.5 c 128,-1,26
 276 463 276 463 276 545 c 0,27,28
 276 676 276 676 368.5 744.5 c 128,-1,29
 461 813 461 813 599 813 c 0,30,31
 743 813 743 813 838 734 c 1,32,-1
 990 835 l 2,33,34
 1052 877 1052 877 1111 877 c 0,35,36
 1169 877 1169 877 1169 826 c 128,-1,37
 1169 775 1169 775 1036 775 c 1,38,-1
 867 701 l 1,39,40
 924 630 924 630 924 540 c 0,41,42
 924 409 924 409 840.5 348 c 128,-1,43
 757 287 757 287 588 287 c 0,44,45
 510 287 510 287 454.5 258.5 c 128,-1,46
 399 230 399 230 399 190 c 0,47,48
 399 151 399 151 428.5 130 c 128,-1,49
 458 109 458 109 548 109 c 2,0,-1
460 37 m 1,50,51
 431 26 431 26 402.5 -26.5 c 128,-1,52
 374 -79 374 -79 374 -122 c 0,53,54
 374 -205 374 -205 424.5 -236.5 c 128,-1,55
 475 -268 475 -268 583 -268 c 0,56,57
 640 -268 640 -268 692.5 -260.5 c 128,-1,58
 745 -253 745 -253 793 -236.5 c 128,-1,59
 841 -220 841 -220 869.5 -189.5 c 128,-1,60
 898 -159 898 -159 898 -118 c 0,61,62
 898 -27 898 -27 844 5 c 128,-1,63
 790 37 790 37 644 37 c 2,64,-1
 460 37 l 1,50,51
828 534 m 0,65,66
 828 636 828 636 763 683.5 c 128,-1,67
 698 731 698 731 597 731 c 0,68,69
 498 731 498 731 435 684 c 128,-1,70
 372 637 372 637 372 542 c 0,71,72
 372 454 372 454 433.5 407.5 c 128,-1,73
 495 361 495 361 591 361 c 0,74,75
 828 361 828 361 828 534 c 0,65,66
EndSplineSet
EndChar

StartChar: h
Encoding: 104 104 74
Width: 1240
Flags: HW
LayerCount: 2
Fore
SplineSet
716 731 m 0,0,1
 580 731 580 731 488 656.5 c 128,-1,2
 396 582 396 582 396 497 c 2,3,-1
 396 82 l 1,4,-1
 501 82 l 2,5,6
 524 82 524 82 536.5 70 c 128,-1,7
 549 58 549 58 549 42 c 0,8,9
 549 25 549 25 535.5 12.5 c 128,-1,10
 522 0 522 0 499 0 c 2,11,-1
 196 0 l 2,12,13
 174 0 174 0 162 13 c 128,-1,14
 150 26 150 26 150 43 c 0,15,16
 150 59 150 59 161 70.5 c 128,-1,17
 172 82 172 82 192 82 c 2,18,-1
 300 82 l 1,19,-1
 300 1091 l 1,20,-1
 152 1082 l 2,21,22
 135 1081 135 1081 124 1091.5 c 128,-1,23
 113 1102 113 1102 113 1118 c 0,24,25
 113 1132 113 1132 121.5 1145 c 128,-1,26
 130 1158 130 1158 146 1159 c 2,27,-1
 335 1178 l 2,28,29
 351 1180 351 1180 355 1180 c 0,30,31
 396 1180 396 1180 396 1141 c 2,32,-1
 396 639 l 1,33,34
 434 714 434 714 521.5 763.5 c 128,-1,35
 609 813 609 813 711 813 c 0,36,37
 852 813 852 813 922 740 c 128,-1,38
 992 667 992 667 992 533 c 2,39,-1
 992 82 l 1,40,-1
 1101 82 l 2,41,42
 1120 82 1120 82 1130.5 70 c 128,-1,43
 1141 58 1141 58 1141 42 c 0,44,45
 1141 25 1141 25 1130 12.5 c 128,-1,46
 1119 0 1119 0 1099 0 c 2,47,-1
 754 0 l 2,48,49
 732 0 732 0 720 13 c 128,-1,50
 708 26 708 26 708 43 c 0,51,52
 708 59 708 59 719 70.5 c 128,-1,53
 730 82 730 82 750 82 c 2,54,-1
 896 82 l 1,55,-1
 896 540 l 2,56,57
 896 631 896 631 850.5 681 c 128,-1,58
 805 731 805 731 716 731 c 0,0,1
EndSplineSet
EndChar

StartChar: i
Encoding: 105 105 75
Width: 1240
Flags: HW
LayerCount: 2
Fore
SplineSet
692 1171 m 128,-1,1
 726 1171 726 1171 750 1147 c 128,-1,2
 774 1123 774 1123 774 1088 c 0,3,4
 774 1054 774 1054 750 1030 c 128,-1,5
 726 1006 726 1006 692 1006 c 0,6,7
 657 1006 657 1006 633 1030 c 128,-1,8
 609 1054 609 1054 609 1088 c 128,-1,9
 609 1122 609 1122 633.5 1146.5 c 128,-1,0
 658 1171 658 1171 692 1171 c 128,-1,1
295 0 m 2,10,11
 273 0 273 0 261 13 c 128,-1,12
 249 26 249 26 249 43 c 0,13,14
 249 59 249 59 260 70.5 c 128,-1,15
 271 82 271 82 291 82 c 2,16,-1
 663 82 l 1,17,-1
 663 719 l 1,18,-1
 330 674 l 2,19,20
 328 674 328 674 326 673.5 c 128,-1,21
 324 673 324 673 323 673 c 0,22,23
 304 673 304 673 293 685.5 c 128,-1,24
 282 698 282 698 282 715 c 0,25,26
 282 751 282 751 314 755 c 2,27,-1
 712 810 l 2,28,29
 715 811 715 811 723 811 c 0,30,31
 739 811 739 811 749 802.5 c 128,-1,32
 759 794 759 794 759 779 c 2,33,-1
 759 82 l 1,34,-1
 1092 82 l 2,35,36
 1111 82 1111 82 1121.5 69.5 c 128,-1,37
 1132 57 1132 57 1132 41 c 0,38,39
 1132 24 1132 24 1121 12 c 128,-1,40
 1110 0 1110 0 1091 0 c 2,41,-1
 295 0 l 2,10,11
EndSplineSet
EndChar

StartChar: j
Encoding: 106 106 76
Width: 1240
Flags: HW
LayerCount: 2
Fore
SplineSet
367 -310 m 0,0,1
 344 -310 344 -310 330 -297 c 128,-1,2
 316 -284 316 -284 316 -266 c 128,-1,3
 316 -248 316 -248 331.5 -234.5 c 128,-1,4
 347 -221 347 -221 374 -221 c 0,5,6
 443 -221 443 -221 514.5 -208 c 128,-1,7
 586 -195 586 -195 651.5 -169.5 c 128,-1,8
 717 -144 717 -144 758 -100 c 128,-1,9
 799 -56 799 -56 799 -1 c 2,10,-1
 799 731 l 1,11,-1
 343 731 l 2,12,13
 322 731 322 731 310.5 744 c 128,-1,14
 299 757 299 757 299 774 c 0,15,16
 299 790 299 790 309.5 801.5 c 128,-1,17
 320 813 320 813 339 813 c 2,18,-1
 859 813 l 2,19,20
 895 813 895 813 895 784 c 2,21,-1
 895 -11 l 2,22,23
 895 -100 895 -100 813 -170.5 c 128,-1,24
 731 -241 731 -241 612 -275.5 c 128,-1,25
 493 -310 493 -310 367 -310 c 0,0,1
802 1171 m 128,-1,27
 836 1171 836 1171 860 1147 c 128,-1,28
 884 1123 884 1123 884 1088 c 0,29,30
 884 1054 884 1054 860 1030 c 128,-1,31
 836 1006 836 1006 802 1006 c 0,32,33
 767 1006 767 1006 743 1030 c 128,-1,34
 719 1054 719 1054 719 1088 c 128,-1,35
 719 1122 719 1122 743.5 1146.5 c 128,-1,26
 768 1171 768 1171 802 1171 c 128,-1,27
EndSplineSet
EndChar

StartChar: k
Encoding: 107 107 77
Width: 1240
Flags: HW
LayerCount: 2
Fore
SplineSet
464 399 m 1,0,-1
 847 692 l 1,1,-1
 744 692 l 2,2,3
 724 692 724 692 713 704 c 128,-1,4
 702 716 702 716 702 733 c 128,-1,5
 702 750 702 750 714 762.5 c 128,-1,6
 726 775 726 775 748 775 c 2,7,-1
 1065 775 l 2,8,9
 1085 775 1085 775 1095.5 762 c 128,-1,10
 1106 749 1106 749 1106 729 c 0,11,12
 1106 715 1106 715 1094 703.5 c 128,-1,13
 1082 692 1082 692 1066 692 c 2,14,-1
 977 692 l 1,15,-1
 660 446 l 1,16,-1
 1001 82 l 1,17,-1
 1088 82 l 2,18,19
 1107 82 1107 82 1117.5 69.5 c 128,-1,20
 1128 57 1128 57 1128 41 c 0,21,22
 1128 24 1128 24 1117.5 12 c 128,-1,23
 1107 0 1107 0 1088 0 c 2,24,-1
 775 0 l 2,25,26
 755 0 755 0 744 12.5 c 128,-1,27
 733 25 733 25 733 41 c 0,28,29
 733 58 733 58 745 70 c 128,-1,30
 757 82 757 82 779 82 c 2,31,-1
 889 82 l 1,32,-1
 590 400 l 1,33,-1
 464 308 l 1,34,-1
 464 82 l 1,35,-1
 535 82 l 2,36,37
 553 82 553 82 563.5 69.5 c 128,-1,38
 574 57 574 57 574 41 c 0,39,40
 574 24 574 24 563.5 12 c 128,-1,41
 553 0 553 0 534 0 c 2,42,-1
 200 0 l 2,43,44
 179 0 179 0 166.5 12.5 c 128,-1,45
 154 25 154 25 154 42 c 0,46,47
 154 58 154 58 165 70 c 128,-1,48
 176 82 176 82 196 82 c 2,49,-1
 368 82 l 1,50,-1
 368 1082 l 1,51,-1
 198 1058 l 2,52,53
 195 1057 195 1057 191 1057 c 0,54,55
 172 1057 172 1057 161 1069.5 c 128,-1,56
 150 1082 150 1082 150 1099 c 0,57,58
 150 1135 150 1135 182 1139 c 1,59,-1
 416 1181 l 2,60,61
 417 1181 417 1181 421 1181.5 c 128,-1,62
 425 1182 425 1182 428 1182 c 0,63,64
 444 1182 444 1182 454 1173.5 c 128,-1,65
 464 1165 464 1165 464 1150 c 2,66,-1
 464 399 l 1,0,-1
EndSplineSet
EndChar

StartChar: l
Encoding: 108 108 78
Width: 1240
Flags: HW
LayerCount: 2
Fore
SplineSet
719 1150 m 2,0,-1
 719 82 l 1,1,-1
 1059 82 l 2,2,3
 1077 82 1077 82 1087.5 69.5 c 128,-1,4
 1098 57 1098 57 1098 41 c 0,5,6
 1098 24 1098 24 1087.5 12 c 128,-1,7
 1077 0 1077 0 1058 0 c 2,8,-1
 258 0 l 2,9,10
 236 0 236 0 224 12.5 c 128,-1,11
 212 25 212 25 212 42 c 0,12,13
 212 58 212 58 223 70 c 128,-1,14
 234 82 234 82 254 82 c 2,15,-1
 623 82 l 1,16,-1
 623 1090 l 1,17,-1
 270 1062 l 2,18,19
 268 1062 268 1062 266 1061.5 c 128,-1,20
 264 1061 264 1061 263 1061 c 0,21,22
 244 1061 244 1061 233 1073.5 c 128,-1,23
 222 1086 222 1086 222 1103 c 0,24,25
 222 1139 222 1139 254 1143 c 1,26,-1
 672 1181 l 2,27,28
 673 1181 673 1181 676.5 1181.5 c 128,-1,29
 680 1182 680 1182 683 1182 c 0,30,31
 699 1182 699 1182 709 1173.5 c 128,-1,32
 719 1165 719 1165 719 1150 c 2,0,-1
EndSplineSet
EndChar

StartChar: m
Encoding: 109 109 79
Width: 1240
Flags: HW
LayerCount: 2
Fore
SplineSet
591 540 m 2,0,1
 591 638 591 638 562.5 684.5 c 128,-1,2
 534 731 534 731 486 731 c 0,3,4
 421 731 421 731 366 661 c 128,-1,5
 311 591 311 591 307 503 c 1,6,-1
 307 82 l 1,7,-1
 392 82 l 2,8,9
 415 82 415 82 427.5 70 c 128,-1,10
 440 58 440 58 440 42 c 0,11,12
 440 25 440 25 426.5 12.5 c 128,-1,13
 413 0 413 0 390 0 c 2,14,-1
 107 0 l 2,15,16
 85 0 85 0 73 13 c 128,-1,17
 61 26 61 26 61 43 c 0,18,19
 61 59 61 59 72 70.5 c 128,-1,20
 83 82 83 82 103 82 c 2,21,-1
 211 82 l 1,22,-1
 211 709 l 1,23,-1
 103 687 l 2,24,25
 93 684 93 684 83 684 c 0,26,27
 66 684 66 684 55 695 c 128,-1,28
 44 706 44 706 44 722 c 0,29,30
 44 755 44 755 77 763 c 1,31,-1
 241 796 l 2,32,33
 255 798 255 798 259 798 c 0,34,35
 296 798 296 798 298 759 c 2,36,-1
 303 639 l 1,37,38
 332 722 332 722 382 767.5 c 128,-1,39
 432 813 432 813 496 813 c 0,40,41
 555 813 555 813 602 773 c 128,-1,42
 649 733 649 733 671 654 c 1,43,44
 706 731 706 731 760.5 772 c 128,-1,45
 815 813 815 813 878 813 c 0,46,47
 961 813 961 813 1014 741.5 c 128,-1,48
 1067 670 1067 670 1067 533 c 2,49,-1
 1067 82 l 1,50,-1
 1176 82 l 2,51,52
 1195 82 1195 82 1205.5 70 c 128,-1,53
 1216 58 1216 58 1216 42 c 0,54,55
 1216 25 1216 25 1205 12.5 c 128,-1,56
 1194 0 1194 0 1174 0 c 2,57,-1
 1017 0 l 2,58,59
 995 0 995 0 983 13 c 128,-1,60
 971 26 971 26 971 43 c 2,61,-1
 971 540 l 2,62,63
 971 731 971 731 872 731 c 0,64,65
 805 731 805 731 746.5 662.5 c 128,-1,66
 688 594 688 594 687 509 c 1,67,-1
 687 82 l 1,68,-1
 805 82 l 2,69,70
 824 82 824 82 834.5 70 c 128,-1,71
 845 58 845 58 845 42 c 0,72,73
 845 25 845 25 834 12.5 c 128,-1,74
 823 0 823 0 803 0 c 2,75,-1
 637 0 l 2,76,77
 615 0 615 0 603 13 c 128,-1,78
 591 26 591 26 591 43 c 2,79,-1
 591 540 l 2,0,1
EndSplineSet
EndChar

StartChar: n
Encoding: 110 110 80
Width: 1240
Flags: HW
LayerCount: 2
Fore
SplineSet
714 731 m 0,0,1
 578 731 578 731 486 658 c 128,-1,2
 394 585 394 585 394 503 c 2,3,-1
 394 82 l 1,4,-1
 499 82 l 2,5,6
 522 82 522 82 534.5 70 c 128,-1,7
 547 58 547 58 547 42 c 0,8,9
 547 25 547 25 533.5 12.5 c 128,-1,10
 520 0 520 0 497 0 c 2,11,-1
 194 0 l 2,12,13
 172 0 172 0 160 13 c 128,-1,14
 148 26 148 26 148 43 c 0,15,16
 148 59 148 59 159 70.5 c 128,-1,17
 170 82 170 82 190 82 c 2,18,-1
 298 82 l 1,19,-1
 298 709 l 1,20,-1
 190 687 l 2,21,22
 179 684 179 684 170 684 c 0,23,24
 153 684 153 684 142 695 c 128,-1,25
 131 706 131 706 131 722 c 0,26,27
 131 755 131 755 164 763 c 1,28,-1
 328 796 l 2,29,30
 342 798 342 798 346 798 c 0,31,32
 383 798 383 798 385 759 c 2,33,-1
 390 639 l 1,34,35
 428 714 428 714 517 763.5 c 128,-1,36
 606 813 606 813 709 813 c 0,37,38
 850 813 850 813 920 740 c 128,-1,39
 990 667 990 667 990 533 c 2,40,-1
 990 82 l 1,41,-1
 1099 82 l 2,42,43
 1118 82 1118 82 1128.5 70 c 128,-1,44
 1139 58 1139 58 1139 42 c 0,45,46
 1139 25 1139 25 1128 12.5 c 128,-1,47
 1117 0 1117 0 1097 0 c 2,48,-1
 752 0 l 2,49,50
 730 0 730 0 718 13 c 128,-1,51
 706 26 706 26 706 43 c 0,52,53
 706 59 706 59 717 70.5 c 128,-1,54
 728 82 728 82 748 82 c 2,55,-1
 894 82 l 1,56,-1
 894 540 l 2,57,58
 894 631 894 631 848.5 681 c 128,-1,59
 803 731 803 731 714 731 c 0,0,1
EndSplineSet
EndChar

StartChar: o
Encoding: 111 111 81
Width: 1240
Flags: HW
LayerCount: 2
Fore
SplineSet
620 65 m 128,-1,1
 768 65 768 65 852 157 c 128,-1,2
 936 249 936 249 936 398 c 128,-1,3
 936 547 936 547 852 639 c 128,-1,4
 768 731 768 731 620 731 c 128,-1,5
 472 731 472 731 388 639 c 128,-1,6
 304 547 304 547 304 398 c 128,-1,7
 304 249 304 249 388 157 c 128,-1,0
 472 65 472 65 620 65 c 128,-1,1
620 813 m 128,-1,9
 811 813 811 813 927.5 701 c 128,-1,10
 1044 589 1044 589 1044 398 c 0,11,12
 1044 209 1044 209 927.5 96 c 128,-1,13
 811 -17 811 -17 620 -17 c 128,-1,14
 429 -17 429 -17 312.5 96 c 128,-1,15
 196 209 196 209 196 398 c 0,16,17
 196 589 196 589 312.5 701 c 128,-1,8
 429 813 429 813 620 813 c 128,-1,9
EndSplineSet
EndChar

StartChar: p
Encoding: 112 112 82
Width: 1240
Flags: HW
LayerCount: 2
Fore
SplineSet
971 398 m 0,0,1
 971 540 971 540 897.5 635.5 c 128,-1,2
 824 731 824 731 691 731 c 0,3,4
 506 731 506 731 405 586 c 1,5,-1
 405 194 l 1,6,7
 508 65 508 65 683 65 c 0,8,9
 820 65 820 65 895.5 161 c 128,-1,10
 971 257 971 257 971 398 c 0,0,1
399 690 m 1,11,12
 452 744 452 744 528 778.5 c 128,-1,13
 604 813 604 813 693 813 c 0,14,15
 866 813 866 813 966.5 698 c 128,-1,16
 1067 583 1067 583 1067 398 c 0,17,18
 1067 216 1067 216 964 99.5 c 128,-1,19
 861 -17 861 -17 689 -17 c 0,20,21
 598 -17 598 -17 531.5 10 c 128,-1,22
 465 37 465 37 405 89 c 1,23,-1
 405 -288 l 1,24,-1
 621 -288 l 2,25,26
 641 -288 641 -288 652 -299.5 c 128,-1,27
 663 -311 663 -311 663 -327 c 0,28,29
 663 -344 663 -344 651 -357 c 128,-1,30
 639 -370 639 -370 617 -370 c 2,31,-1
 221 -370 l 2,32,33
 201 -370 201 -370 190 -357.5 c 128,-1,34
 179 -345 179 -345 179 -328 c 0,35,36
 179 -312 179 -312 189.5 -300 c 128,-1,37
 200 -288 200 -288 219 -288 c 2,38,-1
 309 -288 l 1,39,-1
 309 708 l 1,40,-1
 201 687 l 2,41,42
 200 687 200 687 192.5 685.5 c 128,-1,43
 185 684 185 684 181 684 c 0,44,45
 164 684 164 684 153 695 c 128,-1,46
 142 706 142 706 142 722 c 0,47,48
 142 755 142 755 175 763 c 1,49,-1
 339 796 l 2,50,51
 353 798 353 798 357 798 c 0,52,53
 394 798 394 798 396 759 c 2,54,-1
 399 690 l 1,11,12
EndSplineSet
EndChar

StartChar: q
Encoding: 113 113 83
Width: 1240
Flags: HW
LayerCount: 2
Fore
SplineSet
296 398 m 0,0,1
 296 257 296 257 371.5 161 c 128,-1,2
 447 65 447 65 584 65 c 0,3,4
 759 65 759 65 862 194 c 1,5,-1
 862 586 l 1,6,7
 761 731 761 731 576 731 c 0,8,9
 443 731 443 731 369.5 635.5 c 128,-1,10
 296 540 296 540 296 398 c 0,0,1
958 -288 m 1,11,-1
 1048 -288 l 2,12,13
 1067 -288 1067 -288 1077.5 -300 c 128,-1,14
 1088 -312 1088 -312 1088 -328 c 0,15,16
 1088 -345 1088 -345 1077 -357.5 c 128,-1,17
 1066 -370 1066 -370 1046 -370 c 2,18,-1
 650 -370 l 2,19,20
 628 -370 628 -370 616 -357 c 128,-1,21
 604 -344 604 -344 604 -327 c 0,22,23
 604 -311 604 -311 615 -299.5 c 128,-1,24
 626 -288 626 -288 646 -288 c 2,25,-1
 862 -288 l 1,26,-1
 862 89 l 1,27,28
 802 37 802 37 735.5 10 c 128,-1,29
 669 -17 669 -17 578 -17 c 0,30,31
 406 -17 406 -17 303 99.5 c 128,-1,32
 200 216 200 216 200 398 c 0,33,34
 200 583 200 583 300.5 698 c 128,-1,35
 401 813 401 813 574 813 c 0,36,37
 664 813 664 813 739 780 c 128,-1,38
 814 747 814 747 866 694 c 1,39,40
 866 742 866 742 874.5 766.5 c 128,-1,41
 883 791 883 791 892 795.5 c 128,-1,42
 901 800 901 800 917 800 c 0,43,44
 936 800 936 800 947 785 c 128,-1,45
 958 770 958 770 958 724 c 2,46,-1
 958 -288 l 1,11,-1
EndSplineSet
EndChar

StartChar: r
Encoding: 114 114 84
Width: 1240
Flags: HW
LayerCount: 2
Fore
SplineSet
920 731 m 1,0,1
 786 731 786 731 683 678.5 c 128,-1,2
 580 626 580 626 540 526 c 1,3,-1
 540 82 l 1,4,-1
 876 82 l 2,5,6
 895 82 895 82 905.5 70 c 128,-1,7
 916 58 916 58 916 41 c 0,8,9
 916 25 916 25 905 12.5 c 128,-1,10
 894 0 894 0 875 0 c 2,11,-1
 265 0 l 2,12,13
 243 0 243 0 231 12.5 c 128,-1,14
 219 25 219 25 219 42 c 0,15,16
 219 58 219 58 230 70 c 128,-1,17
 241 82 241 82 261 82 c 2,18,-1
 444 82 l 1,19,-1
 444 709 l 1,20,-1
 322 684 l 2,21,22
 318 683 318 683 310 683 c 0,23,24
 291 683 291 683 280.5 695 c 128,-1,25
 270 707 270 707 270 723 c 0,26,27
 270 755 270 755 300 761 c 2,28,-1
 471 795 l 2,29,30
 485 798 485 798 494 798 c 0,31,32
 516 798 516 798 523.5 784 c 128,-1,33
 531 770 531 770 532 742 c 2,34,-1
 536 638 l 1,35,36
 650 813 650 813 928 813 c 0,37,38
 1016 813 1016 813 1016 753 c 2,39,-1
 1016 615 l 2,40,41
 1016 588 1016 588 1001.5 573.5 c 128,-1,42
 987 559 987 559 967 559 c 0,43,44
 948 559 948 559 934 572.5 c 128,-1,45
 920 586 920 586 920 611 c 2,46,-1
 920 731 l 1,0,1
EndSplineSet
EndChar

StartChar: s
Encoding: 115 115 85
Width: 1240
Flags: HW
LayerCount: 2
Fore
SplineSet
609 813 m 0,0,1
 696 813 696 813 777 786.5 c 128,-1,2
 858 760 858 760 888 721 c 1,3,-1
 888 758 l 1,4,5
 887 781 887 781 900 794.5 c 128,-1,6
 913 808 913 808 930 808 c 128,-1,7
 947 808 947 808 959 795 c 128,-1,8
 971 782 971 782 971 759 c 2,9,-1
 969 558 l 1,10,11
 964 521 964 521 929 521 c 0,12,13
 904 521 904 521 897 540 c 128,-1,14
 890 559 890 559 889 606 c 1,15,16
 836 731 836 731 602 731 c 0,17,18
 390 731 390 731 390 601 c 0,19,20
 390 555 390 555 418 526.5 c 128,-1,21
 446 498 446 498 517 482 c 1,22,-1
 776 430 l 2,23,24
 873 411 873 411 925.5 361 c 128,-1,25
 978 311 978 311 978 208 c 0,26,27
 978 96 978 96 889.5 39.5 c 128,-1,28
 801 -17 801 -17 652 -17 c 0,29,30
 446 -17 446 -17 342 102 c 1,31,-1
 342 42 l 2,32,33
 342 21 342 21 331.5 10.5 c 128,-1,34
 321 0 321 0 306 0 c 0,35,36
 290 0 290 0 278 11 c 128,-1,37
 266 22 266 22 266 39 c 2,38,-1
 268 265 l 2,39,40
 268 291 268 291 279 304 c 128,-1,41
 290 317 290 317 304 317 c 0,42,43
 321 317 321 317 330.5 307 c 128,-1,44
 340 297 340 297 340 265 c 0,45,46
 340 180 340 180 428.5 122.5 c 128,-1,47
 517 65 517 65 646 65 c 0,48,49
 881 65 881 65 881 209 c 0,50,51
 881 260 881 260 854 291.5 c 128,-1,52
 827 323 827 323 763 335 c 2,53,-1
 497 387 l 1,54,55
 287 427 287 427 287 586 c 0,56,57
 287 650 287 650 314.5 696.5 c 128,-1,58
 342 743 342 743 390 767 c 128,-1,59
 438 791 438 791 492 802 c 128,-1,60
 546 813 546 813 609 813 c 0,0,1
EndSplineSet
EndChar

StartChar: t
Encoding: 116 116 86
Width: 1240
Flags: HW
LayerCount: 2
Fore
SplineSet
505 204 m 2,0,1
 505 132 505 132 552.5 98.5 c 128,-1,2
 600 65 600 65 677 65 c 0,3,4
 747 65 747 65 822.5 89.5 c 128,-1,5
 898 114 898 114 946 150 c 0,6,7
 950 154 950 154 957 154 c 0,8,9
 971 154 971 154 985 137 c 128,-1,10
 999 120 999 120 999 103 c 0,11,12
 999 95 999 95 994 88 c 0,13,14
 961 49 961 49 864 16 c 128,-1,15
 767 -17 767 -17 667 -17 c 0,16,17
 563 -17 563 -17 486 38.5 c 128,-1,18
 409 94 409 94 409 169 c 2,19,-1
 409 692 l 1,20,-1
 266 692 l 2,21,22
 244 692 244 692 232 705 c 128,-1,23
 220 718 220 718 220 735 c 0,24,25
 220 751 220 751 231 762.5 c 128,-1,26
 242 774 242 774 262 774 c 2,27,-1
 409 774 l 1,28,29
 409 951 409 951 418.5 1004.5 c 128,-1,30
 428 1058 428 1058 469 1058 c 0,31,32
 491 1058 491 1058 498 1046.5 c 128,-1,33
 505 1035 505 1035 505 1013 c 2,34,-1
 505 774 l 1,35,-1
 877 774 l 2,36,37
 895 774 895 774 905.5 761.5 c 128,-1,38
 916 749 916 749 916 733 c 0,39,40
 916 716 916 716 905.5 704 c 128,-1,41
 895 692 895 692 876 692 c 2,42,-1
 505 692 l 1,43,-1
 505 204 l 2,0,1
EndSplineSet
EndChar

StartChar: u
Encoding: 117 117 87
Width: 1240
Flags: HW
LayerCount: 2
Fore
SplineSet
562 65 m 0,0,1
 652 65 652 65 742.5 113.5 c 128,-1,2
 833 162 833 162 866 231 c 1,3,-1
 866 706 l 1,4,-1
 769 686 l 1,5,6
 760 683 760 683 751 683 c 0,7,8
 730 683 730 683 717 696 c 128,-1,9
 704 709 704 709 704 726 c 0,10,11
 704 758 704 758 742 765 c 2,12,-1
 916 800 l 2,13,14
 924 802 924 802 928 802 c 0,15,16
 943 802 943 802 952.5 792 c 128,-1,17
 962 782 962 782 962 768 c 2,18,-1
 962 85 l 1,19,-1
 1110 96 l 1,20,-1
 1116 96 l 2,21,22
 1136 96 1136 96 1146 86 c 128,-1,23
 1156 76 1156 76 1156 61 c 128,-1,24
 1156 46 1156 46 1146 33.5 c 128,-1,25
 1136 21 1136 21 1118 17 c 1,26,-1
 932 -3 l 1,27,-1
 925 -3 l 2,28,29
 881 -3 881 -3 878 47 c 2,30,-1
 873 134 l 1,31,32
 829 69 829 69 742 26 c 128,-1,33
 655 -17 655 -17 561 -17 c 0,34,35
 425 -17 425 -17 347.5 59.5 c 128,-1,36
 270 136 270 136 270 262 c 2,37,-1
 270 706 l 1,38,-1
 172 686 l 2,39,40
 166 684 166 684 155 684 c 0,41,42
 135 684 135 684 122 697 c 128,-1,43
 109 710 109 710 109 727 c 0,44,45
 109 758 109 758 145 765 c 2,46,-1
 320 800 l 2,47,48
 328 802 328 802 332 802 c 0,49,50
 347 802 347 802 356.5 792 c 128,-1,51
 366 782 366 782 366 768 c 2,52,-1
 366 259 l 2,53,54
 366 172 366 172 415.5 118.5 c 128,-1,55
 465 65 465 65 562 65 c 0,0,1
EndSplineSet
EndChar

StartChar: v
Encoding: 118 118 88
Width: 1240
Flags: HW
LayerCount: 2
Fore
SplineSet
491 774 m 2,0,1
 530 774 530 774 530 732 c 0,2,3
 530 692 530 692 492 692 c 2,4,-1
 383 692 l 1,5,-1
 650 92 l 1,6,-1
 894 692 l 1,7,-1
 809 692 l 2,8,9
 770 692 770 692 770 732 c 0,10,11
 770 774 770 774 810 774 c 2,12,-1
 1071 774 l 2,13,14
 1117 774 1117 774 1117 733 c 128,-1,15
 1117 692 1117 692 1075 692 c 2,16,-1
 986 692 l 1,17,-1
 719 54 l 2,18,19
 701 11 701 11 685.5 -1.5 c 128,-1,20
 670 -14 670 -14 647 -14 c 0,21,22
 623 -14 623 -14 605.5 -0.5 c 128,-1,23
 588 13 588 13 567 59 c 2,24,-1
 273 692 l 1,25,-1
 172 692 l 2,26,27
 130 692 130 692 130 733 c 128,-1,28
 130 774 130 774 176 774 c 2,29,-1
 491 774 l 2,0,1
EndSplineSet
EndChar

StartChar: w
Encoding: 119 119 89
Width: 1240
Flags: HW
LayerCount: 2
Fore
SplineSet
765 774 m 2,0,1
 804 774 804 774 804 732 c 0,2,3
 804 692 804 692 766 692 c 2,4,-1
 657 692 l 1,5,-1
 869 92 l 1,6,-1
 1038 692 l 1,7,-1
 973 692 l 2,8,9
 934 692 934 692 934 732 c 0,10,11
 934 774 934 774 974 774 c 2,12,-1
 1195 774 l 2,13,14
 1241 774 1241 774 1241 733 c 128,-1,15
 1241 692 1241 692 1199 692 c 2,16,-1
 1130 692 l 1,17,-1
 938 54 l 2,18,19
 925 12 925 12 908 -1 c 128,-1,20
 891 -14 891 -14 866 -14 c 0,21,22
 850 -14 850 -14 838.5 -10 c 128,-1,23
 827 -6 827 -6 812.5 11 c 128,-1,24
 798 28 798 28 786 59 c 2,25,-1
 651 433 l 1,26,-1
 507 54 l 2,27,28
 491 11 491 11 475 -1.5 c 128,-1,29
 459 -14 459 -14 435 -14 c 0,30,31
 418 -14 418 -14 406.5 -10.5 c 128,-1,32
 395 -7 395 -7 380.5 10 c 128,-1,33
 366 27 366 27 355 59 c 2,34,-1
 146 692 l 1,35,-1
 68 692 l 2,36,37
 26 692 26 692 26 733 c 128,-1,38
 26 774 26 774 72 774 c 2,39,-1
 307 774 l 2,40,41
 346 774 346 774 346 732 c 0,42,43
 346 692 346 692 308 692 c 2,44,-1
 256 692 l 1,45,-1
 438 92 l 1,46,-1
 607 555 l 1,47,-1
 558 692 l 1,48,-1
 507 692 l 2,49,50
 465 692 465 692 465 733 c 128,-1,51
 465 774 465 774 511 774 c 2,52,-1
 765 774 l 2,0,1
EndSplineSet
EndChar

StartChar: x
Encoding: 120 120 90
Width: 1240
Flags: HW
LayerCount: 2
Fore
SplineSet
778 0 m 2,0,1
 751 0 751 0 736.5 12.5 c 128,-1,2
 722 25 722 25 722 42 c 0,3,4
 722 58 722 58 735.5 70 c 128,-1,5
 749 82 749 82 773 82 c 2,6,-1
 853 82 l 1,7,-1
 628 340 l 1,8,-1
 407 82 l 1,9,-1
 466 82 l 2,10,11
 504 82 504 82 504 42 c 0,12,13
 504 0 504 0 464 0 c 2,14,-1
 217 0 l 2,15,16
 171 0 171 0 171 42 c 0,17,18
 171 82 171 82 213 82 c 2,19,-1
 297 82 l 1,20,-1
 570 406 l 1,21,-1
 320 692 l 1,22,-1
 232 692 l 2,23,24
 186 692 186 692 186 734 c 0,25,26
 186 774 186 774 228 774 c 2,27,-1
 465 774 l 2,28,29
 503 774 503 774 503 734 c 0,30,31
 503 692 503 692 463 692 c 2,32,-1
 423 692 l 1,33,-1
 623 469 l 1,34,-1
 811 692 l 1,35,-1
 766 692 l 2,36,37
 720 692 720 692 720 734 c 0,38,39
 720 774 720 774 762 774 c 2,40,-1
 1029 774 l 2,41,42
 1068 774 1068 774 1068 734 c 0,43,44
 1068 692 1068 692 1027 692 c 2,45,-1
 929 692 l 1,46,-1
 682 403 l 1,47,-1
 970 82 l 1,48,-1
 1041 82 l 2,49,50
 1064 82 1064 82 1077 70 c 128,-1,51
 1090 58 1090 58 1090 42 c 0,52,53
 1090 25 1090 25 1076.5 12.5 c 128,-1,54
 1063 0 1063 0 1039 0 c 2,55,-1
 778 0 l 2,0,1
EndSplineSet
EndChar

StartChar: y
Encoding: 121 121 91
Width: 1240
Flags: HW
LayerCount: 2
Fore
SplineSet
488 774 m 2,0,1
 529 774 529 774 529 732 c 0,2,3
 529 692 529 692 490 692 c 2,4,-1
 388 692 l 1,5,-1
 643 95 l 1,6,-1
 871 692 l 1,7,-1
 782 692 l 2,8,9
 743 692 743 692 743 732 c 0,10,11
 743 774 743 774 783 774 c 2,12,-1
 1048 774 l 2,13,14
 1094 774 1094 774 1094 733 c 128,-1,15
 1094 692 1094 692 1052 692 c 2,16,-1
 973 692 l 1,17,-1
 670 -83 l 2,18,19
 619 -214 619 -214 548.5 -287.5 c 128,-1,20
 478 -361 478 -361 371 -361 c 0,21,22
 303 -361 303 -361 303 -309 c 0,23,24
 303 -261 303 -261 371 -261 c 0,25,26
 426 -261 426 -261 476 -224 c 128,-1,27
 526 -187 526 -187 543 -141 c 2,28,-1
 597 -2 l 1,29,30
 533 131 533 131 420.5 385 c 128,-1,31
 308 639 308 639 284 692 c 1,32,-1
 191 692 l 2,33,34
 150 692 150 692 150 732 c 0,35,36
 150 774 150 774 196 774 c 2,37,-1
 488 774 l 2,0,1
EndSplineSet
EndChar

StartChar: z
Encoding: 122 122 92
Width: 1240
Flags: HW
LayerCount: 2
Fore
SplineSet
896 772 m 2,0,1
 957 772 957 772 957 727 c 0,2,3
 957 700 957 700 939 682 c 1,4,-1
 387 82 l 1,5,-1
 902 82 l 1,6,-1
 913 319 l 2,7,8
 914 336 914 336 927 346.5 c 128,-1,9
 940 357 940 357 957 357 c 128,-1,10
 974 357 974 357 986 346 c 128,-1,11
 998 335 998 335 998 315 c 2,12,-1
 998 46 l 2,13,14
 998 28 998 28 982 14 c 128,-1,15
 966 0 966 0 947 0 c 2,16,-1
 334 0 l 2,17,18
 278 0 278 0 278 59 c 0,19,20
 278 90 278 90 295 109 c 2,21,-1
 829 692 l 1,22,-1
 368 692 l 1,23,-1
 360 495 l 2,24,25
 359 474 359 474 347 462 c 128,-1,26
 335 450 335 450 318 450 c 0,27,28
 300 450 300 450 286.5 463.5 c 128,-1,29
 273 477 273 477 273 500 c 2,30,-1
 273 726 l 2,31,32
 273 744 273 744 287 758 c 128,-1,33
 301 772 301 772 319 772 c 2,34,-1
 896 772 l 2,0,1
EndSplineSet
EndChar

StartChar: braceleft
Encoding: 123 123 93
Width: 1240
Flags: HW
LayerCount: 2
Fore
SplineSet
657 658 m 0,0,1
 657 634 657 634 656.5 621.5 c 128,-1,2
 656 609 656 609 651 590.5 c 128,-1,3
 646 572 646 572 637 561.5 c 128,-1,4
 628 551 628 551 611 541 c 128,-1,5
 594 531 594 531 568 526 c 1,6,7
 599 519 599 519 618.5 505.5 c 128,-1,8
 638 492 638 492 645.5 470 c 128,-1,9
 653 448 653 448 655 431.5 c 128,-1,10
 657 415 657 415 657 385 c 0,11,12
 657 319 657 319 627 181 c 128,-1,13
 597 43 597 43 597 -15 c 0,14,15
 597 -88 597 -88 654 -115.5 c 128,-1,16
 711 -143 711 -143 860 -143 c 0,17,18
 873 -143 873 -143 880.5 -155.5 c 128,-1,19
 888 -168 888 -168 888 -185 c 128,-1,20
 888 -202 888 -202 880.5 -214.5 c 128,-1,21
 873 -227 873 -227 860 -227 c 0,22,23
 780 -227 780 -227 721.5 -221 c 128,-1,24
 663 -215 663 -215 624 -200.5 c 128,-1,25
 585 -186 585 -186 560.5 -168 c 128,-1,26
 536 -150 536 -150 523 -121.5 c 128,-1,27
 510 -93 510 -93 506 -64 c 128,-1,28
 502 -35 502 -35 502 8 c 0,29,30
 502 83 502 83 533 206.5 c 128,-1,31
 564 330 564 330 564 385 c 0,32,33
 564 426 564 426 537 446.5 c 128,-1,34
 510 467 510 467 441 467 c 0,35,36
 420 467 420 467 407 485.5 c 128,-1,37
 394 504 394 504 394 529 c 0,38,39
 394 552 394 552 406 568.5 c 128,-1,40
 418 585 418 585 441 585 c 0,41,42
 512 585 512 585 538 601.5 c 128,-1,43
 564 618 564 618 564 657 c 0,44,45
 564 712 564 712 533 835.5 c 128,-1,46
 502 959 502 959 502 1034 c 0,47,48
 502 1086 502 1086 508.5 1119 c 128,-1,49
 515 1152 515 1152 535.5 1183.5 c 128,-1,50
 556 1215 556 1215 595 1232 c 128,-1,51
 634 1249 634 1249 699.5 1259.5 c 128,-1,52
 765 1270 765 1270 860 1270 c 0,53,54
 873 1270 873 1270 880.5 1257.5 c 128,-1,55
 888 1245 888 1245 888 1228 c 128,-1,56
 888 1211 888 1211 880.5 1198.5 c 128,-1,57
 873 1186 873 1186 860 1186 c 0,58,59
 711 1186 711 1186 654 1158.5 c 128,-1,60
 597 1131 597 1131 597 1058 c 0,61,62
 597 1000 597 1000 627 862 c 128,-1,63
 657 724 657 724 657 658 c 0,0,1
EndSplineSet
EndChar

StartChar: bar
Encoding: 124 124 94
Width: 1240
Flags: HW
LayerCount: 2
Fore
SplineSet
701 1257 m 0,0,1
 754 1257 754 1257 759 1208 c 1,2,-1
 759 -67 l 2,3,4
 759 -87 759 -87 740 -99.5 c 128,-1,5
 721 -112 721 -112 699 -112 c 0,6,7
 639 -112 639 -112 639 -56 c 2,8,-1
 639 1208 l 2,9,10
 639 1231 639 1231 657.5 1244 c 128,-1,11
 676 1257 676 1257 701 1257 c 0,0,1
EndSplineSet
EndChar

StartChar: braceright
Encoding: 125 125 95
Width: 1240
Flags: HW
LayerCount: 2
Fore
SplineSet
614 385 m 0,0,1
 614 409 614 409 614.5 421.5 c 128,-1,2
 615 434 615 434 620 452.5 c 128,-1,3
 625 471 625 471 634 481.5 c 128,-1,4
 643 492 643 492 660 502 c 128,-1,5
 677 512 677 512 703 517 c 1,6,7
 672 524 672 524 652.5 537.5 c 128,-1,8
 633 551 633 551 625.5 573 c 128,-1,9
 618 595 618 595 616 611.5 c 128,-1,10
 614 628 614 628 614 658 c 0,11,12
 614 724 614 724 644 862 c 128,-1,13
 674 1000 674 1000 674 1058 c 0,14,15
 674 1131 674 1131 617 1158.5 c 128,-1,16
 560 1186 560 1186 411 1186 c 0,17,18
 398 1186 398 1186 390.5 1198.5 c 128,-1,19
 383 1211 383 1211 383 1228 c 128,-1,20
 383 1245 383 1245 390.5 1257.5 c 128,-1,21
 398 1270 398 1270 411 1270 c 0,22,23
 491 1270 491 1270 549.5 1264 c 128,-1,24
 608 1258 608 1258 647 1243.5 c 128,-1,25
 686 1229 686 1229 710.5 1211 c 128,-1,26
 735 1193 735 1193 748 1164.5 c 128,-1,27
 761 1136 761 1136 765 1107 c 128,-1,28
 769 1078 769 1078 769 1035 c 0,29,30
 769 960 769 960 738 836.5 c 128,-1,31
 707 713 707 713 707 658 c 0,32,33
 707 617 707 617 734 596.5 c 128,-1,34
 761 576 761 576 830 576 c 0,35,36
 851 576 851 576 864 557.5 c 128,-1,37
 877 539 877 539 877 514 c 0,38,39
 877 491 877 491 865 474.5 c 128,-1,40
 853 458 853 458 830 458 c 0,41,42
 759 458 759 458 733 441.5 c 128,-1,43
 707 425 707 425 707 386 c 0,44,45
 707 331 707 331 738 207.5 c 128,-1,46
 769 84 769 84 769 9 c 0,47,48
 769 -43 769 -43 762.5 -76 c 128,-1,49
 756 -109 756 -109 735.5 -140.5 c 128,-1,50
 715 -172 715 -172 676 -189 c 128,-1,51
 637 -206 637 -206 571.5 -216.5 c 128,-1,52
 506 -227 506 -227 411 -227 c 0,53,54
 398 -227 398 -227 390.5 -214.5 c 128,-1,55
 383 -202 383 -202 383 -185 c 128,-1,56
 383 -168 383 -168 390.5 -155.5 c 128,-1,57
 398 -143 398 -143 411 -143 c 0,58,59
 560 -143 560 -143 617 -115.5 c 128,-1,60
 674 -88 674 -88 674 -15 c 0,61,62
 674 43 674 43 644 181 c 128,-1,63
 614 319 614 319 614 385 c 0,0,1
EndSplineSet
EndChar

StartChar: asciitilde
Encoding: 126 126 96
Width: 1240
Flags: HW
LayerCount: 2
Fore
SplineSet
350 727 m 0,0,1
 350 811 350 811 394 866.5 c 128,-1,2
 438 922 438 922 501 922 c 0,3,4
 557 922 557 922 615.5 902.5 c 128,-1,5
 674 883 674 883 713 860 c 128,-1,6
 752 837 752 837 789.5 817.5 c 128,-1,7
 827 798 827 798 846 798 c 0,8,9
 873 798 873 798 893.5 809.5 c 128,-1,10
 914 821 914 821 926.5 837 c 128,-1,11
 939 853 939 853 949.5 869 c 128,-1,12
 960 885 960 885 972 896.5 c 128,-1,13
 984 908 984 908 998 908 c 0,14,15
 1048 908 1048 908 1048 872 c 0,16,17
 1048 788 1048 788 997 733 c 128,-1,18
 946 678 946 678 872 678 c 0,19,20
 815 678 815 678 746 709 c 128,-1,21
 677 740 677 740 616.5 770.5 c 128,-1,22
 556 801 556 801 521 801 c 0,23,24
 494 801 494 801 474 784 c 128,-1,25
 454 767 454 767 445 746 c 128,-1,26
 436 725 436 725 424.5 708 c 128,-1,27
 413 691 413 691 400 691 c 0,28,29
 379 691 379 691 364.5 700 c 128,-1,30
 350 709 350 709 350 727 c 0,0,1
EndSplineSet
EndChar

StartChar: cent
Encoding: 162 162 99
Width: 1240
Flags: HW
LayerCount: 2
Fore
SplineSet
634 990 m 128,-1,1
 651 990 651 990 655.5 982.5 c 128,-1,2
 660 975 660 975 660 956 c 2,3,-1
 660 951 l 1,4,-1
 660 813 l 1,5,6
 800 809 800 809 886 753 c 0,7,8
 979 693 979 693 979 564 c 0,9,10
 979 528 979 528 963.5 506 c 128,-1,11
 948 484 948 484 919 484 c 128,-1,12
 890 484 890 484 879 519.5 c 128,-1,13
 868 555 868 555 858 645 c 0,14,15
 855 672 855 672 853 686 c 1,16,17
 766 729 766 729 660 731 c 1,18,-1
 660 66 l 1,19,20
 729 70 729 70 778 90 c 0,21,22
 840 115 840 115 902 172 c 0,23,24
 919 188 919 188 943 188 c 0,25,26
 978 188 978 188 978 147 c 0,27,28
 978 124 978 124 960 105 c 0,29,30
 908 48 908 48 812 16 c 0,31,32
 732 -11 732 -11 660 -16 c 1,33,-1
 660 -189 l 2,34,35
 660 -213 660 -213 655 -224.5 c 128,-1,36
 650 -236 650 -236 634 -236 c 0,37,38
 617 -236 617 -236 612 -226 c 128,-1,39
 607 -216 607 -216 607 -190 c 2,40,-1
 607 -17 l 1,41,42
 421 -10 421 -10 306 96 c 0,43,44
 183 210 183 210 183 407 c 0,45,46
 182 593 182 593 312 703 c 0,47,48
 432 805 432 805 607 812 c 1,49,-1
 607 951 l 2,50,51
 607 972 607 972 612 981 c 128,-1,0
 617 990 617 990 634 990 c 128,-1,1
607 730 m 1,52,53
 463 721 463 721 377 645 c 0,54,55
 279 559 279 559 279 407 c 0,56,57
 278 238 278 238 372 152 c 0,58,59
 460 70 460 70 607 65 c 1,60,-1
 607 730 l 1,52,53
EndSplineSet
EndChar

StartChar: sterling
Encoding: 163 163 100
Width: 1240
Flags: HW
LayerCount: 2
Fore
SplineSet
250 130 m 0,0,1
 250 182 250 182 290 216.5 c 128,-1,2
 330 251 330 251 390 251 c 0,3,4
 487 251 487 251 574 161 c 1,5,6
 586 184 586 184 586 229 c 0,7,8
 586 315 586 315 550 430 c 128,-1,9
 514 545 514 545 456 618 c 1,10,-1
 287 618 l 2,11,12
 276 618 276 618 269 630 c 128,-1,13
 262 642 262 642 262 658 c 0,14,15
 262 695 262 695 285 695 c 2,16,-1
 427 695 l 1,17,18
 423 705 423 705 398 755.5 c 128,-1,19
 373 806 373 806 363 841.5 c 128,-1,20
 353 877 353 877 353 921 c 0,21,22
 353 1036 353 1036 440 1110 c 128,-1,23
 527 1184 527 1184 649 1184 c 0,24,25
 747 1184 747 1184 809.5 1167.5 c 128,-1,26
 872 1151 872 1151 911 1104 c 0,27,28
 919 1095 919 1095 921 1092 c 128,-1,29
 923 1089 923 1089 927 1082 c 128,-1,30
 931 1075 931 1075 932 1069 c 128,-1,31
 933 1063 933 1063 933 1053 c 0,32,33
 933 1020 933 1020 908 998.5 c 128,-1,34
 883 977 883 977 849 977 c 0,35,36
 835 977 835 977 823.5 992 c 128,-1,37
 812 1007 812 1007 799.5 1028 c 128,-1,38
 787 1049 787 1049 770.5 1070 c 128,-1,39
 754 1091 754 1091 723 1106 c 128,-1,40
 692 1121 692 1121 651 1121 c 0,41,42
 573 1121 573 1121 515.5 1070.5 c 128,-1,43
 458 1020 458 1020 458 923 c 0,44,45
 458 833 458 833 522 695 c 1,46,-1
 757 695 l 2,47,48
 768 695 768 695 774.5 683.5 c 128,-1,49
 781 672 781 672 781 657 c 128,-1,50
 781 642 781 642 774 630 c 128,-1,51
 767 618 767 618 756 618 c 2,52,-1
 551 618 l 1,53,54
 554 609 554 609 588.5 545 c 128,-1,55
 623 481 623 481 648.5 407 c 128,-1,56
 674 333 674 333 674 263 c 0,57,58
 674 188 674 188 644 128 c 1,59,60
 698 84 698 84 749.5 68.5 c 128,-1,61
 801 53 801 53 872 53 c 0,62,63
 882 53 882 53 900 74.5 c 128,-1,64
 918 96 918 96 943.5 117.5 c 128,-1,65
 969 139 969 139 995 139 c 0,66,67
 1015 139 1015 139 1031 121 c 128,-1,68
 1047 103 1047 103 1047 82 c 0,69,70
 1047 55 1047 55 1034.5 36 c 128,-1,71
 1022 17 1022 17 1004 7 c 128,-1,72
 986 -3 986 -3 957.5 -8.5 c 128,-1,73
 929 -14 929 -14 905 -15.5 c 128,-1,74
 881 -17 881 -17 848 -17 c 0,75,76
 769 -17 769 -17 715.5 3 c 128,-1,77
 662 23 662 23 587 72 c 1,78,79
 495 -16 495 -16 395 -16 c 0,80,81
 332 -16 332 -16 291 23.5 c 128,-1,82
 250 63 250 63 250 130 c 0,0,1
404 48 m 0,83,84
 464 48 464 48 531 116 c 1,85,86
 453 191 453 191 396 191 c 0,87,88
 366 191 366 191 348.5 172 c 128,-1,89
 331 153 331 153 329 128 c 1,90,-1
 329 122 l 2,91,92
 329 90 329 90 349.5 69 c 128,-1,93
 370 48 370 48 404 48 c 0,83,84
EndSplineSet
EndChar

StartChar: currency
Encoding: 164 164 101
Width: 1240
Flags: HW
LayerCount: 2
Fore
SplineSet
459 358 m 1,0,-1
 371 271 l 2,1,2
 356 256 356 256 339 261 c 128,-1,3
 322 266 322 266 318 281.5 c 128,-1,4
 314 297 314 297 328 314 c 1,5,-1
 414 400 l 1,6,7
 361 465 361 465 361 558 c 0,8,9
 361 649 361 649 414 717 c 1,10,-1
 328 803 l 2,11,12
 313 818 313 818 318.5 835 c 128,-1,13
 324 852 324 852 340 855 c 128,-1,14
 356 858 356 858 372 845 c 1,15,-1
 457 760 l 1,16,17
 524 811 524 811 616 811 c 0,18,19
 710 811 710 811 774 760 c 1,20,-1
 858 843 l 2,21,22
 873 858 873 858 890.5 853 c 128,-1,23
 908 848 908 848 911.5 832 c 128,-1,24
 915 816 915 816 901 799 c 1,25,-1
 817 715 l 1,26,27
 863 650 863 650 863 563 c 0,28,29
 863 473 863 473 810 405 c 1,30,-1
 900 315 l 2,31,32
 915 300 915 300 910 283 c 128,-1,33
 905 266 905 266 889.5 262.5 c 128,-1,34
 874 259 874 259 857 273 c 1,35,-1
 768 362 l 1,36,37
 703 313 703 313 611 313 c 0,38,39
 522 313 522 313 459 358 c 1,0,-1
616 368 m 0,40,41
 704 368 704 368 752.5 422 c 128,-1,42
 801 476 801 476 801 560 c 0,43,44
 801 645 801 645 753 700.5 c 128,-1,45
 705 756 705 756 615 756 c 128,-1,46
 525 756 525 756 477.5 700.5 c 128,-1,47
 430 645 430 645 430 560 c 0,48,49
 430 478 430 478 479.5 423 c 128,-1,50
 529 368 529 368 616 368 c 0,40,41
EndSplineSet
EndChar

StartChar: yen
Encoding: 165 165 102
Width: 1240
Flags: HW
LayerCount: 2
Fore
SplineSet
956 578 m 2,0,1
 995 578 995 578 995 542 c 128,-1,2
 995 506 995 506 956 506 c 2,3,-1
 689 506 l 1,4,-1
 689 369 l 1,5,-1
 956 369 l 2,6,7
 995 369 995 369 995 333 c 128,-1,8
 995 297 995 297 956 297 c 2,9,-1
 689 297 l 1,10,-1
 689 86 l 1,11,-1
 921 86 l 2,12,13
 944 86 944 86 956.5 73.5 c 128,-1,14
 969 61 969 61 969 44 c 0,15,16
 969 26 969 26 955.5 13 c 128,-1,17
 942 0 942 0 919 0 c 2,18,-1
 334 0 l 2,19,20
 310 0 310 0 296 13 c 128,-1,21
 282 26 282 26 282 44 c 0,22,23
 282 61 282 61 295.5 73.5 c 128,-1,24
 309 86 309 86 332 86 c 2,25,-1
 593 86 l 1,26,-1
 593 297 l 1,27,-1
 318 297 l 2,28,29
 279 297 279 297 279 333 c 128,-1,30
 279 369 279 369 318 369 c 2,31,-1
 593 369 l 1,32,-1
 593 506 l 1,33,-1
 318 506 l 2,34,35
 279 506 279 506 279 542 c 128,-1,36
 279 578 279 578 318 578 c 2,37,-1
 578 578 l 1,38,-1
 258 1095 l 1,39,-1
 174 1095 l 2,40,41
 151 1095 151 1095 137.5 1106.5 c 128,-1,42
 124 1118 124 1118 124 1133 c 128,-1,43
 124 1148 124 1148 138 1159.5 c 128,-1,44
 152 1171 152 1171 175 1171 c 2,45,-1
 505 1171 l 2,46,47
 529 1171 529 1171 542.5 1159.5 c 128,-1,48
 556 1148 556 1148 556 1133 c 128,-1,49
 556 1118 556 1118 542.5 1106.5 c 128,-1,50
 529 1095 529 1095 506 1095 c 2,51,-1
 370 1095 l 1,52,-1
 646 633 l 1,53,-1
 914 1095 l 1,54,-1
 803 1095 l 2,55,56
 780 1095 780 1095 766.5 1106.5 c 128,-1,57
 753 1118 753 1118 753 1133 c 128,-1,58
 753 1148 753 1148 766.5 1159.5 c 128,-1,59
 780 1171 780 1171 804 1171 c 2,60,-1
 1065 1171 l 2,61,62
 1089 1171 1089 1171 1102.5 1159.5 c 128,-1,63
 1116 1148 1116 1148 1116 1132 c 0,64,65
 1116 1117 1116 1117 1103 1106 c 128,-1,66
 1090 1095 1090 1095 1067 1095 c 2,67,-1
 1012 1095 l 1,68,-1
 707 578 l 1,69,-1
 956 578 l 2,0,1
EndSplineSet
EndChar

StartChar: brokenbar
Encoding: 166 166 103
Width: 1240
Flags: HW
LayerCount: 2
Fore
SplineSet
664 -56 m 2,0,1
 664 -68 664 -68 651 -74.5 c 128,-1,2
 638 -81 638 -81 621 -81 c 0,3,4
 603 -81 603 -81 590 -74.5 c 128,-1,5
 577 -68 577 -68 577 -56 c 2,6,-1
 577 412 l 2,7,8
 577 427 577 427 590 435 c 128,-1,9
 603 443 603 443 621 443 c 0,10,11
 638 443 638 443 651 435 c 128,-1,12
 664 427 664 427 664 412 c 2,13,-1
 664 -56 l 2,0,1
664 704 m 2,14,15
 664 693 664 693 651 686 c 128,-1,16
 638 679 638 679 621 679 c 0,17,18
 603 679 603 679 590 686 c 128,-1,19
 577 693 577 693 577 704 c 2,20,-1
 577 1172 l 2,21,22
 577 1187 577 1187 590 1195 c 128,-1,23
 603 1203 603 1203 621 1203 c 0,24,25
 638 1203 638 1203 651 1195 c 128,-1,26
 664 1187 664 1187 664 1172 c 2,27,-1
 664 704 l 2,14,15
EndSplineSet
EndChar

StartChar: section
Encoding: 167 167 104
Width: 1240
Flags: HW
LayerCount: 2
Fore
SplineSet
428 1005 m 128,-1,1
 428 1086 428 1086 484.5 1138 c 128,-1,2
 541 1190 541 1190 627 1190 c 0,3,4
 707 1190 707 1190 773.5 1148 c 128,-1,5
 840 1106 840 1106 840 1041 c 0,6,7
 840 1023 840 1023 829 1012.5 c 128,-1,8
 818 1002 818 1002 800 1002 c 0,9,10
 763 1002 763 1002 753 1033 c 1,11,12
 721 1117 721 1117 631 1117 c 0,13,14
 586 1117 586 1117 553.5 1089.5 c 128,-1,15
 521 1062 521 1062 521 1020 c 0,16,17
 521 977 521 977 544 939 c 0,18,19
 574 888 574 888 652 807.5 c 128,-1,20
 730 727 730 727 746 707 c 0,21,22
 783 661 783 661 804 618 c 128,-1,23
 825 575 825 575 825 522 c 0,24,25
 825 464 825 464 801 415 c 128,-1,26
 777 366 777 366 734 346 c 1,27,28
 804 245 804 245 804 168 c 0,29,30
 804 86 804 86 748.5 34.5 c 128,-1,31
 693 -17 693 -17 607 -17 c 0,32,33
 527 -17 527 -17 460.5 24.5 c 128,-1,34
 394 66 394 66 394 131 c 0,35,36
 394 149 394 149 405.5 160 c 128,-1,37
 417 171 417 171 435 171 c 0,38,39
 470 171 470 171 481 140 c 0,40,41
 513 56 513 56 601 56 c 0,42,43
 647 56 647 56 679.5 83 c 128,-1,44
 712 110 712 110 712 152 c 0,45,46
 712 196 712 196 690 234 c 0,47,48
 660 285 660 285 583.5 363 c 128,-1,49
 507 441 507 441 488 465 c 0,50,51
 408 563 408 563 408 651 c 0,52,53
 408 709 408 709 432 758 c 128,-1,54
 456 807 456 807 500 827 c 1,55,0
 428 924 428 924 428 1005 c 128,-1,1
536 782 m 1,56,57
 498 751 498 751 498 690 c 0,58,59
 498 652 498 652 520 613 c 0,60,61
 541 576 541 576 569 540.5 c 128,-1,62
 597 505 597 505 639.5 457.5 c 128,-1,63
 682 410 682 410 698 391 c 1,64,65
 736 421 736 421 736 484 c 0,66,67
 736 520 736 520 713 560 c 0,68,69
 692 597 692 597 663.5 633 c 128,-1,70
 635 669 635 669 595 714 c 128,-1,71
 555 759 555 759 536 782 c 1,56,57
EndSplineSet
EndChar

StartChar: dieresis
Encoding: 168 168 105
Width: 1240
Flags: HW
LayerCount: 2
Fore
SplineSet
867 1143 m 0,0,1
 901 1143 901 1143 925 1119 c 128,-1,2
 949 1095 949 1095 949 1060 c 0,3,4
 949 1026 949 1026 925.5 1002 c 128,-1,5
 902 978 902 978 867 978 c 128,-1,6
 832 978 832 978 808 1002 c 128,-1,7
 784 1026 784 1026 784 1060 c 128,-1,8
 784 1094 784 1094 808 1118.5 c 128,-1,9
 832 1143 832 1143 867 1143 c 0,0,1
532 1143 m 128,-1,11
 566 1143 566 1143 590 1119 c 128,-1,12
 614 1095 614 1095 614 1060 c 0,13,14
 614 1026 614 1026 590 1002 c 128,-1,15
 566 978 566 978 532 978 c 0,16,17
 497 978 497 978 473 1002 c 128,-1,18
 449 1026 449 1026 449 1060 c 128,-1,19
 449 1094 449 1094 473.5 1118.5 c 128,-1,10
 498 1143 498 1143 532 1143 c 128,-1,11
EndSplineSet
EndChar

StartChar: copyright
Encoding: 169 169 106
Width: 1240
Flags: HW
LayerCount: 2
Fore
SplineSet
128 583 m 128,-1,1
 128 342 128 342 253.5 212.5 c 128,-1,2
 379 83 379 83 620 83 c 128,-1,3
 861 83 861 83 987 213 c 128,-1,4
 1113 343 1113 343 1113 583 c 0,5,6
 1113 825 1113 825 986.5 957 c 128,-1,7
 860 1089 860 1089 620 1089 c 128,-1,8
 380 1089 380 1089 254 956.5 c 128,-1,0
 128 824 128 824 128 583 c 128,-1,1
1193 581 m 0,9,10
 1193 310 1193 310 1042.5 161.5 c 128,-1,11
 892 13 892 13 620 13 c 128,-1,12
 348 13 348 13 198 161.5 c 128,-1,13
 48 310 48 310 48 581 c 0,14,15
 48 854 48 854 198.5 1006 c 128,-1,16
 349 1158 349 1158 620 1158 c 128,-1,17
 891 1158 891 1158 1042 1006 c 128,-1,18
 1193 854 1193 854 1193 581 c 0,9,10
923 443 m 0,19,20
 905 361 905 361 824.5 296.5 c 128,-1,21
 744 232 744 232 627 232 c 0,22,23
 478 232 478 232 385.5 331 c 128,-1,24
 293 430 293 430 293 596 c 0,25,26
 293 748 293 748 389.5 847 c 128,-1,27
 486 946 486 946 631 946 c 0,28,29
 702 946 702 946 759.5 915.5 c 128,-1,30
 817 885 817 885 842 839 c 1,31,-1
 842 909 l 2,32,33
 842 922 842 922 851.5 930 c 128,-1,34
 861 938 861 938 873 938 c 128,-1,35
 885 938 885 938 894 930 c 128,-1,36
 903 922 903 922 903 908 c 2,37,-1
 903 730 l 2,38,39
 903 717 903 717 894.5 710 c 128,-1,40
 886 703 886 703 875 703 c 0,41,42
 853 703 853 703 845 730 c 0,43,44
 798 884 798 884 631 884 c 0,45,46
 515 884 515 884 444 802.5 c 128,-1,47
 373 721 373 721 373 597 c 0,48,49
 373 457 373 457 443.5 377.5 c 128,-1,50
 514 298 514 298 627 298 c 0,51,52
 803 298 803 298 866 456 c 0,53,54
 875 476 875 476 894 476 c 0,55,56
 906 476 906 476 915 468.5 c 128,-1,57
 924 461 924 461 924 449 c 0,58,59
 924 448 924 448 923.5 446 c 128,-1,60
 923 444 923 444 923 443 c 0,19,20
EndSplineSet
EndChar

StartChar: guillemotleft
Encoding: 171 171 108
Width: 1240
Flags: HW
LayerCount: 2
Fore
SplineSet
918 216 m 2,0,-1
 574 475 l 2,1,2
 536 504 536 504 536 530 c 0,3,4
 536 557 536 557 574 586 c 2,5,-1
 908 841 l 2,6,7
 924 852 924 852 938 852 c 0,8,9
 955 852 955 852 966.5 841.5 c 128,-1,10
 978 831 978 831 978 816 c 0,11,12
 978 795 978 795 954 777 c 2,13,-1
 633 531 l 1,14,-1
 963 287 l 2,15,16
 994 264 994 264 994 238 c 0,17,18
 994 223 994 223 983 212.5 c 128,-1,19
 972 202 972 202 956 202 c 0,20,21
 936 202 936 202 918 216 c 2,0,-1
554 216 m 2,22,-1
 210 475 l 2,23,24
 172 504 172 504 172 530 c 0,25,26
 172 557 172 557 210 586 c 2,27,-1
 544 841 l 2,28,29
 560 852 560 852 574 852 c 0,30,31
 591 852 591 852 602.5 841.5 c 128,-1,32
 614 831 614 831 614 816 c 0,33,34
 614 795 614 795 590 777 c 2,35,-1
 269 531 l 1,36,-1
 599 287 l 2,37,38
 630 264 630 264 630 238 c 0,39,40
 630 223 630 223 619 212.5 c 128,-1,41
 608 202 608 202 592 202 c 0,42,43
 572 202 572 202 554 216 c 2,22,-1
EndSplineSet
EndChar

StartChar: logicalnot
Encoding: 172 172 109
Width: 1240
Flags: HW
LayerCount: 2
Fore
SplineSet
301 546 m 2,0,-1
 858 546 l 2,1,2
 918 546 918 546 918 488 c 2,3,-1
 918 214 l 2,4,5
 918 188 918 188 903 173 c 128,-1,6
 888 158 888 158 868 158 c 0,7,8
 849 158 849 158 835 171.5 c 128,-1,9
 821 185 821 185 821 210 c 2,10,-1
 821 460 l 1,11,-1
 301 460 l 2,12,13
 276 460 276 460 264 472 c 128,-1,14
 252 484 252 484 252 502 c 128,-1,15
 252 520 252 520 264 533 c 128,-1,16
 276 546 276 546 301 546 c 2,0,-1
EndSplineSet
EndChar

StartChar: uni00AD
Encoding: 173 173 110
Width: 1240
Flags: HW
LayerCount: 2
Fore
SplineSet
895 533 m 2,0,1
 916 533 916 533 928 520.5 c 128,-1,2
 940 508 940 508 940 490 c 0,3,4
 940 473 940 473 928 460 c 128,-1,5
 916 447 916 447 895 447 c 2,6,-1
 345 447 l 2,7,8
 324 447 324 447 312 460 c 128,-1,9
 300 473 300 473 300 490 c 0,10,11
 300 508 300 508 312 520.5 c 128,-1,12
 324 533 324 533 345 533 c 2,13,-1
 895 533 l 2,0,1
EndSplineSet
EndChar

StartChar: registered
Encoding: 174 174 111
Width: 1240
Flags: HW
LayerCount: 2
Fore
SplineSet
1193 581 m 0,0,1
 1193 310 1193 310 1042.5 161.5 c 128,-1,2
 892 13 892 13 620 13 c 128,-1,3
 348 13 348 13 198 161.5 c 128,-1,4
 48 310 48 310 48 581 c 0,5,6
 48 854 48 854 198.5 1006 c 128,-1,7
 349 1158 349 1158 620 1158 c 128,-1,8
 891 1158 891 1158 1042 1006 c 128,-1,9
 1193 854 1193 854 1193 581 c 0,0,1
128 583 m 128,-1,11
 128 342 128 342 253.5 212.5 c 128,-1,12
 379 83 379 83 620 83 c 128,-1,13
 861 83 861 83 987 213 c 128,-1,14
 1113 343 1113 343 1113 583 c 0,15,16
 1113 825 1113 825 986.5 957 c 128,-1,17
 860 1089 860 1089 620 1089 c 128,-1,18
 380 1089 380 1089 254 956.5 c 128,-1,10
 128 824 128 824 128 583 c 128,-1,11
514 623 m 1,19,-1
 573 624 l 2,20,21
 602 625 602 625 615 625.5 c 128,-1,22
 628 626 628 626 654.5 628.5 c 128,-1,23
 681 631 681 631 694.5 635.5 c 128,-1,24
 708 640 708 640 727 648.5 c 128,-1,25
 746 657 746 657 755.5 669.5 c 128,-1,26
 765 682 765 682 772 701 c 128,-1,27
 779 720 779 720 779 745 c 0,28,29
 779 780 779 780 769 804.5 c 128,-1,30
 759 829 759 829 743 843.5 c 128,-1,31
 727 858 727 858 698 865.5 c 128,-1,32
 669 873 669 873 639.5 875.5 c 128,-1,33
 610 878 610 878 564 878 c 2,34,-1
 514 878 l 1,35,-1
 514 623 l 1,19,-1
633 273 m 0,36,37
 633 263 633 263 625.5 254 c 128,-1,38
 618 245 618 245 605 245 c 2,39,-1
 380 245 l 2,40,41
 367 245 367 245 359 254 c 128,-1,42
 351 263 351 263 351 273 c 0,43,44
 351 284 351 284 358.5 292.5 c 128,-1,45
 366 301 366 301 379 301 c 2,46,-1
 443 301 l 1,47,-1
 443 878 l 1,48,-1
 395 878 l 2,49,50
 382 878 382 878 374.5 887 c 128,-1,51
 367 896 367 896 367 907 c 128,-1,52
 367 918 367 918 374.5 927.5 c 128,-1,53
 382 937 382 937 396 937 c 2,54,-1
 578 937 l 2,55,56
 645 937 645 937 690.5 930 c 128,-1,57
 736 923 736 923 774.5 903.5 c 128,-1,58
 813 884 813 884 832 845.5 c 128,-1,59
 851 807 851 807 851 749 c 0,60,61
 851 686 851 686 818.5 646 c 128,-1,62
 786 606 786 606 737 587 c 1,63,-1
 841 301 l 1,64,-1
 878 301 l 2,65,66
 915 301 915 301 915 274 c 0,67,68
 915 262 915 262 906.5 253.5 c 128,-1,69
 898 245 898 245 879 245 c 2,70,-1
 732 245 l 2,71,72
 718 245 718 245 710.5 254 c 128,-1,73
 703 263 703 263 703 274 c 0,74,75
 703 284 703 284 710 292.5 c 128,-1,76
 717 301 717 301 730 301 c 2,77,-1
 759 301 l 1,78,-1
 671 574 l 1,79,80
 666 572 666 572 624 568.5 c 128,-1,81
 582 565 582 565 561 565 c 2,82,-1
 514 565 l 1,83,-1
 514 301 l 1,84,-1
 605 301 l 2,85,86
 618 301 618 301 625.5 292.5 c 128,-1,87
 633 284 633 284 633 273 c 0,36,37
EndSplineSet
EndChar

StartChar: macron
Encoding: 175 175 112
Width: 1240
Flags: HW
LayerCount: 2
Fore
SplineSet
883 1033 m 2,0,-1
 521 1033 l 2,1,2
 470 1033 470 1033 470 1076 c 128,-1,3
 470 1119 470 1119 520 1119 c 2,4,-1
 881 1119 l 2,5,6
 930 1119 930 1119 930 1076 c 128,-1,7
 930 1033 930 1033 883 1033 c 2,0,-1
EndSplineSet
EndChar

StartChar: degree
Encoding: 176 176 113
Width: 1240
Flags: HW
LayerCount: 2
Fore
SplineSet
703 1121 m 0,0,1
 820 1121 820 1121 885 1047.5 c 128,-1,2
 950 974 950 974 950 873 c 128,-1,3
 950 772 950 772 883 697.5 c 128,-1,4
 816 623 816 623 698 623 c 128,-1,5
 580 623 580 623 514 695.5 c 128,-1,6
 448 768 448 768 448 868 c 0,7,8
 448 970 448 970 516 1045.5 c 128,-1,9
 584 1121 584 1121 703 1121 c 0,0,1
707 719 m 128,-1,11
 774 719 774 719 809.5 762 c 128,-1,12
 845 805 845 805 845 870 c 0,13,14
 845 936 845 936 808 980 c 128,-1,15
 771 1024 771 1024 702 1024 c 128,-1,16
 633 1024 633 1024 596.5 980 c 128,-1,17
 560 936 560 936 560 870 c 0,18,19
 560 807 560 807 600 763 c 128,-1,10
 640 719 640 719 707 719 c 128,-1,11
EndSplineSet
EndChar

StartChar: plusminus
Encoding: 177 177 114
Width: 1240
Flags: HW
LayerCount: 2
Fore
SplineSet
924 558 m 2,0,1
 967 558 967 558 967 517 c 128,-1,2
 967 476 967 476 924 476 c 2,3,-1
 669 476 l 1,4,-1
 669 235 l 2,5,6
 669 210 669 210 655 196.5 c 128,-1,7
 641 183 641 183 621 183 c 128,-1,8
 601 183 601 183 587 196.5 c 128,-1,9
 573 210 573 210 573 235 c 2,10,-1
 573 476 l 1,11,-1
 316 476 l 2,12,13
 273 476 273 476 273 517 c 0,14,15
 273 534 273 534 283.5 546 c 128,-1,16
 294 558 294 558 316 558 c 2,17,-1
 573 558 l 1,18,-1
 573 804 l 2,19,20
 573 829 573 829 587 842.5 c 128,-1,21
 601 856 601 856 621 856 c 128,-1,22
 641 856 641 856 655 842.5 c 128,-1,23
 669 829 669 829 669 804 c 2,24,-1
 669 558 l 1,25,-1
 924 558 l 2,0,1
316 82 m 2,26,-1
 924 82 l 2,27,28
 967 82 967 82 967 41 c 128,-1,29
 967 0 967 0 924 0 c 2,30,-1
 316 0 l 2,31,32
 273 0 273 0 273 41 c 128,-1,33
 273 82 273 82 316 82 c 2,26,-1
EndSplineSet
EndChar

StartChar: uni00B2
Encoding: 178 178 115
Width: 1240
Flags: HW
LayerCount: 2
Fore
SplineSet
821 1007 m 0,0,1
 821 950 821 950 791.5 898.5 c 128,-1,2
 762 847 762 847 718 805 c 128,-1,3
 674 763 674 763 628 722 c 128,-1,4
 582 681 582 681 543 628.5 c 128,-1,5
 504 576 504 576 491 520 c 1,6,-1
 772 520 l 1,7,-1
 779 624 l 2,8,9
 780 640 780 640 789 649.5 c 128,-1,10
 798 659 798 659 810 659 c 0,11,12
 837 659 837 659 837 619 c 2,13,-1
 837 495 l 2,14,15
 837 476 837 476 828 465.5 c 128,-1,16
 819 455 819 455 805 455 c 2,17,-1
 423 455 l 1,18,19
 419 473 419 473 419 484 c 0,20,21
 419 533 419 533 437.5 579.5 c 128,-1,22
 456 626 456 626 485 663.5 c 128,-1,23
 514 701 514 701 549 737 c 128,-1,24
 584 773 584 773 619.5 805.5 c 128,-1,25
 655 838 655 838 684 869.5 c 128,-1,26
 713 901 713 901 731.5 935 c 128,-1,27
 750 969 750 969 750 1001 c 0,28,29
 750 1064 750 1064 710.5 1098.5 c 128,-1,30
 671 1133 671 1133 609 1133 c 128,-1,31
 547 1133 547 1133 489 1101 c 1,32,33
 479 995 479 995 472 978 c 0,34,35
 465 962 465 962 450 962 c 0,36,37
 414 962 414 962 414 1025 c 0,38,39
 414 1102 414 1102 470.5 1144.5 c 128,-1,40
 527 1187 527 1187 606 1187 c 0,41,42
 692 1187 692 1187 756.5 1139 c 128,-1,43
 821 1091 821 1091 821 1007 c 0,0,1
EndSplineSet
EndChar

StartChar: uni00B3
Encoding: 179 179 116
Width: 1240
Flags: HW
LayerCount: 2
Fore
SplineSet
564 790 m 0,0,1
 536 790 536 790 536 818 c 0,2,3
 536 835 536 835 558 848 c 0,4,5
 575 858 575 858 609 878 c 128,-1,6
 643 898 643 898 657.5 907.5 c 128,-1,7
 672 917 672 917 695 934 c 128,-1,8
 718 951 718 951 727.5 963.5 c 128,-1,9
 737 976 737 976 745 994 c 128,-1,10
 753 1012 753 1012 753 1032 c 0,11,12
 753 1071 753 1071 724 1097.5 c 128,-1,13
 695 1124 695 1124 638 1124 c 0,14,15
 597 1124 597 1124 570 1117.5 c 128,-1,16
 543 1111 543 1111 531.5 1101.5 c 128,-1,17
 520 1092 520 1092 511.5 1082 c 128,-1,18
 503 1072 503 1072 491 1065.5 c 128,-1,19
 479 1059 479 1059 460 1059 c 0,20,21
 446 1059 446 1059 438 1066.5 c 128,-1,22
 430 1074 430 1074 430 1084 c 0,23,24
 430 1115 430 1115 469 1140 c 128,-1,25
 508 1165 508 1165 555 1176 c 128,-1,26
 602 1187 602 1187 640 1187 c 0,27,28
 719 1187 719 1187 771 1145.5 c 128,-1,29
 823 1104 823 1104 823 1032 c 0,30,31
 823 925 823 925 659 845 c 1,32,33
 758 841 758 841 813 783 c 128,-1,34
 868 725 868 725 868 633 c 0,35,36
 868 522 868 522 788.5 450 c 128,-1,37
 709 378 709 378 592 378 c 0,38,39
 522 378 522 378 461 405 c 128,-1,40
 400 432 400 432 400 465 c 0,41,42
 400 473 400 473 408.5 481.5 c 128,-1,43
 417 490 417 490 429 490 c 0,44,45
 453 490 453 490 471 478 c 128,-1,46
 489 466 489 466 517 454 c 128,-1,47
 545 442 545 442 594 442 c 0,48,49
 687 442 687 442 742.5 496.5 c 128,-1,50
 798 551 798 551 798 637 c 0,51,52
 798 711 798 711 753 753.5 c 128,-1,53
 708 796 708 796 631 796 c 0,54,55
 620 796 620 796 593.5 793 c 128,-1,56
 567 790 567 790 564 790 c 0,0,1
EndSplineSet
EndChar

StartChar: acute
Encoding: 180 180 117
Width: 1240
Flags: HW
LayerCount: 2
Fore
SplineSet
858 1216 m 2,0,-1
 536 982 l 2,1,2
 532 978 532 978 525 978 c 0,3,4
 516 978 516 978 508.5 984.5 c 128,-1,5
 501 991 501 991 501 1000 c 0,6,7
 501 1008 501 1008 508 1015 c 2,8,-1
 779 1291 l 2,9,10
 793 1305 793 1305 810 1305 c 0,11,12
 833 1305 833 1305 852.5 1285 c 128,-1,13
 872 1265 872 1265 872 1244 c 0,14,15
 872 1226 872 1226 858 1216 c 2,0,-1
EndSplineSet
EndChar

StartChar: paragraph
Encoding: 182 182 118
Width: 1240
Flags: HW
LayerCount: 2
Fore
SplineSet
636 82 m 1,0,-1
 794 82 l 1,1,-1
 794 1089 l 1,2,-1
 636 1089 l 1,3,-1
 636 82 l 1,0,-1
890 1171 m 1,4,-1
 892 82 l 1,5,-1
 1073 82 l 2,6,7
 1092 82 1092 82 1102 70.5 c 128,-1,8
 1112 59 1112 59 1112 43 c 0,9,10
 1112 26 1112 26 1101 13 c 128,-1,11
 1090 0 1090 0 1071 0 c 2,12,-1
 333 0 l 2,13,14
 314 0 314 0 303 13 c 128,-1,15
 292 26 292 26 292 43 c 0,16,17
 292 59 292 59 302 70.5 c 128,-1,18
 312 82 312 82 331 82 c 2,19,-1
 540 82 l 1,20,-1
 540 611 l 1,21,22
 446 611 446 611 374 654.5 c 128,-1,23
 302 698 302 698 267 763.5 c 128,-1,24
 232 829 232 829 232 903 c 0,25,26
 232 1014 232 1014 314.5 1092.5 c 128,-1,27
 397 1171 397 1171 554 1171 c 2,28,-1
 890 1171 l 1,4,-1
EndSplineSet
EndChar

StartChar: cedilla
Encoding: 184 184 119
Width: 1240
Flags: HW
LayerCount: 2
Fore
SplineSet
180 0 m 1,0,-1
 139 -321 l 2,1,2
 134 -363 134 -363 116.5 -382 c 128,-1,3
 99 -401 99 -401 77 -401 c 0,4,5
 54 -401 54 -401 41 -386.5 c 128,-1,6
 28 -372 28 -372 28 -347 c 0,7,8
 28 -330 28 -330 36 -306 c 2,9,-1
 143 0 l 1,10,-1
 180 0 l 1,0,-1
EndSplineSet
EndChar

StartChar: uni00B9
Encoding: 185 185 120
Width: 1240
Flags: HW
LayerCount: 2
Fore
SplineSet
658 1140 m 2,0,-1
 658 455 l 1,1,-1
 764 455 l 2,2,3
 777 455 777 455 784.5 446 c 128,-1,4
 792 437 792 437 792 425 c 128,-1,5
 792 413 792 413 784.5 404.5 c 128,-1,6
 777 396 777 396 763 396 c 2,7,-1
 468 396 l 2,8,9
 452 396 452 396 443 405 c 128,-1,10
 434 414 434 414 434 426 c 0,11,12
 434 437 434 437 442.5 446 c 128,-1,13
 451 455 451 455 465 455 c 2,14,-1
 589 455 l 1,15,-1
 589 1096 l 1,16,-1
 465 1041 l 2,17,18
 459 1038 459 1038 453 1038 c 0,19,20
 441 1038 441 1038 432.5 1048 c 128,-1,21
 424 1058 424 1058 424 1070 c 0,22,23
 424 1088 424 1088 441 1095 c 2,24,-1
 614 1171 l 2,25,26
 620 1174 620 1174 628 1174 c 0,27,28
 658 1174 658 1174 658 1140 c 2,0,-1
EndSplineSet
EndChar

StartChar: ordmasculine
Encoding: 186 186 121
Width: 1240
Flags: HW
LayerCount: 2
Fore
SplineSet
702 451 m 0,0,1
 617 451 617 451 569.5 397 c 128,-1,2
 522 343 522 343 522 255 c 0,3,4
 522 166 522 166 569.5 111.5 c 128,-1,5
 617 57 617 57 702 57 c 0,6,7
 785 57 785 57 831.5 112.5 c 128,-1,8
 878 168 878 168 878 255 c 128,-1,9
 878 342 878 342 831.5 396.5 c 128,-1,10
 785 451 785 451 702 451 c 0,0,1
702 -20 m 0,11,12
 576 -20 576 -20 498.5 55 c 128,-1,13
 421 130 421 130 421 255 c 0,14,15
 421 381 421 381 498.5 455 c 128,-1,16
 576 529 576 529 702 529 c 0,17,18
 826 529 826 529 901.5 454 c 128,-1,19
 977 379 977 379 977 255 c 128,-1,20
 977 131 977 131 901.5 55.5 c 128,-1,21
 826 -20 826 -20 702 -20 c 0,11,12
EndSplineSet
EndChar

StartChar: guillemotright
Encoding: 187 187 122
Width: 1240
Flags: HW
LayerCount: 2
Fore
SplineSet
270 831 m 2,0,-1
 614 572 l 2,1,2
 652 543 652 543 652 517 c 0,3,4
 652 490 652 490 614 461 c 2,5,-1
 280 206 l 2,6,7
 264 195 264 195 250 195 c 0,8,9
 233 195 233 195 221.5 205.5 c 128,-1,10
 210 216 210 216 210 231 c 0,11,12
 210 252 210 252 234 270 c 2,13,-1
 555 516 l 1,14,-1
 225 760 l 2,15,16
 194 783 194 783 194 809 c 0,17,18
 194 824 194 824 205 834.5 c 128,-1,19
 216 845 216 845 232 845 c 0,20,21
 252 845 252 845 270 831 c 2,0,-1
634 831 m 2,22,-1
 978 572 l 2,23,24
 1016 543 1016 543 1016 517 c 0,25,26
 1016 490 1016 490 978 461 c 2,27,-1
 644 206 l 2,28,29
 628 195 628 195 614 195 c 0,30,31
 597 195 597 195 585.5 205.5 c 128,-1,32
 574 216 574 216 574 231 c 0,33,34
 574 252 574 252 598 270 c 2,35,-1
 919 516 l 1,36,-1
 589 760 l 2,37,38
 558 783 558 783 558 809 c 0,39,40
 558 824 558 824 569 834.5 c 128,-1,41
 580 845 580 845 596 845 c 0,42,43
 616 845 616 845 634 831 c 2,22,-1
EndSplineSet
EndChar

StartChar: onequarter
Encoding: 188 188 123
Width: 1240
Flags: HW
LayerCount: 2
Fore
SplineSet
322 79 m 2,0,-1
 934 1099 l 2,1,2
 943 1115 943 1115 961 1115 c 0,3,4
 975 1115 975 1115 985.5 1107 c 128,-1,5
 996 1099 996 1099 996 1086 c 0,6,7
 996 1078 996 1078 992 1070 c 2,8,-1
 382 52 l 2,9,10
 371 34 371 34 354 34 c 0,11,12
 340 34 340 34 329.5 43 c 128,-1,13
 319 52 319 52 319 65 c 0,14,15
 319 74 319 74 322 79 c 2,0,-1
961 667 m 1,16,-1
 743 301 l 1,17,-1
 961 301 l 1,18,-1
 961 667 l 1,16,-1
786 1 m 2,19,20
 773 1 773 1 766 10 c 128,-1,21
 759 19 759 19 759 32 c 0,22,23
 759 44 759 44 766 53.5 c 128,-1,24
 773 63 773 63 785 63 c 2,25,-1
 961 63 l 1,26,-1
 961 245 l 1,27,-1
 690 245 l 2,28,29
 679 245 679 245 669.5 255.5 c 128,-1,30
 660 266 660 266 660 279 c 0,31,32
 660 288 660 288 668 301 c 2,33,-1
 977 794 l 1,34,35
 982 804 982 804 1005 804 c 0,36,37
 1036 804 1036 804 1036 762 c 2,38,-1
 1036 301 l 1,39,-1
 1155 301 l 2,40,41
 1168 301 1168 301 1175 292.5 c 128,-1,42
 1182 284 1182 284 1182 273 c 128,-1,43
 1182 262 1182 262 1174 253.5 c 128,-1,44
 1166 245 1166 245 1153 245 c 2,45,-1
 1036 245 l 1,46,-1
 1036 63 l 1,47,-1
 1160 63 l 2,48,49
 1173 63 1173 63 1180.5 54 c 128,-1,50
 1188 45 1188 45 1188 33 c 0,51,52
 1188 20 1188 20 1180 10.5 c 128,-1,53
 1172 1 1172 1 1159 1 c 2,54,-1
 786 1 l 2,19,20
269 1085 m 2,55,-1
 269 399 l 1,56,-1
 375 399 l 2,57,58
 388 399 388 399 395.5 390.5 c 128,-1,59
 403 382 403 382 403 370 c 128,-1,60
 403 358 403 358 395.5 349 c 128,-1,61
 388 340 388 340 374 340 c 2,62,-1
 78 340 l 2,63,64
 62 340 62 340 53.5 349.5 c 128,-1,65
 45 359 45 359 45 371 c 0,66,67
 45 382 45 382 53 390.5 c 128,-1,68
 61 399 61 399 75 399 c 2,69,-1
 199 399 l 1,70,-1
 199 1041 l 1,71,-1
 76 985 l 2,72,73
 70 982 70 982 64 982 c 0,74,75
 52 982 52 982 43 992.5 c 128,-1,76
 34 1003 34 1003 34 1015 c 0,77,78
 34 1033 34 1033 51 1040 c 2,79,-1
 225 1116 l 2,80,81
 231 1119 231 1119 239 1119 c 0,82,83
 269 1119 269 1119 269 1085 c 2,55,-1
EndSplineSet
EndChar

StartChar: onehalf
Encoding: 189 189 124
Width: 1240
Flags: HW
LayerCount: 2
Fore
SplineSet
295 79 m 2,0,-1
 907 1099 l 2,1,2
 916 1115 916 1115 934 1115 c 0,3,4
 948 1115 948 1115 958.5 1107 c 128,-1,5
 969 1099 969 1099 969 1086 c 0,6,7
 969 1078 969 1078 965 1070 c 2,8,-1
 355 52 l 2,9,10
 344 34 344 34 327 34 c 0,11,12
 313 34 313 34 302.5 43 c 128,-1,13
 292 52 292 52 292 65 c 0,14,15
 292 74 292 74 295 79 c 2,0,-1
269 1085 m 2,16,-1
 269 399 l 1,17,-1
 375 399 l 2,18,19
 388 399 388 399 395.5 390.5 c 128,-1,20
 403 382 403 382 403 370 c 128,-1,21
 403 358 403 358 395.5 349 c 128,-1,22
 388 340 388 340 374 340 c 2,23,-1
 78 340 l 2,24,25
 62 340 62 340 53.5 349.5 c 128,-1,26
 45 359 45 359 45 371 c 0,27,28
 45 382 45 382 53 390.5 c 128,-1,29
 61 399 61 399 75 399 c 2,30,-1
 199 399 l 1,31,-1
 199 1041 l 1,32,-1
 76 985 l 2,33,34
 70 982 70 982 64 982 c 0,35,36
 52 982 52 982 43 992.5 c 128,-1,37
 34 1003 34 1003 34 1015 c 0,38,39
 34 1033 34 1033 51 1040 c 2,40,-1
 225 1116 l 2,41,42
 231 1119 231 1119 239 1119 c 0,43,44
 269 1119 269 1119 269 1085 c 2,16,-1
1167 552 m 0,45,46
 1167 495 1167 495 1137.5 443.5 c 128,-1,47
 1108 392 1108 392 1064 350 c 128,-1,48
 1020 308 1020 308 974 267 c 128,-1,49
 928 226 928 226 889 173.5 c 128,-1,50
 850 121 850 121 837 65 c 1,51,-1
 1118 65 l 1,52,-1
 1125 169 l 2,53,54
 1126 185 1126 185 1135 194.5 c 128,-1,55
 1144 204 1144 204 1156 204 c 0,56,57
 1183 204 1183 204 1183 164 c 2,58,-1
 1183 40 l 2,59,60
 1183 21 1183 21 1174 10.5 c 128,-1,61
 1165 0 1165 0 1151 0 c 2,62,-1
 769 0 l 1,63,64
 765 18 765 18 765 29 c 0,65,66
 765 78 765 78 783.5 124.5 c 128,-1,67
 802 171 802 171 831 208.5 c 128,-1,68
 860 246 860 246 895 282 c 128,-1,69
 930 318 930 318 965.5 350.5 c 128,-1,70
 1001 383 1001 383 1030 414.5 c 128,-1,71
 1059 446 1059 446 1077.5 480 c 128,-1,72
 1096 514 1096 514 1096 546 c 0,73,74
 1096 609 1096 609 1056.5 644 c 128,-1,75
 1017 679 1017 679 955 679 c 0,76,77
 895 679 895 679 835 646 c 1,78,79
 825 540 825 540 818 523 c 0,80,81
 811 507 811 507 796 507 c 0,82,83
 760 507 760 507 760 570 c 0,84,85
 760 647 760 647 816.5 689.5 c 128,-1,86
 873 732 873 732 952 732 c 0,87,88
 1038 732 1038 732 1102.5 684 c 128,-1,89
 1167 636 1167 636 1167 552 c 0,45,46
EndSplineSet
EndChar

StartChar: threequarters
Encoding: 190 190 125
Width: 1240
Flags: HW
LayerCount: 2
Fore
SplineSet
180 725 m 0,0,1
 152 725 152 725 152 753 c 0,2,3
 152 770 152 770 174 783 c 0,4,5
 190 793 190 793 224.5 813.5 c 128,-1,6
 259 834 259 834 273 843 c 128,-1,7
 287 852 287 852 310 869 c 128,-1,8
 333 886 333 886 342.5 898.5 c 128,-1,9
 352 911 352 911 360 929 c 128,-1,10
 368 947 368 947 368 967 c 0,11,12
 368 1006 368 1006 339.5 1032.5 c 128,-1,13
 311 1059 311 1059 254 1059 c 0,14,15
 213 1059 213 1059 186 1052.5 c 128,-1,16
 159 1046 159 1046 147.5 1036 c 128,-1,17
 136 1026 136 1026 128 1016.5 c 128,-1,18
 120 1007 120 1007 108 1000.5 c 128,-1,19
 96 994 96 994 76 994 c 0,20,21
 62 994 62 994 54 1001.5 c 128,-1,22
 46 1009 46 1009 46 1019 c 0,23,24
 46 1050 46 1050 85 1075 c 128,-1,25
 124 1100 124 1100 171 1111 c 128,-1,26
 218 1122 218 1122 256 1122 c 0,27,28
 335 1122 335 1122 387 1080.5 c 128,-1,29
 439 1039 439 1039 439 967 c 0,30,31
 439 860 439 860 275 780 c 1,32,33
 374 776 374 776 429 718 c 128,-1,34
 484 660 484 660 484 568 c 0,35,36
 484 457 484 457 404.5 385 c 128,-1,37
 325 313 325 313 208 313 c 0,38,39
 138 313 138 313 77 340 c 128,-1,40
 16 367 16 367 16 400 c 0,41,42
 16 408 16 408 24.5 416.5 c 128,-1,43
 33 425 33 425 45 425 c 0,44,45
 69 425 69 425 87 413 c 128,-1,46
 105 401 105 401 133 389 c 128,-1,47
 161 377 161 377 210 377 c 0,48,49
 303 377 303 377 358 431.5 c 128,-1,50
 413 486 413 486 413 572 c 0,51,52
 413 646 413 646 368.5 688.5 c 128,-1,53
 324 731 324 731 247 731 c 0,54,55
 236 731 236 731 209.5 728 c 128,-1,56
 183 725 183 725 180 725 c 0,0,1
341 79 m 2,57,-1
 953 1099 l 2,58,59
 962 1115 962 1115 980 1115 c 0,60,61
 994 1115 994 1115 1004.5 1107 c 128,-1,62
 1015 1099 1015 1099 1015 1086 c 0,63,64
 1015 1078 1015 1078 1011 1070 c 2,65,-1
 401 52 l 2,66,67
 390 34 390 34 373 34 c 0,68,69
 359 34 359 34 348.5 43 c 128,-1,70
 338 52 338 52 338 65 c 0,71,72
 338 74 338 74 341 79 c 2,57,-1
985 667 m 1,73,-1
 767 301 l 1,74,-1
 985 301 l 1,75,-1
 985 667 l 1,73,-1
810 1 m 2,76,77
 797 1 797 1 790 10 c 128,-1,78
 783 19 783 19 783 32 c 0,79,80
 783 44 783 44 790 53.5 c 128,-1,81
 797 63 797 63 809 63 c 2,82,-1
 985 63 l 1,83,-1
 985 245 l 1,84,-1
 714 245 l 2,85,86
 703 245 703 245 693.5 255.5 c 128,-1,87
 684 266 684 266 684 279 c 0,88,89
 684 288 684 288 692 301 c 2,90,-1
 1001 794 l 1,91,92
 1006 804 1006 804 1029 804 c 0,93,94
 1060 804 1060 804 1060 762 c 2,95,-1
 1060 301 l 1,96,-1
 1179 301 l 2,97,98
 1192 301 1192 301 1199 292.5 c 128,-1,99
 1206 284 1206 284 1206 273 c 128,-1,100
 1206 262 1206 262 1198 253.5 c 128,-1,101
 1190 245 1190 245 1177 245 c 2,102,-1
 1060 245 l 1,103,-1
 1060 63 l 1,104,-1
 1184 63 l 2,105,106
 1197 63 1197 63 1204.5 54 c 128,-1,107
 1212 45 1212 45 1212 33 c 0,108,109
 1212 20 1212 20 1204 10.5 c 128,-1,110
 1196 1 1196 1 1183 1 c 2,111,-1
 810 1 l 2,76,77
EndSplineSet
EndChar

StartChar: AE
Encoding: 198 198 133
Width: 1240
Flags: HW
LayerCount: 2
Fore
SplineSet
642 475 m 1,0,-1
 642 1085 l 1,1,-1
 545 1085 l 1,2,-1
 354 475 l 1,3,-1
 642 475 l 1,0,-1
88 0 m 2,4,5
 64 0 64 0 51 12.5 c 128,-1,6
 38 25 38 25 38 43 c 0,7,8
 38 60 38 60 51 73 c 128,-1,9
 64 86 64 86 87 86 c 2,10,-1
 138 86 l 1,11,-1
 463 1085 l 1,12,-1
 301 1085 l 2,13,14
 277 1085 277 1085 264 1097.5 c 128,-1,15
 251 1110 251 1110 251 1128 c 0,16,17
 251 1145 251 1145 264 1158 c 128,-1,18
 277 1171 277 1171 300 1171 c 2,19,-1
 1050 1171 l 2,20,21
 1075 1171 1075 1171 1090.5 1156.5 c 128,-1,22
 1106 1142 1106 1142 1106 1117 c 2,23,-1
 1106 893 l 2,24,25
 1106 872 1106 872 1094 860.5 c 128,-1,26
 1082 849 1082 849 1066 849 c 128,-1,27
 1050 849 1050 849 1039 859 c 128,-1,28
 1028 869 1028 869 1027 887 c 2,29,-1
 1013 1085 l 1,30,-1
 729 1085 l 1,31,-1
 729 637 l 1,32,-1
 871 637 l 1,33,-1
 884 740 l 2,34,35
 886 761 886 761 897.5 773 c 128,-1,36
 909 785 909 785 924 785 c 0,37,38
 940 785 940 785 951 771.5 c 128,-1,39
 962 758 962 758 962 732 c 2,40,-1
 962 460 l 2,41,42
 962 435 962 435 951 422 c 128,-1,43
 940 409 940 409 924 409 c 0,44,45
 909 409 909 409 897 420.5 c 128,-1,46
 885 432 885 432 884 452 c 1,47,-1
 871 560 l 1,48,-1
 729 560 l 1,49,-1
 729 85 l 1,50,-1
 1016 85 l 1,51,-1
 1032 296 l 2,52,53
 1033 313 1033 313 1045 324 c 128,-1,54
 1057 335 1057 335 1073 335 c 0,55,56
 1090 335 1090 335 1102.5 321.5 c 128,-1,57
 1115 308 1115 308 1115 283 c 2,58,-1
 1115 53 l 2,59,60
 1115 28 1115 28 1099.5 14 c 128,-1,61
 1084 0 1084 0 1059 0 c 2,62,-1
 613 0 l 2,63,64
 589 0 589 0 575.5 13 c 128,-1,65
 562 26 562 26 562 43 c 128,-1,66
 562 60 562 60 575.5 72.5 c 128,-1,67
 589 85 589 85 612 85 c 2,68,-1
 642 85 l 1,69,-1
 642 392 l 1,70,-1
 327 392 l 1,71,-1
 231 86 l 1,72,-1
 398 86 l 2,73,74
 421 86 421 86 434.5 73 c 128,-1,75
 448 60 448 60 448 43 c 0,76,77
 448 25 448 25 434.5 12.5 c 128,-1,78
 421 0 421 0 397 0 c 2,79,-1
 88 0 l 2,4,5
EndSplineSet
EndChar

StartChar: Eth
Encoding: 208 208 143
Width: 1240
Flags: HW
LayerCount: 2
Fore
SplineSet
978 591 m 0,0,1
 978 830 978 830 865 957.5 c 128,-1,2
 752 1085 752 1085 534 1085 c 2,3,-1
 420 1085 l 1,4,-1
 420 648 l 1,5,-1
 607 648 l 2,6,7
 646 648 646 648 646 611 c 0,8,9
 646 572 646 572 605 572 c 2,10,-1
 420 572 l 1,11,-1
 420 86 l 1,12,-1
 520 86 l 2,13,14
 763 86 763 86 870.5 210 c 128,-1,15
 978 334 978 334 978 591 c 0,0,1
172 572 m 2,16,17
 126 572 126 572 126 611 c 0,18,19
 126 648 126 648 168 648 c 2,20,-1
 314 648 l 1,21,-1
 314 1085 l 1,22,-1
 155 1085 l 2,23,24
 132 1085 132 1085 119.5 1097.5 c 128,-1,25
 107 1110 107 1110 107 1127 c 0,26,27
 107 1145 107 1145 120.5 1158 c 128,-1,28
 134 1171 134 1171 157 1171 c 2,29,-1
 515 1171 l 2,30,31
 782 1171 782 1171 933 1027 c 128,-1,32
 1084 883 1084 883 1084 591 c 0,33,34
 1084 283 1084 283 938.5 141.5 c 128,-1,35
 793 0 793 0 513 0 c 2,36,-1
 152 0 l 2,37,38
 128 0 128 0 114.5 12.5 c 128,-1,39
 101 25 101 25 101 43 c 0,40,41
 101 60 101 60 114.5 73 c 128,-1,42
 128 86 128 86 151 86 c 2,43,-1
 314 86 l 1,44,-1
 314 572 l 1,45,-1
 172 572 l 2,16,17
EndSplineSet
EndChar

StartChar: multiply
Encoding: 215 215 150
Width: 1240
Flags: HW
LayerCount: 2
Fore
SplineSet
919 757 m 0,0,1
 939 757 939 757 954 742 c 128,-1,2
 969 727 969 727 969 707 c 0,3,4
 969 686 969 686 954 671 c 2,5,-1
 770 488 l 1,6,-1
 954 303 l 2,7,8
 969 288 969 288 969 268 c 128,-1,9
 969 248 969 248 954 233 c 128,-1,10
 939 218 939 218 919 218 c 0,11,12
 898 218 898 218 883 233 c 2,13,-1
 699 417 l 1,14,-1
 516 233 l 2,15,16
 501 218 501 218 480 218 c 0,17,18
 460 218 460 218 445 233 c 128,-1,19
 430 248 430 248 430 268 c 128,-1,20
 430 288 430 288 445 303 c 2,21,-1
 628 488 l 1,22,-1
 445 671 l 2,23,24
 430 686 430 686 430 707 c 0,25,26
 430 727 430 727 445 742 c 128,-1,27
 460 757 460 757 480 757 c 0,28,29
 501 757 501 757 516 742 c 2,30,-1
 699 558 l 1,31,-1
 883 742 l 2,32,33
 898 757 898 757 919 757 c 0,0,1
EndSplineSet
EndChar

StartChar: Oslash
Encoding: 216 216 151
Width: 1240
Flags: HW
LayerCount: 2
Fore
SplineSet
620 1101 m 128,-1,1
 540 1101 540 1101 471 1072 c 128,-1,2
 402 1043 402 1043 354 993 c 128,-1,3
 306 943 306 943 271.5 877 c 128,-1,4
 237 811 237 811 220.5 736 c 128,-1,5
 204 661 204 661 204 582 c 0,6,7
 204 484 204 484 230.5 393.5 c 0,8,9
 256 303 256 303 306 230 c 0,10,11
 337 184 337 184 381 150 c 1,12,-1
 835 1037 l 1,13,14
 805 1058 805 1058 769 1072 c 0,15,0
 700 1101 700 1101 620 1101 c 128,-1,1
295 -172 m 1,16,17
 286 -192 286 -192 265 -192 c 0,18,19
 250 -192 250 -192 238 -181.5 c 128,-1,20
 226 -171 226 -171 226 -158 c 0,21,22
 226 -152 226 -152 229 -146 c 2,23,-1
 339 69 l 1,24,25
 278 112 278 112 236 170 c 0,26,27
 174 255 174 255 141 361 c 128,-1,28
 108 467 108 467 108 582 c 128,-1,29
 108 697 108 697 141 804 c 128,-1,30
 174 911 174 911 235.5 997 c 128,-1,31
 297 1083 297 1083 397 1135 c 128,-1,32
 497 1187 497 1187 620 1187 c 128,-1,33
 743 1187 743 1187 843 1135 c 0,34,35
 860 1126 860 1126 876 1117 c 1,36,-1
 972 1305 l 2,37,38
 981 1321 981 1321 999 1321 c 0,39,40
 1013 1321 1013 1321 1025 1312 c 128,-1,41
 1037 1303 1037 1303 1037 1289 c 0,42,43
 1037 1281 1037 1281 1033 1274 c 2,44,-1
 932 1076 l 1,45,46
 972 1041 972 1041 1004 997 c 0,47,48
 1066 911 1066 911 1099 804 c 128,-1,49
 1132 697 1132 697 1132 582 c 128,-1,50
 1132 467 1132 467 1099 361 c 128,-1,51
 1066 255 1066 255 1004.5 170 c 128,-1,52
 943 85 943 85 843 34 c 128,-1,53
 743 -17 743 -17 620 -17 c 0,54,55
 499 -17 499 -17 399 33 c 1,56,-1
 295 -172 l 1,16,17
440 112 m 1,57,58
 521 69 521 69 620 69 c 0,59,60
 721 69 721 69 802.5 113 c 128,-1,61
 884 157 884 157 933.5 230 c 128,-1,62
 983 303 983 303 1009.5 393.5 c 128,-1,63
 1036 484 1036 484 1036 582 c 0,64,65
 1036 661 1036 661 1019.5 736 c 0,66,67
 1002 811 1002 811 968 877 c 0,68,69
 934 941 934 941 888 991 c 1,70,-1
 440 112 l 1,57,58
EndSplineSet
EndChar

StartChar: Thorn
Encoding: 222 222 157
Width: 1240
Flags: HW
LayerCount: 2
Fore
SplineSet
1067 619 m 0,0,1
 1067 557 1067 557 1045.5 508.5 c 128,-1,2
 1024 460 1024 460 993.5 429 c 128,-1,3
 963 398 963 398 907 376 c 128,-1,4
 851 354 851 354 805.5 342.5 c 128,-1,5
 760 331 760 331 683 325.5 c 128,-1,6
 606 320 606 320 559 319 c 128,-1,7
 512 318 512 318 429 318 c 1,8,-1
 429 82 l 1,9,-1
 656 82 l 2,10,11
 695 82 695 82 695 41 c 128,-1,12
 695 0 695 0 655 0 c 2,13,-1
 109 0 l 2,14,15
 68 0 68 0 68 41 c 128,-1,16
 68 82 68 82 108 82 c 2,17,-1
 333 82 l 1,18,-1
 333 1085 l 1,19,-1
 121 1085 l 2,20,21
 82 1085 82 1085 82 1127 c 0,22,23
 82 1171 82 1171 123 1171 c 2,24,-1
 600 1171 l 2,25,26
 631 1171 631 1171 631 1130 c 0,27,28
 631 1085 631 1085 592 1085 c 2,29,-1
 429 1085 l 1,30,-1
 429 928 l 1,31,32
 518 928 518 928 565 927 c 128,-1,33
 612 926 612 926 691 920.5 c 128,-1,34
 770 915 770 915 813.5 903.5 c 128,-1,35
 857 892 857 892 913 869.5 c 128,-1,36
 969 847 969 847 997.5 815 c 128,-1,37
 1026 783 1026 783 1046.5 733 c 128,-1,38
 1067 683 1067 683 1067 619 c 0,0,1
971 626 m 0,39,40
 971 716 971 716 923.5 763.5 c 128,-1,41
 876 811 876 811 761.5 831 c 128,-1,42
 647 851 647 851 429 851 c 1,43,-1
 429 392 l 1,44,45
 740 392 740 392 855.5 438.5 c 128,-1,46
 971 485 971 485 971 626 c 0,39,40
EndSplineSet
EndChar

StartChar: germandbls
Encoding: 223 223 158
Width: 1240
Flags: HW
LayerCount: 2
Fore
SplineSet
928 894 m 0,0,1
 928 801 928 801 866 733.5 c 128,-1,2
 804 666 804 666 725 643 c 1,3,4
 790 630 790 630 843.5 608 c 128,-1,5
 897 586 897 586 946.5 549 c 128,-1,6
 996 512 996 512 1024 453 c 128,-1,7
 1052 394 1052 394 1052 318 c 0,8,9
 1052 50 1052 50 724 0 c 0,10,11
 719 -1 719 -1 710 -1 c 0,12,13
 688 -1 688 -1 675.5 11 c 128,-1,14
 663 23 663 23 663 44 c 0,15,16
 663 58 663 58 671 65.5 c 128,-1,17
 679 73 679 73 688 75.5 c 128,-1,18
 697 78 697 78 724 82 c 0,19,20
 772 89 772 89 809.5 103.5 c 128,-1,21
 847 118 847 118 881.5 144 c 128,-1,22
 916 170 916 170 935 214.5 c 128,-1,23
 954 259 954 259 954 320 c 0,24,25
 954 393 954 393 922 447 c 128,-1,26
 890 501 890 501 834.5 531.5 c 128,-1,27
 779 562 779 562 715 576.5 c 128,-1,28
 651 591 651 591 579 591 c 0,29,30
 556 591 556 591 544 604.5 c 128,-1,31
 532 618 532 618 532 636 c 128,-1,32
 532 654 532 654 544 665.5 c 128,-1,33
 556 677 556 677 579 677 c 0,34,35
 621 677 621 677 664.5 690.5 c 128,-1,36
 708 704 708 704 747 729.5 c 128,-1,37
 786 755 786 755 810.5 799 c 128,-1,38
 835 843 835 843 835 898 c 0,39,40
 835 995 835 995 775.5 1050.5 c 128,-1,41
 716 1106 716 1106 619 1106 c 0,42,43
 370 1106 370 1106 370 706 c 2,44,-1
 370 82 l 1,45,-1
 526 82 l 2,46,47
 553 82 553 82 564 72.5 c 128,-1,48
 575 63 575 63 575 38 c 0,49,50
 575 0 575 0 524 0 c 2,51,-1
 145 0 l 2,52,53
 94 0 94 0 94 38 c 0,54,55
 94 63 94 63 105 72.5 c 128,-1,56
 116 82 116 82 143 82 c 2,57,-1
 274 82 l 1,58,-1
 274 700 l 2,59,60
 274 812 274 812 293 898.5 c 128,-1,61
 312 985 312 985 343 1038.5 c 128,-1,62
 374 1092 374 1092 418.5 1126.5 c 128,-1,63
 463 1161 463 1161 510.5 1174.5 c 128,-1,64
 558 1188 558 1188 614 1188 c 0,65,66
 746 1188 746 1188 837 1109 c 128,-1,67
 928 1030 928 1030 928 894 c 0,0,1
EndSplineSet
EndChar

StartChar: ae
Encoding: 230 230 165
Width: 1240
Flags: HW
LayerCount: 2
Fore
SplineSet
628 129 m 1,0,1
 589 60 589 60 509.5 21.5 c 128,-1,2
 430 -17 430 -17 335 -17 c 0,3,4
 249 -17 249 -17 184 44.5 c 128,-1,5
 119 106 119 106 119 203 c 0,6,7
 119 259 119 259 132.5 300.5 c 128,-1,8
 146 342 146 342 179.5 368.5 c 128,-1,9
 213 395 213 395 244.5 411.5 c 128,-1,10
 276 428 276 428 339 437.5 c 128,-1,11
 402 447 402 447 445 451 c 128,-1,12
 488 455 488 455 572 459 c 1,13,-1
 572 496 l 2,14,15
 572 611 572 611 537.5 671 c 128,-1,16
 503 731 503 731 405 731 c 0,17,18
 316 731 316 731 247 701 c 1,19,20
 243 620 243 620 229.5 575.5 c 128,-1,21
 216 531 216 531 185 531 c 0,22,23
 158 531 158 531 143.5 551 c 128,-1,24
 129 571 129 571 129 603 c 0,25,26
 129 699 129 699 198 756 c 128,-1,27
 267 813 267 813 406 813 c 0,28,29
 492 813 492 813 551.5 766.5 c 128,-1,30
 611 720 611 720 624 642 c 1,31,32
 658 722 658 722 722 767.5 c 128,-1,33
 786 813 786 813 869 813 c 0,34,35
 975 813 975 813 1043.5 729 c 128,-1,36
 1112 645 1112 645 1112 488 c 0,37,38
 1112 451 1112 451 1092.5 429.5 c 128,-1,39
 1073 408 1073 408 1040 408 c 1,40,-1
 655 394 l 1,41,42
 666 61 666 61 884 61 c 0,43,44
 936 61 936 61 964.5 76 c 128,-1,45
 993 91 993 91 1048 146 c 1,46,47
 1068 163 1068 163 1086 163 c 0,48,49
 1122 163 1122 163 1122 127 c 0,50,51
 1122 104 1122 104 1106 85 c 0,52,53
 1017 -17 1017 -17 876 -17 c 0,54,55
 793 -17 793 -17 728.5 23 c 128,-1,56
 664 63 664 63 628 129 c 1,0,1
658 461 m 1,57,-1
 1033 474 l 1,58,59
 1017 731 1017 731 870 731 c 0,60,61
 818 731 818 731 779 712 c 128,-1,62
 740 693 740 693 719 667 c 128,-1,63
 698 641 698 641 684 600.5 c 128,-1,64
 670 560 670 560 665.5 530.5 c 128,-1,65
 661 501 661 501 658 461 c 1,57,-1
352 60 m 0,66,67
 430 60 430 60 500.5 94.5 c 128,-1,68
 571 129 571 129 603 193 c 1,69,70
 574 282 574 282 573 391 c 1,71,72
 496 387 496 387 448 382.5 c 128,-1,73
 400 378 400 378 354.5 369 c 128,-1,74
 309 360 309 360 285 348 c 128,-1,75
 261 336 261 336 242 316 c 128,-1,76
 223 296 223 296 216.5 269 c 128,-1,77
 210 242 210 242 210 203 c 0,78,79
 210 139 210 139 250.5 99.5 c 128,-1,80
 291 60 291 60 352 60 c 0,66,67
EndSplineSet
EndChar

StartChar: eth
Encoding: 240 240 175
Width: 1240
Flags: HW
LayerCount: 2
Fore
SplineSet
703 1116 m 1,0,1
 872 959 872 959 941 795.5 c 128,-1,2
 1010 632 1010 632 1010 453 c 0,3,4
 1010 232 1010 232 908 107.5 c 128,-1,5
 806 -17 806 -17 602 -17 c 0,6,7
 425 -17 425 -17 318.5 95 c 128,-1,8
 212 207 212 207 212 394 c 0,9,10
 212 583 212 583 318 698 c 128,-1,11
 424 813 424 813 607 813 c 0,12,13
 815 813 815 813 919 615 c 1,14,15
 857 855 857 855 629 1065 c 1,16,-1
 492 971 l 2,17,18
 482 964 482 964 471 964 c 0,19,20
 455 964 455 964 442.5 977.5 c 128,-1,21
 430 991 430 991 430 1008 c 0,22,23
 430 1026 430 1026 446 1038 c 2,24,-1
 565 1121 l 1,25,26
 537 1144 537 1144 508 1165.5 c 128,-1,27
 479 1187 479 1187 458.5 1200.5 c 128,-1,28
 438 1214 438 1214 434 1218 c 1,29,30
 428 1222 428 1222 428 1231 c 0,31,32
 428 1248 428 1248 443.5 1268 c 128,-1,33
 459 1288 459 1288 474 1288 c 0,34,35
 478 1288 478 1288 483 1285 c 0,36,37
 563 1234 563 1234 638 1172 c 1,38,-1
 777 1269 l 2,39,40
 786 1275 786 1275 795 1275 c 0,41,42
 812 1275 812 1275 825.5 1259.5 c 128,-1,43
 839 1244 839 1244 839 1226 c 0,44,45
 839 1209 839 1209 825 1199 c 2,46,-1
 703 1116 l 1,0,1
602 65 m 0,47,48
 750 65 750 65 832 152.5 c 128,-1,49
 914 240 914 240 914 391 c 0,50,51
 914 553 914 553 825.5 642 c 128,-1,52
 737 731 737 731 608 731 c 0,53,54
 463 731 463 731 385.5 642.5 c 128,-1,55
 308 554 308 554 308 391 c 0,56,57
 308 238 308 238 390 151.5 c 128,-1,58
 472 65 472 65 602 65 c 0,47,48
EndSplineSet
EndChar

StartChar: divide
Encoding: 247 247 182
Width: 1240
Flags: HW
LayerCount: 2
Fore
SplineSet
347 596 m 2,0,-1
 894 596 l 2,1,2
 915 596 915 596 927 582.5 c 128,-1,3
 939 569 939 569 939 549 c 128,-1,4
 939 529 939 529 927 515.5 c 128,-1,5
 915 502 915 502 894 502 c 2,6,-1
 347 502 l 2,7,8
 325 502 325 502 313 516 c 128,-1,9
 301 530 301 530 301 551 c 0,10,11
 301 570 301 570 312.5 583 c 128,-1,12
 324 596 324 596 347 596 c 2,0,-1
534 823 m 128,-1,14
 534 857 534 857 558.5 881 c 128,-1,15
 583 905 583 905 618 905 c 0,16,17
 652 905 652 905 676 881.5 c 128,-1,18
 700 858 700 858 700 823 c 128,-1,19
 700 788 700 788 676 764.5 c 128,-1,20
 652 741 652 741 618 741 c 0,21,22
 583 741 583 741 558.5 765 c 128,-1,13
 534 789 534 789 534 823 c 128,-1,14
534 277 m 0,23,24
 534 311 534 311 558.5 335 c 128,-1,25
 583 359 583 359 618 359 c 0,26,27
 652 359 652 359 676 335.5 c 128,-1,28
 700 312 700 312 700 277 c 128,-1,29
 700 242 700 242 676 217.5 c 128,-1,30
 652 193 652 193 618 193 c 128,-1,31
 584 193 584 193 559 217.5 c 128,-1,32
 534 242 534 242 534 277 c 0,23,24
EndSplineSet
EndChar

StartChar: oslash
Encoding: 248 248 183
Width: 1240
Flags: HW
LayerCount: 2
Fore
SplineSet
620 65 m 0,0,1
 768 65 768 65 852 157 c 128,-1,2
 936 249 936 249 936 398 c 128,-1,3
 936 547 936 547 852 639 c 0,4,5
 826 667 826 667 795 686 c 1,6,-1
 506 81 l 1,7,8
 558 65 558 65 620 65 c 0,0,1
410 -121 m 2,9,10
 400 -142 400 -142 380 -142 c 0,11,12
 365 -142 365 -142 356 -133 c 128,-1,13
 347 -124 347 -124 347 -108 c 0,14,15
 347 -101 347 -101 350 -95 c 2,16,-1
 409 28 l 1,17,18
 356 54 356 54 312 96 c 0,19,20
 196 209 196 209 196 398 c 0,21,22
 196 589 196 589 312.5 701 c 128,-1,23
 429 813 429 813 620 813 c 0,24,25
 704 813 704 813 774 791 c 1,26,-1
 834 917 l 1,27,28
 841 934 841 934 861 934 c 0,29,30
 894 934 894 934 894 900 c 0,31,32
 894 894 894 894 891 888 c 2,33,-1
 833 767 l 1,34,35
 886 741 886 741 928 701 c 0,36,37
 1044 589 1044 589 1044 398 c 0,38,39
 1044 209 1044 209 927.5 96 c 128,-1,40
 811 -17 811 -17 620 -17 c 0,41,42
 538 -17 538 -17 470 4 c 1,43,-1
 410 -121 l 2,9,10
737 714 m 1,44,45
 685 731 685 731 620 731 c 0,46,47
 472 731 472 731 388 639 c 128,-1,48
 304 547 304 547 304 398 c 128,-1,49
 304 249 304 249 388 157 c 0,50,51
 414 128 414 128 447 108 c 1,52,-1
 737 714 l 1,44,45
EndSplineSet
EndChar

StartChar: thorn
Encoding: 254 254 189
Width: 1240
Flags: HW
LayerCount: 2
Fore
SplineSet
975 398 m 0,0,1
 975 540 975 540 901.5 635.5 c 128,-1,2
 828 731 828 731 695 731 c 0,3,4
 510 731 510 731 409 586 c 1,5,-1
 409 194 l 1,6,7
 512 65 512 65 687 65 c 0,8,9
 824 65 824 65 899.5 161 c 128,-1,10
 975 257 975 257 975 398 c 0,0,1
409 1150 m 2,11,-1
 409 690 l 1,12,13
 530 813 530 813 697 813 c 0,14,15
 870 813 870 813 970.5 698 c 128,-1,16
 1071 583 1071 583 1071 398 c 0,17,18
 1071 216 1071 216 968 99.5 c 128,-1,19
 865 -17 865 -17 693 -17 c 0,20,21
 602 -17 602 -17 535.5 10 c 128,-1,22
 469 37 469 37 409 89 c 1,23,-1
 409 -288 l 1,24,-1
 625 -288 l 2,25,26
 645 -288 645 -288 656 -299.5 c 128,-1,27
 667 -311 667 -311 667 -327 c 0,28,29
 667 -344 667 -344 655 -357 c 128,-1,30
 643 -370 643 -370 621 -370 c 2,31,-1
 225 -370 l 2,32,33
 205 -370 205 -370 194 -357.5 c 128,-1,34
 183 -345 183 -345 183 -328 c 0,35,36
 183 -312 183 -312 193.5 -300 c 128,-1,37
 204 -288 204 -288 223 -288 c 2,38,-1
 313 -288 l 1,39,-1
 313 1082 l 1,40,-1
 144 1058 l 2,41,42
 142 1058 142 1058 139.5 1057.5 c 128,-1,43
 137 1057 137 1057 136 1057 c 0,44,45
 117 1057 117 1057 106.5 1069.5 c 128,-1,46
 96 1082 96 1082 96 1099 c 0,47,48
 96 1135 96 1135 128 1139 c 1,49,-1
 362 1181 l 2,50,51
 363 1181 363 1181 366.5 1181.5 c 128,-1,52
 370 1182 370 1182 373 1182 c 0,53,54
 389 1182 389 1182 399 1173.5 c 128,-1,55
 409 1165 409 1165 409 1150 c 2,11,-1
EndSplineSet
EndChar

StartChar: dcroat
Encoding: 273 273 207
Width: 1240
Flags: HW
LayerCount: 2
Fore
SplineSet
289 398 m 0,0,1
 289 256 289 256 364 160.5 c 128,-1,2
 439 65 439 65 573 65 c 0,3,4
 754 65 754 65 855 210 c 1,5,-1
 855 602 l 1,6,7
 752 731 752 731 577 731 c 0,8,9
 440 731 440 731 364.5 635 c 128,-1,10
 289 539 289 539 289 398 c 0,0,1
867 47 m 2,11,-1
 864 107 l 1,12,13
 818 52 818 52 740.5 17.5 c 128,-1,14
 663 -17 663 -17 571 -17 c 0,15,16
 397 -17 397 -17 295 98.5 c 128,-1,17
 193 214 193 214 193 398 c 0,18,19
 193 580 193 580 296 696.5 c 128,-1,20
 399 813 399 813 571 813 c 0,21,22
 662 813 662 813 728.5 786 c 128,-1,23
 795 759 795 759 855 707 c 1,24,-1
 855 907 l 1,25,-1
 661 907 l 2,26,27
 633 907 633 907 621.5 915.5 c 128,-1,28
 610 924 610 924 610 944 c 128,-1,29
 610 964 610 964 622 971.5 c 128,-1,30
 634 979 634 979 660 979 c 2,31,-1
 855 979 l 1,32,-1
 855 1091 l 1,33,-1
 727 1083 l 2,34,35
 726 1083 726 1083 718.5 1081.5 c 128,-1,36
 711 1080 711 1080 707 1080 c 0,37,38
 690 1080 690 1080 679 1091 c 128,-1,39
 668 1102 668 1102 668 1118 c 0,40,41
 668 1152 668 1152 701 1159 c 1,42,-1
 890 1178 l 2,43,44
 906 1180 906 1180 910 1180 c 0,45,46
 951 1180 951 1180 951 1141 c 2,47,-1
 951 979 l 1,48,-1
 1021 979 l 2,49,50
 1047 979 1047 979 1058.5 971.5 c 128,-1,51
 1070 964 1070 964 1070 944 c 128,-1,52
 1070 924 1070 924 1059 915.5 c 128,-1,53
 1048 907 1048 907 1023 907 c 2,54,-1
 951 907 l 1,55,-1
 951 85 l 1,56,-1
 1099 96 l 1,57,-1
 1105 96 l 2,58,59
 1125 96 1125 96 1135 86 c 128,-1,60
 1145 76 1145 76 1145 61 c 128,-1,61
 1145 46 1145 46 1135 33.5 c 128,-1,62
 1125 21 1125 21 1107 17 c 1,63,-1
 921 -3 l 1,64,-1
 914 -3 l 2,65,66
 870 -3 870 -3 867 47 c 2,11,-1
EndSplineSet
EndChar

StartChar: Hbar
Encoding: 294 294 228
Width: 1240
Flags: HW
LayerCount: 2
Fore
SplineSet
143 0 m 2,0,1
 120 0 120 0 106.5 13 c 128,-1,2
 93 26 93 26 93 44 c 0,3,4
 93 61 93 61 105.5 73.5 c 128,-1,5
 118 86 118 86 141 86 c 2,6,-1
 265 86 l 1,7,-1
 265 855 l 1,8,-1
 153 855 l 2,9,10
 107 855 107 855 107 894 c 0,11,12
 107 931 107 931 149 931 c 2,13,-1
 265 931 l 1,14,-1
 265 1085 l 1,15,-1
 157 1085 l 2,16,17
 133 1085 133 1085 120 1097.5 c 128,-1,18
 107 1110 107 1110 107 1128 c 0,19,20
 107 1145 107 1145 120.5 1158 c 128,-1,21
 134 1171 134 1171 157 1171 c 2,22,-1
 459 1171 l 2,23,24
 482 1171 482 1171 495.5 1158 c 128,-1,25
 509 1145 509 1145 509 1127 c 0,26,27
 509 1110 509 1110 496.5 1097.5 c 128,-1,28
 484 1085 484 1085 461 1085 c 2,29,-1
 361 1085 l 1,30,-1
 361 931 l 1,31,-1
 901 931 l 1,32,-1
 901 1085 l 1,33,-1
 801 1085 l 2,34,35
 778 1085 778 1085 765.5 1097.5 c 128,-1,36
 753 1110 753 1110 753 1127 c 0,37,38
 753 1145 753 1145 766.5 1158 c 128,-1,39
 780 1171 780 1171 803 1171 c 2,40,-1
 1097 1171 l 2,41,42
 1120 1171 1120 1171 1133.5 1158.5 c 128,-1,43
 1147 1146 1147 1146 1147 1130 c 0,44,45
 1147 1112 1147 1112 1133.5 1098.5 c 128,-1,46
 1120 1085 1120 1085 1097 1085 c 2,47,-1
 997 1085 l 1,48,-1
 997 931 l 1,49,-1
 1108 931 l 2,50,51
 1147 931 1147 931 1147 894 c 0,52,53
 1147 855 1147 855 1106 855 c 2,54,-1
 997 855 l 1,55,-1
 997 86 l 1,56,-1
 1097 86 l 2,57,58
 1121 86 1121 86 1134 73.5 c 128,-1,59
 1147 61 1147 61 1147 43 c 0,60,61
 1147 26 1147 26 1133.5 13 c 128,-1,62
 1120 0 1120 0 1097 0 c 2,63,-1
 803 0 l 2,64,65
 780 0 780 0 766.5 13 c 128,-1,66
 753 26 753 26 753 44 c 0,67,68
 753 61 753 61 765.5 73.5 c 128,-1,69
 778 86 778 86 801 86 c 2,70,-1
 901 86 l 1,71,-1
 901 558 l 1,72,-1
 361 558 l 1,73,-1
 361 86 l 1,74,-1
 461 86 l 2,75,76
 484 86 484 86 496.5 74 c 128,-1,77
 509 62 509 62 509 46 c 0,78,79
 509 27 509 27 495.5 13.5 c 128,-1,80
 482 0 482 0 459 0 c 2,81,-1
 143 0 l 2,0,1
361 855 m 1,82,-1
 361 638 l 1,83,-1
 901 638 l 1,84,-1
 901 855 l 1,85,-1
 361 855 l 1,82,-1
EndSplineSet
EndChar

StartChar: hbar
Encoding: 295 295 229
Width: 1240
Flags: HW
LayerCount: 2
Fore
SplineSet
716 731 m 0,0,1
 580 731 580 731 488 656.5 c 128,-1,2
 396 582 396 582 396 497 c 2,3,-1
 396 82 l 1,4,-1
 501 82 l 2,5,6
 524 82 524 82 536.5 70 c 128,-1,7
 549 58 549 58 549 42 c 0,8,9
 549 25 549 25 535.5 12.5 c 128,-1,10
 522 0 522 0 499 0 c 2,11,-1
 196 0 l 2,12,13
 174 0 174 0 162 13 c 128,-1,14
 150 26 150 26 150 43 c 0,15,16
 150 59 150 59 161 70.5 c 128,-1,17
 172 82 172 82 192 82 c 2,18,-1
 300 82 l 1,19,-1
 300 907 l 1,20,-1
 180 907 l 2,21,22
 152 907 152 907 140.5 915.5 c 128,-1,23
 129 924 129 924 129 944 c 128,-1,24
 129 964 129 964 141 971.5 c 128,-1,25
 153 979 153 979 179 979 c 2,26,-1
 300 979 l 1,27,-1
 300 1091 l 1,28,-1
 152 1082 l 2,29,30
 135 1081 135 1081 124 1091.5 c 128,-1,31
 113 1102 113 1102 113 1118 c 0,32,33
 113 1132 113 1132 121.5 1145 c 128,-1,34
 130 1158 130 1158 146 1159 c 2,35,-1
 335 1178 l 2,36,37
 351 1180 351 1180 355 1180 c 0,38,39
 396 1180 396 1180 396 1141 c 2,40,-1
 396 979 l 1,41,-1
 540 979 l 2,42,43
 566 979 566 979 577.5 971.5 c 128,-1,44
 589 964 589 964 589 944 c 128,-1,45
 589 924 589 924 578 915.5 c 128,-1,46
 567 907 567 907 542 907 c 2,47,-1
 396 907 l 1,48,-1
 396 639 l 1,49,50
 434 714 434 714 521.5 763.5 c 128,-1,51
 609 813 609 813 711 813 c 0,52,53
 852 813 852 813 922 740 c 128,-1,54
 992 667 992 667 992 533 c 2,55,-1
 992 82 l 1,56,-1
 1101 82 l 2,57,58
 1120 82 1120 82 1130.5 70 c 128,-1,59
 1141 58 1141 58 1141 42 c 0,60,61
 1141 25 1141 25 1130 12.5 c 128,-1,62
 1119 0 1119 0 1099 0 c 2,63,-1
 754 0 l 2,64,65
 732 0 732 0 720 13 c 128,-1,66
 708 26 708 26 708 43 c 0,67,68
 708 59 708 59 719 70.5 c 128,-1,69
 730 82 730 82 750 82 c 2,70,-1
 896 82 l 1,71,-1
 896 540 l 2,72,73
 896 631 896 631 850.5 681 c 128,-1,74
 805 731 805 731 716 731 c 0,0,1
EndSplineSet
EndChar

StartChar: dotlessi
Encoding: 305 305 239
Width: 1240
Flags: HW
LayerCount: 2
Fore
SplineSet
299 0 m 2,0,1
 277 0 277 0 265 13 c 128,-1,2
 253 26 253 26 253 43 c 0,3,4
 253 59 253 59 264 70.5 c 128,-1,5
 275 82 275 82 295 82 c 2,6,-1
 667 82 l 1,7,-1
 667 719 l 1,8,-1
 334 674 l 2,9,10
 332 674 332 674 330 673.5 c 128,-1,11
 328 673 328 673 327 673 c 0,12,13
 308 673 308 673 297 685.5 c 128,-1,14
 286 698 286 698 286 715 c 0,15,16
 286 751 286 751 318 755 c 2,17,-1
 716 810 l 2,18,19
 719 811 719 811 727 811 c 0,20,21
 743 811 743 811 753 802.5 c 128,-1,22
 763 794 763 794 763 779 c 2,23,-1
 763 82 l 1,24,-1
 1096 82 l 2,25,26
 1115 82 1115 82 1125.5 69.5 c 128,-1,27
 1136 57 1136 57 1136 41 c 0,28,29
 1136 24 1136 24 1125 12 c 128,-1,30
 1114 0 1114 0 1095 0 c 2,31,-1
 299 0 l 2,0,1
EndSplineSet
EndChar

StartChar: IJ
Encoding: 306 306 240
Width: 1240
Flags: HW
LayerCount: 2
Fore
SplineSet
1040 307 m 2,0,1
 1040 187 1040 187 1008.5 122.5 c 128,-1,2
 977 58 977 58 899 29 c 128,-1,3
 821 0 821 0 676 0 c 0,4,5
 661 0 661 0 652.5 12 c 128,-1,6
 644 24 644 24 644 41 c 0,7,8
 644 57 644 57 652 69 c 128,-1,9
 660 81 660 81 676 81 c 0,10,11
 738 81 738 81 780 84.5 c 128,-1,12
 822 88 822 88 853 99.5 c 128,-1,13
 884 111 884 111 901 125 c 128,-1,14
 918 139 918 139 928 167 c 128,-1,15
 938 195 938 195 941 225 c 128,-1,16
 944 255 944 255 944 304 c 2,17,-1
 944 1085 l 1,18,-1
 348 1085 l 1,19,-1
 348 86 l 1,20,-1
 479 86 l 2,21,22
 502 86 502 86 515 73 c 128,-1,23
 528 60 528 60 528 43 c 0,24,25
 528 25 528 25 515 12.5 c 128,-1,26
 502 0 502 0 478 0 c 2,27,-1
 118 0 l 2,28,29
 94 0 94 0 80.5 12.5 c 128,-1,30
 67 25 67 25 67 43 c 0,31,32
 67 60 67 60 80.5 73 c 128,-1,33
 94 86 94 86 117 86 c 2,34,-1
 252 86 l 1,35,-1
 252 1085 l 1,36,-1
 97 1085 l 2,37,38
 74 1085 74 1085 60.5 1097.5 c 128,-1,39
 47 1110 47 1110 47 1127 c 0,40,41
 47 1145 47 1145 60.5 1158 c 128,-1,42
 74 1171 74 1171 98 1171 c 2,43,-1
 1142 1171 l 2,44,45
 1166 1171 1166 1171 1179 1158.5 c 128,-1,46
 1192 1146 1192 1146 1192 1128 c 0,47,48
 1192 1111 1192 1111 1179 1098 c 128,-1,49
 1166 1085 1166 1085 1143 1085 c 2,50,-1
 1040 1085 l 1,51,-1
 1040 307 l 2,0,1
EndSplineSet
EndChar

StartChar: ij
Encoding: 307 307 241
Width: 1240
Flags: HW
LayerCount: 2
Fore
SplineSet
576 -310 m 0,0,1
 552 -310 552 -310 538.5 -297 c 128,-1,2
 525 -284 525 -284 525 -266 c 128,-1,3
 525 -248 525 -248 540.5 -234.5 c 128,-1,4
 556 -221 556 -221 583 -221 c 0,5,6
 676 -221 676 -221 755.5 -199.5 c 128,-1,7
 835 -178 835 -178 890.5 -126.5 c 128,-1,8
 946 -75 946 -75 946 -1 c 2,9,-1
 946 731 l 1,10,-1
 583 731 l 1,11,-1
 583 82 l 1,12,-1
 701 82 l 2,13,14
 720 82 720 82 730.5 69.5 c 128,-1,15
 741 57 741 57 741 41 c 0,16,17
 741 24 741 24 730 12 c 128,-1,18
 719 0 719 0 700 0 c 2,19,-1
 185 0 l 2,20,21
 163 0 163 0 151 13 c 128,-1,22
 139 26 139 26 139 43 c 0,23,24
 139 59 139 59 150 70.5 c 128,-1,25
 161 82 161 82 181 82 c 2,26,-1
 487 82 l 1,27,-1
 487 731 l 1,28,-1
 307 731 l 2,29,30
 288 731 288 731 277 744 c 128,-1,31
 266 757 266 757 266 774 c 0,32,33
 266 790 266 790 274.5 801.5 c 128,-1,34
 283 813 283 813 298 813 c 2,35,-1
 1006 813 l 2,36,37
 1042 813 1042 813 1042 784 c 2,38,-1
 1042 -11 l 2,39,40
 1042 -102 1042 -102 976 -171 c 128,-1,41
 910 -240 910 -240 805 -275 c 128,-1,42
 700 -310 700 -310 576 -310 c 0,0,1
955 1171 m 0,43,44
 989 1171 989 1171 1013 1147 c 128,-1,45
 1037 1123 1037 1123 1037 1088 c 0,46,47
 1037 1054 1037 1054 1013.5 1030 c 128,-1,48
 990 1006 990 1006 955 1006 c 128,-1,49
 920 1006 920 1006 896 1030 c 128,-1,50
 872 1054 872 1054 872 1088 c 128,-1,51
 872 1122 872 1122 896 1146.5 c 128,-1,52
 920 1171 920 1171 955 1171 c 0,43,44
537 1171 m 0,53,54
 571 1171 571 1171 595 1147 c 128,-1,55
 619 1123 619 1123 619 1088 c 0,56,57
 619 1054 619 1054 595.5 1030 c 128,-1,58
 572 1006 572 1006 537 1006 c 128,-1,59
 502 1006 502 1006 478 1030 c 128,-1,60
 454 1054 454 1054 454 1088 c 128,-1,61
 454 1122 454 1122 478 1146.5 c 128,-1,62
 502 1171 502 1171 537 1171 c 0,53,54
EndSplineSet
EndChar

StartChar: kgreenlandic
Encoding: 312 312 246
Width: 1240
Flags: HW
LayerCount: 2
Fore
SplineSet
464 373 m 1,0,-1
 851 692 l 1,1,-1
 744 692 l 2,2,3
 724 692 724 692 713 704 c 128,-1,4
 702 716 702 716 702 733 c 128,-1,5
 702 750 702 750 714 762.5 c 128,-1,6
 726 775 726 775 748 775 c 2,7,-1
 1065 775 l 2,8,9
 1085 775 1085 775 1095.5 762 c 128,-1,10
 1106 749 1106 749 1106 729 c 0,11,12
 1106 715 1106 715 1094 703.5 c 128,-1,13
 1082 692 1082 692 1066 692 c 2,14,-1
 971 692 l 1,15,-1
 662 433 l 1,16,-1
 1001 82 l 1,17,-1
 1088 82 l 2,18,19
 1107 82 1107 82 1117.5 69.5 c 128,-1,20
 1128 57 1128 57 1128 41 c 0,21,22
 1128 24 1128 24 1117.5 12 c 128,-1,23
 1107 0 1107 0 1088 0 c 2,24,-1
 775 0 l 2,25,26
 755 0 755 0 744 12.5 c 128,-1,27
 733 25 733 25 733 41 c 0,28,29
 733 58 733 58 745 70 c 128,-1,30
 757 82 757 82 779 82 c 2,31,-1
 889 82 l 1,32,-1
 597 387 l 1,33,-1
 464 287 l 1,34,-1
 464 82 l 1,35,-1
 535 82 l 2,36,37
 553 82 553 82 563.5 69.5 c 128,-1,38
 574 57 574 57 574 41 c 0,39,40
 574 24 574 24 563.5 12 c 128,-1,41
 553 0 553 0 534 0 c 2,42,-1
 200 0 l 2,43,44
 179 0 179 0 166.5 12.5 c 128,-1,45
 154 25 154 25 154 42 c 0,46,47
 154 58 154 58 165 70 c 128,-1,48
 176 82 176 82 196 82 c 2,49,-1
 368 82 l 1,50,-1
 368 692 l 1,51,-1
 193 692 l 2,52,53
 150 692 150 692 150 734 c 0,54,55
 150 750 150 750 160 762 c 128,-1,56
 170 774 170 774 189 774 c 2,57,-1
 428 774 l 2,58,59
 444 774 444 774 454 764 c 128,-1,60
 464 754 464 754 464 736 c 2,61,-1
 464 373 l 1,0,-1
EndSplineSet
EndChar

StartChar: Lslash
Encoding: 321 321 255
Width: 1240
Flags: HW
LayerCount: 2
Fore
SplineSet
640 1171 m 2,0,1
 664 1171 664 1171 677.5 1158 c 128,-1,2
 691 1145 691 1145 691 1127 c 0,3,4
 691 1110 691 1110 677.5 1097.5 c 128,-1,5
 664 1085 664 1085 641 1085 c 2,6,-1
 489 1085 l 1,7,-1
 489 699 l 1,8,-1
 758 765 l 2,9,10
 768 768 768 768 777 768 c 0,11,12
 796 768 796 768 807 755.5 c 128,-1,13
 818 743 818 743 818 722 c 0,14,15
 818 695 818 695 780 685 c 2,16,-1
 489 612 l 1,17,-1
 489 86 l 1,18,-1
 946 86 l 1,19,20
 959 87 959 87 966 89.5 c 128,-1,21
 973 92 973 92 979.5 100 c 128,-1,22
 986 108 986 108 987 123 c 2,23,-1
 1021 399 l 2,24,25
 1024 420 1024 420 1038 431 c 128,-1,26
 1052 442 1052 442 1071 442 c 0,27,28
 1092 442 1092 442 1107 429 c 128,-1,29
 1122 416 1122 416 1122 393 c 2,30,-1
 1122 387 l 1,31,-1
 1092 66 l 1,32,33
 1088 37 1088 37 1069.5 18.5 c 128,-1,34
 1051 0 1051 0 1020 0 c 2,35,-1
 125 0 l 2,36,37
 101 0 101 0 87.5 12.5 c 128,-1,38
 74 25 74 25 74 43 c 0,39,40
 74 60 74 60 87.5 73 c 128,-1,41
 101 86 101 86 124 86 c 2,42,-1
 393 86 l 1,43,-1
 393 588 l 1,44,-1
 245 551 l 2,45,46
 233 548 233 548 223 548 c 0,47,48
 204 548 204 548 193.5 560.5 c 128,-1,49
 183 573 183 573 183 594 c 0,50,51
 183 624 183 624 223 634 c 2,52,-1
 393 676 l 1,53,-1
 393 1085 l 1,54,-1
 166 1085 l 2,55,56
 143 1085 143 1085 130 1097.5 c 128,-1,57
 117 1110 117 1110 117 1127 c 0,58,59
 117 1145 117 1145 130.5 1158 c 128,-1,60
 144 1171 144 1171 167 1171 c 2,61,-1
 640 1171 l 2,0,1
EndSplineSet
EndChar

StartChar: lslash
Encoding: 322 322 256
Width: 1240
Flags: HW
LayerCount: 2
Fore
SplineSet
896 796 m 2,0,1
 905 799 905 799 912 799 c 0,2,3
 928 799 928 799 938.5 786 c 128,-1,4
 949 773 949 773 949 757 c 0,5,6
 949 734 949 734 929 725 c 2,7,-1
 719 639 l 1,8,-1
 719 82 l 1,9,-1
 1059 82 l 2,10,11
 1077 82 1077 82 1087.5 69.5 c 128,-1,12
 1098 57 1098 57 1098 41 c 0,13,14
 1098 24 1098 24 1087.5 12 c 128,-1,15
 1077 0 1077 0 1058 0 c 2,16,-1
 258 0 l 2,17,18
 236 0 236 0 224 12.5 c 128,-1,19
 212 25 212 25 212 42 c 0,20,21
 212 58 212 58 223 70 c 128,-1,22
 234 82 234 82 254 82 c 2,23,-1
 623 82 l 1,24,-1
 623 600 l 1,25,-1
 435 523 l 2,26,27
 423 519 423 519 418 519 c 0,28,29
 401 519 401 519 388.5 532.5 c 128,-1,30
 376 546 376 546 376 562 c 0,31,32
 376 585 376 585 400 595 c 2,33,-1
 623 685 l 1,34,-1
 623 1090 l 1,35,-1
 270 1062 l 2,36,37
 268 1062 268 1062 266 1061.5 c 128,-1,38
 264 1061 264 1061 263 1061 c 0,39,40
 244 1061 244 1061 233 1073.5 c 128,-1,41
 222 1086 222 1086 222 1103 c 0,42,43
 222 1139 222 1139 254 1143 c 1,44,-1
 672 1181 l 2,45,46
 673 1181 673 1181 676.5 1181.5 c 128,-1,47
 680 1182 680 1182 683 1182 c 0,48,49
 699 1182 699 1182 709 1173.5 c 128,-1,50
 719 1165 719 1165 719 1150 c 2,51,-1
 719 724 l 1,52,-1
 896 796 l 2,0,1
EndSplineSet
EndChar

StartChar: OE
Encoding: 338 338 269
Width: 1240
Flags: HW
LayerCount: 2
Fore
SplineSet
214 582 m 0,0,1
 214 465 214 465 243.5 368.5 c 128,-1,2
 273 272 273 272 322.5 210.5 c 128,-1,3
 372 149 372 149 433.5 115.5 c 128,-1,4
 495 82 495 82 561 82 c 2,5,-1
 579 82 l 1,6,-1
 579 1084 l 1,7,-1
 564 1084 l 2,8,9
 497 1084 497 1084 435 1051.5 c 128,-1,10
 373 1019 373 1019 323.5 958 c 128,-1,11
 274 897 274 897 244 799.5 c 128,-1,12
 214 702 214 702 214 582 c 0,0,1
924 437 m 2,13,14
 924 412 924 412 913 399 c 128,-1,15
 902 386 902 386 886 386 c 0,16,17
 871 386 871 386 859 397.5 c 128,-1,18
 847 409 847 409 846 429 c 2,19,-1
 833 577 l 1,20,-1
 677 577 l 1,21,-1
 677 85 l 1,22,-1
 1012 85 l 1,23,-1
 1028 336 l 2,24,25
 1029 353 1029 353 1042 364 c 128,-1,26
 1055 375 1055 375 1072 375 c 128,-1,27
 1089 375 1089 375 1101.5 361.5 c 128,-1,28
 1114 348 1114 348 1114 323 c 2,29,-1
 1114 53 l 2,30,31
 1114 28 1114 28 1098.5 14 c 128,-1,32
 1083 0 1083 0 1058 0 c 2,33,-1
 564 0 l 1,34,-1
 563 0 l 2,35,36
 478 0 478 0 399 38 c 128,-1,37
 320 76 320 76 257 147 c 128,-1,38
 194 218 194 218 156 331 c 128,-1,39
 118 444 118 444 118 582 c 0,40,41
 118 721 118 721 156.5 835 c 128,-1,42
 195 949 195 949 258.5 1021.5 c 128,-1,43
 322 1094 322 1094 401.5 1133 c 128,-1,44
 481 1172 481 1172 566 1172 c 0,45,46
 646 1172 646 1172 806 1171.5 c 128,-1,47
 966 1171 966 1171 1046 1171 c 0,48,49
 1071 1171 1071 1171 1086.5 1156.5 c 128,-1,50
 1102 1142 1102 1142 1102 1117 c 2,51,-1
 1102 847 l 2,52,53
 1102 826 1102 826 1090 814.5 c 128,-1,54
 1078 803 1078 803 1062 803 c 128,-1,55
 1046 803 1046 803 1033.5 813 c 128,-1,56
 1021 823 1021 823 1020 841 c 2,57,-1
 1006 1084 l 1,58,-1
 677 1084 l 1,59,-1
 677 654 l 1,60,-1
 833 654 l 1,61,-1
 846 787 l 2,62,63
 848 808 848 808 859.5 820 c 128,-1,64
 871 832 871 832 886 832 c 0,65,66
 902 832 902 832 913 818.5 c 128,-1,67
 924 805 924 805 924 779 c 2,68,-1
 924 437 l 2,13,14
EndSplineSet
EndChar

StartChar: oe
Encoding: 339 339 270
Width: 1240
Flags: HW
LayerCount: 2
Fore
SplineSet
579 398 m 128,-1,1
 579 552 579 552 524 637.5 c 128,-1,2
 469 723 469 723 393 723 c 128,-1,3
 317 723 317 723 262 637.5 c 128,-1,4
 207 552 207 552 207 398 c 128,-1,5
 207 244 207 244 262 158 c 128,-1,6
 317 72 317 72 393 72 c 128,-1,7
 469 72 469 72 524 158 c 128,-1,0
 579 244 579 244 579 398 c 128,-1,1
678 456 m 1,8,-1
 1043 460 l 1,9,10
 1043 586 1043 586 993.5 659 c 128,-1,11
 944 732 944 732 877 732 c 0,12,13
 812 732 812 732 757 659.5 c 128,-1,14
 702 587 702 587 678 456 c 1,8,-1
1128 479 m 0,15,16
 1128 441 1128 441 1107 416.5 c 128,-1,17
 1086 392 1086 392 1051 392 c 2,18,-1
 675 387 l 1,19,20
 680 232 680 232 741.5 146.5 c 128,-1,21
 803 61 803 61 890 61 c 0,22,23
 988 61 988 61 1071 162 c 0,24,25
 1080 172 1080 172 1094 172 c 0,26,27
 1109 172 1109 172 1122.5 162 c 128,-1,28
 1136 152 1136 152 1136 137 c 0,29,30
 1136 123 1136 123 1121 105 c 0,31,32
 1017 -10 1017 -10 886 -10 c 0,33,34
 693 -10 693 -10 631 205 c 1,35,36
 596 95 596 95 527.5 42.5 c 128,-1,37
 459 -10 459 -10 378 -10 c 0,38,39
 324 -10 324 -10 275 16 c 128,-1,40
 226 42 226 42 186 91.5 c 128,-1,41
 146 141 146 141 122.5 220.5 c 128,-1,42
 99 300 99 300 99 398 c 0,43,44
 99 591 99 591 183.5 699 c 128,-1,45
 268 807 268 807 383 807 c 0,46,47
 466 807 466 807 533 754 c 128,-1,48
 600 701 600 701 629 587 c 1,49,50
 662 702 662 702 731 757 c 128,-1,51
 800 812 800 812 882 812 c 0,52,53
 983 812 983 812 1055.5 725.5 c 128,-1,54
 1128 639 1128 639 1128 479 c 0,15,16
EndSplineSet
EndChar

StartChar: florin
Encoding: 402 402 310
Width: 1240
Flags: HW
LayerCount: 2
Fore
SplineSet
623 48 m 2,0,1
 617 -21 617 -21 592 -71 c 128,-1,2
 567 -121 567 -121 536 -147.5 c 128,-1,3
 505 -174 505 -174 458.5 -189 c 128,-1,4
 412 -204 412 -204 377 -207.5 c 128,-1,5
 342 -211 342 -211 296 -211 c 0,6,7
 262 -211 262 -211 262 -174 c 0,8,9
 262 -172 262 -172 262.5 -168 c 128,-1,10
 263 -164 263 -164 263 -161 c 2,11,-1
 273 -43 l 2,12,13
 274 -29 274 -29 288 -21 c 128,-1,14
 302 -13 302 -13 318 -13 c 0,15,16
 353 -13 353 -13 353 -36 c 2,17,-1
 353 -39 l 1,18,-1
 345 -137 l 1,19,20
 511 -137 511 -137 527 46 c 2,21,-1
 581 690 l 1,22,-1
 436 690 l 2,23,24
 420 690 420 690 411.5 701.5 c 128,-1,25
 403 713 403 713 403 729 c 2,26,-1
 403 734 l 1,27,28
 405 750 405 750 414.5 762 c 128,-1,29
 424 774 424 774 439 774 c 2,30,-1
 588 774 l 1,31,-1
 594 838 l 1,32,33
 609 1018 609 1018 706 1103 c 128,-1,34
 803 1188 803 1188 988 1188 c 0,35,36
 1010 1188 1010 1188 1025.5 1175.5 c 128,-1,37
 1041 1163 1041 1163 1041 1142 c 2,38,-1
 1041 1137 l 1,39,-1
 1031 1020 l 2,40,41
 1030 1006 1030 1006 1015 998 c 128,-1,42
 1000 990 1000 990 981 990 c 0,43,44
 965 990 965 990 953 996.5 c 128,-1,45
 941 1003 941 1003 941 1014 c 2,46,-1
 941 1016 l 1,47,-1
 949 1118 l 1,48,49
 889 1113 889 1113 849 1100 c 128,-1,50
 809 1087 809 1087 773 1058 c 128,-1,51
 737 1029 737 1029 717 975.5 c 128,-1,52
 697 922 697 922 690 841 c 2,53,-1
 684 774 l 1,54,-1
 854 774 l 2,55,56
 883 774 883 774 883 739 c 2,57,-1
 883 734 l 1,58,59
 881 716 881 716 871.5 703 c 128,-1,60
 862 690 862 690 846 690 c 2,61,-1
 677 690 l 1,62,-1
 623 48 l 2,0,1
EndSplineSet
EndChar

StartChar: uni01C4
Encoding: 452 452 311
Width: 1240
Flags: HW
LayerCount: 2
Fore
SplineSet
985 1320 m 1,0,1
 978 1309 978 1309 953 1309 c 0,2,3
 929 1309 929 1309 922 1320 c 2,4,-1
 758 1603 l 1,5,6
 751 1610 751 1610 751 1620 c 0,7,8
 751 1632 751 1632 762.5 1641 c 128,-1,9
 774 1650 774 1650 788 1650 c 0,10,11
 805 1650 805 1650 811 1641 c 2,12,-1
 953 1432 l 1,13,-1
 1066 1641 l 2,14,15
 1072 1650 1072 1650 1089 1650 c 0,16,17
 1103 1650 1103 1650 1114.5 1641 c 128,-1,18
 1126 1632 1126 1632 1126 1620 c 0,19,20
 1126 1610 1126 1610 1119 1603 c 1,21,-1
 985 1320 l 1,0,1
228 0 m 2,22,-1
 115 0 l 2,23,24
 91 0 91 0 77.5 12.5 c 128,-1,25
 64 25 64 25 64 43 c 0,26,27
 64 60 64 60 77.5 73 c 128,-1,28
 91 86 91 86 114 86 c 2,29,-1
 139 86 l 1,30,-1
 139 1085 l 1,31,-1
 118 1085 l 2,32,33
 95 1085 95 1085 82.5 1097.5 c 128,-1,34
 70 1110 70 1110 70 1127 c 0,35,36
 70 1145 70 1145 83.5 1158 c 128,-1,37
 97 1171 97 1171 120 1171 c 2,38,-1
 230 1171 l 2,39,40
 450 1171 450 1171 549.5 1032.5 c 128,-1,41
 649 894 649 894 649 591 c 0,42,43
 649 277 649 277 548.5 138.5 c 128,-1,44
 448 0 448 0 228 0 c 2,22,-1
1111 0 m 2,45,-1
 739 0 l 2,46,47
 704 0 704 0 704 39 c 0,48,49
 704 60 704 60 715 95 c 2,50,-1
 1038 1085 l 1,51,-1
 818 1085 l 1,52,-1
 818 857 l 2,53,54
 818 838 818 838 804.5 827.5 c 128,-1,55
 791 817 791 817 773 817 c 0,56,57
 732 817 732 817 732 866 c 2,58,-1
 732 1116 l 1,59,60
 733 1133 733 1133 736 1143.5 c 128,-1,61
 739 1154 739 1154 752.5 1162.5 c 128,-1,62
 766 1171 766 1171 790 1171 c 2,63,-1
 1090 1171 l 2,64,65
 1132 1171 1132 1171 1132 1111 c 0,66,67
 1132 1093 1132 1093 1129 1081 c 2,68,-1
 811 86 l 1,69,-1
 1070 86 l 1,70,-1
 1070 314 l 1,71,72
 1071 337 1071 337 1084.5 350 c 128,-1,73
 1098 363 1098 363 1116 363 c 128,-1,74
 1134 363 1134 363 1148 351 c 128,-1,75
 1162 339 1162 339 1162 315 c 2,76,-1
 1162 53 l 1,77,78
 1163 28 1163 28 1148.5 14 c 128,-1,79
 1134 0 1134 0 1111 0 c 2,45,-1
235 86 m 1,80,81
 313 86 313 86 368.5 107 c 128,-1,82
 424 128 424 128 459.5 166.5 c 128,-1,83
 495 205 495 205 516 269 c 128,-1,84
 537 333 537 333 545 409 c 128,-1,85
 553 485 553 485 553 591 c 0,86,87
 553 716 553 716 538.5 802.5 c 128,-1,88
 524 889 524 889 489 955.5 c 128,-1,89
 454 1022 454 1022 391 1053.5 c 128,-1,90
 328 1085 328 1085 235 1085 c 1,91,-1
 235 86 l 1,80,81
EndSplineSet
EndChar

StartChar: uni01C5
Encoding: 453 453 312
Width: 1240
Flags: HW
LayerCount: 2
Fore
SplineSet
957 935 m 0,0,1
 933 935 933 935 926 946 c 2,2,-1
 742 1229 l 1,3,4
 735 1236 735 1236 735 1246 c 0,5,6
 735 1258 735 1258 746.5 1267 c 128,-1,7
 758 1276 758 1276 772 1276 c 0,8,9
 789 1276 789 1276 795 1267 c 2,10,-1
 957 1058 l 1,11,-1
 1120 1267 l 2,12,13
 1126 1276 1126 1276 1143 1276 c 0,14,15
 1157 1276 1157 1276 1168.5 1267 c 128,-1,16
 1180 1258 1180 1258 1180 1246 c 0,17,18
 1180 1236 1180 1236 1173 1229 c 1,19,-1
 989 946 l 2,20,21
 982 935 982 935 957 935 c 0,0,1
228 0 m 2,22,-1
 115 0 l 2,23,24
 91 0 91 0 77.5 12.5 c 128,-1,25
 64 25 64 25 64 43 c 0,26,27
 64 60 64 60 77.5 73 c 128,-1,28
 91 86 91 86 114 86 c 2,29,-1
 139 86 l 1,30,-1
 139 1085 l 1,31,-1
 118 1085 l 2,32,33
 95 1085 95 1085 82.5 1097.5 c 128,-1,34
 70 1110 70 1110 70 1127 c 0,35,36
 70 1145 70 1145 83.5 1158 c 128,-1,37
 97 1171 97 1171 120 1171 c 2,38,-1
 230 1171 l 2,39,40
 450 1171 450 1171 549.5 1032.5 c 128,-1,41
 649 894 649 894 649 591 c 0,42,43
 649 277 649 277 548.5 138.5 c 128,-1,44
 448 0 448 0 228 0 c 2,22,-1
235 86 m 1,45,46
 313 86 313 86 368.5 107 c 128,-1,47
 424 128 424 128 459.5 166.5 c 128,-1,48
 495 205 495 205 516 269 c 128,-1,49
 537 333 537 333 545 409 c 128,-1,50
 553 485 553 485 553 591 c 0,51,52
 553 716 553 716 538.5 802.5 c 128,-1,53
 524 889 524 889 489 955.5 c 128,-1,54
 454 1022 454 1022 391 1053.5 c 128,-1,55
 328 1085 328 1085 235 1085 c 1,56,-1
 235 86 l 1,45,46
1089 772 m 2,57,58
 1150 772 1150 772 1150 727 c 0,59,60
 1150 719 1150 719 1147 711.5 c 128,-1,61
 1144 704 1144 704 1138.5 694.5 c 128,-1,62
 1133 685 1133 685 1132 682 c 2,63,-1
 860 82 l 1,64,-1
 1065 82 l 1,65,-1
 1076 259 l 2,66,67
 1077 276 1077 276 1090 286.5 c 128,-1,68
 1103 297 1103 297 1120 297 c 128,-1,69
 1137 297 1137 297 1149 286 c 128,-1,70
 1161 275 1161 275 1161 255 c 2,71,-1
 1161 46 l 2,72,73
 1161 28 1161 28 1145 14 c 128,-1,74
 1129 0 1129 0 1110 0 c 2,75,-1
 806 0 l 2,76,77
 750 0 750 0 750 59 c 0,78,79
 750 75 750 75 767 109 c 1,80,-1
 1034 692 l 1,81,-1
 831 692 l 1,82,-1
 823 535 l 2,83,84
 822 514 822 514 810 502 c 128,-1,85
 798 490 798 490 781 490 c 0,86,87
 763 490 763 490 749.5 503.5 c 128,-1,88
 736 517 736 517 736 540 c 2,89,-1
 736 726 l 2,90,91
 736 744 736 744 750 758 c 128,-1,92
 764 772 764 772 782 772 c 2,93,-1
 1089 772 l 2,57,58
EndSplineSet
EndChar

StartChar: uni01C6
Encoding: 454 454 313
Width: 1240
Flags: HW
LayerCount: 2
Fore
SplineSet
957 935 m 0,0,1
 933 935 933 935 926 946 c 2,2,-1
 742 1229 l 1,3,4
 735 1236 735 1236 735 1246 c 0,5,6
 735 1258 735 1258 746.5 1267 c 128,-1,7
 758 1276 758 1276 772 1276 c 0,8,9
 789 1276 789 1276 795 1267 c 2,10,-1
 957 1058 l 1,11,-1
 1120 1267 l 2,12,13
 1126 1276 1126 1276 1143 1276 c 0,14,15
 1157 1276 1157 1276 1168.5 1267 c 128,-1,16
 1180 1258 1180 1258 1180 1246 c 0,17,18
 1180 1236 1180 1236 1173 1229 c 1,19,-1
 989 946 l 2,20,21
 982 935 982 935 957 935 c 0,0,1
1089 772 m 2,22,23
 1150 772 1150 772 1150 727 c 0,24,25
 1150 719 1150 719 1147 711.5 c 128,-1,26
 1144 704 1144 704 1138.5 694.5 c 128,-1,27
 1133 685 1133 685 1132 682 c 2,28,-1
 860 82 l 1,29,-1
 1065 82 l 1,30,-1
 1076 259 l 2,31,32
 1077 276 1077 276 1090 286.5 c 128,-1,33
 1103 297 1103 297 1120 297 c 128,-1,34
 1137 297 1137 297 1149 286 c 128,-1,35
 1161 275 1161 275 1161 255 c 2,36,-1
 1161 46 l 2,37,38
 1161 28 1161 28 1145 14 c 128,-1,39
 1129 0 1129 0 1110 0 c 2,40,-1
 806 0 l 2,41,42
 750 0 750 0 750 59 c 0,43,44
 750 75 750 75 767 109 c 1,45,-1
 1034 692 l 1,46,-1
 831 692 l 1,47,-1
 823 535 l 2,48,49
 822 514 822 514 810 502 c 128,-1,50
 798 490 798 490 781 490 c 0,51,52
 763 490 763 490 749.5 503.5 c 128,-1,53
 736 517 736 517 736 540 c 2,54,-1
 736 726 l 2,55,56
 736 744 736 744 750 758 c 128,-1,57
 764 772 764 772 782 772 c 2,58,-1
 1089 772 l 2,22,23
159 398 m 0,59,60
 159 242 159 242 203.5 151 c 128,-1,61
 248 60 248 60 318 60 c 0,62,63
 362 60 362 60 406.5 98 c 128,-1,64
 451 136 451 136 485 210 c 1,65,-1
 485 619 l 1,66,67
 395 735 395 735 309 735 c 0,68,69
 237 735 237 735 198 646.5 c 128,-1,70
 159 558 159 558 159 398 c 0,59,60
497 47 m 2,71,-1
 494 107 l 1,72,73
 417 -16 417 -16 310 -16 c 0,74,75
 208 -16 208 -16 135.5 101 c 128,-1,76
 63 218 63 218 63 398 c 0,77,78
 63 585 63 585 129.5 699 c 128,-1,79
 196 813 196 813 299 813 c 0,80,81
 399 813 399 813 485 714 c 1,82,-1
 485 1091 l 1,83,-1
 357 1083 l 2,84,85
 356 1083 356 1083 348.5 1081.5 c 128,-1,86
 341 1080 341 1080 337 1080 c 0,87,88
 320 1080 320 1080 309 1091 c 128,-1,89
 298 1102 298 1102 298 1118 c 0,90,91
 298 1152 298 1152 331 1159 c 1,92,-1
 520 1178 l 2,93,94
 536 1180 536 1180 540 1180 c 0,95,96
 581 1180 581 1180 581 1141 c 2,97,-1
 581 85 l 1,98,-1
 637 91 l 1,99,-1
 643 91 l 2,100,101
 663 91 663 91 673 81 c 128,-1,102
 683 71 683 71 683 56 c 128,-1,103
 683 41 683 41 673 28.5 c 128,-1,104
 663 16 663 16 645 12 c 1,105,-1
 551 -3 l 1,106,-1
 544 -3 l 2,107,108
 500 -3 500 -3 497 47 c 2,71,-1
EndSplineSet
EndChar

StartChar: uni01C7
Encoding: 455 455 314
Width: 1240
Flags: HW
LayerCount: 2
Fore
SplineSet
1154 367 m 2,0,1
 1154 219 1154 219 1127.5 136.5 c 128,-1,2
 1101 54 1101 54 1045 20.5 c 128,-1,3
 989 -13 989 -13 890 -13 c 128,-1,4
 791 -13 791 -13 734 36 c 128,-1,5
 677 85 677 85 677 171 c 2,6,-1
 677 283 l 2,7,8
 677 304 677 304 692 316 c 128,-1,9
 707 328 707 328 726 328 c 128,-1,10
 745 328 745 328 759 316 c 128,-1,11
 773 304 773 304 773 283 c 2,12,-1
 773 170 l 2,13,14
 773 68 773 68 899 68 c 0,15,16
 996 68 996 68 1027 128.5 c 128,-1,17
 1058 189 1058 189 1058 364 c 2,18,-1
 1058 1085 l 1,19,-1
 778 1085 l 2,20,21
 755 1085 755 1085 742.5 1097.5 c 128,-1,22
 730 1110 730 1110 730 1127 c 0,23,24
 730 1145 730 1145 743 1158 c 128,-1,25
 756 1171 756 1171 779 1171 c 2,26,-1
 1224 1171 l 2,27,28
 1248 1171 1248 1171 1261 1158.5 c 128,-1,29
 1274 1146 1274 1146 1274 1128 c 0,30,31
 1274 1111 1274 1111 1261 1098 c 128,-1,32
 1248 1085 1248 1085 1225 1085 c 2,33,-1
 1154 1085 l 1,34,-1
 1154 367 l 2,0,1
349 1171 m 2,35,36
 373 1171 373 1171 386.5 1158 c 128,-1,37
 400 1145 400 1145 400 1127 c 0,38,39
 400 1110 400 1110 386.5 1097.5 c 128,-1,40
 373 1085 373 1085 350 1085 c 2,41,-1
 198 1085 l 1,42,-1
 198 86 l 1,43,-1
 475 86 l 2,44,45
 481 86 481 86 481.5 87.5 c 128,-1,46
 482 89 482 89 483 99 c 2,47,-1
 490 389 l 1,48,49
 493 410 493 410 507 421 c 128,-1,50
 521 432 521 432 540 432 c 0,51,52
 561 432 561 432 576 419 c 128,-1,53
 591 406 591 406 591 383 c 2,54,-1
 591 66 l 1,55,56
 587 37 587 37 568.5 18.5 c 128,-1,57
 550 0 550 0 519 0 c 2,58,-1
 64 0 l 2,59,60
 40 0 40 0 26.5 12.5 c 128,-1,61
 13 25 13 25 13 43 c 0,62,63
 13 60 13 60 26.5 73 c 128,-1,64
 40 86 40 86 63 86 c 2,65,-1
 102 86 l 1,66,-1
 102 1085 l 1,67,-1
 55 1085 l 2,68,69
 32 1085 32 1085 19 1097.5 c 128,-1,70
 6 1110 6 1110 6 1127 c 0,71,72
 6 1145 6 1145 19.5 1158 c 128,-1,73
 33 1171 33 1171 56 1171 c 2,74,-1
 349 1171 l 2,35,36
EndSplineSet
EndChar

StartChar: uni01C8
Encoding: 456 456 315
Width: 1240
Flags: HW
LayerCount: 2
Fore
SplineSet
728 -309 m 0,0,1
 704 -309 704 -309 690.5 -296 c 128,-1,2
 677 -283 677 -283 677 -265 c 128,-1,3
 677 -247 677 -247 692.5 -233.5 c 128,-1,4
 708 -220 708 -220 735 -220 c 0,5,6
 1020 -220 1020 -220 1020 0 c 2,7,-1
 1020 732 l 1,8,-1
 754 732 l 2,9,10
 733 732 733 732 721.5 745 c 128,-1,11
 710 758 710 758 710 775 c 0,12,13
 710 791 710 791 720.5 802.5 c 128,-1,14
 731 814 731 814 750 814 c 2,15,-1
 1080 814 l 2,16,17
 1116 814 1116 814 1116 785 c 2,18,-1
 1116 -10 l 2,19,20
 1116 -151 1116 -151 1014 -230 c 128,-1,21
 912 -309 912 -309 728 -309 c 0,0,1
464 1171 m 2,22,23
 488 1171 488 1171 501.5 1158 c 128,-1,24
 515 1145 515 1145 515 1127 c 0,25,26
 515 1110 515 1110 501.5 1097.5 c 128,-1,27
 488 1085 488 1085 465 1085 c 2,28,-1
 353 1085 l 1,29,-1
 353 86 l 1,30,-1
 645 86 l 1,31,32
 658 87 658 87 665 89.5 c 128,-1,33
 672 92 672 92 678.5 100 c 128,-1,34
 685 108 685 108 686 123 c 2,35,-1
 720 399 l 2,36,37
 723 420 723 420 737 431 c 128,-1,38
 751 442 751 442 770 442 c 0,39,40
 791 442 791 442 806 429 c 128,-1,41
 821 416 821 416 821 393 c 2,42,-1
 821 387 l 1,43,-1
 791 66 l 1,44,45
 787 37 787 37 768.5 18.5 c 128,-1,46
 750 0 750 0 719 0 c 2,47,-1
 113 0 l 2,48,49
 89 0 89 0 75.5 12.5 c 128,-1,50
 62 25 62 25 62 43 c 0,51,52
 62 60 62 60 75.5 73 c 128,-1,53
 89 86 89 86 112 86 c 2,54,-1
 257 86 l 1,55,-1
 257 1085 l 1,56,-1
 154 1085 l 2,57,58
 131 1085 131 1085 118 1097.5 c 128,-1,59
 105 1110 105 1110 105 1127 c 0,60,61
 105 1145 105 1145 118.5 1158 c 128,-1,62
 132 1171 132 1171 155 1171 c 2,63,-1
 464 1171 l 2,22,23
1022 1171 m 128,-1,65
 1056 1171 1056 1171 1080 1147 c 128,-1,66
 1104 1123 1104 1123 1104 1088 c 0,67,68
 1104 1054 1104 1054 1080 1030 c 128,-1,69
 1056 1006 1056 1006 1022 1006 c 0,70,71
 987 1006 987 1006 963 1030 c 128,-1,72
 939 1054 939 1054 939 1088 c 128,-1,73
 939 1122 939 1122 963.5 1146.5 c 128,-1,64
 988 1171 988 1171 1022 1171 c 128,-1,65
EndSplineSet
EndChar

